<?xml version="1.0" standalone="no"?>
<!DOCTYPE svg PUBLIC "-//W3C//DTD SVG 1.1//EN" "http://www.w3.org/Graphics/SVG/1.1/DTD/svg11.dtd" >
<svg>
<metadata>
Created by FontForge 20120731 at Sat Jun 29 23:47:34 2019
 By www
Copyright (c) 2016 by Mika Melvas. All rights reserved.
</metadata>
<defs>
<font id="KaleidosW00-Smooth" horiz-adv-x="355" >
  <font-face 
    font-family="KaleidosW00-Smooth"
    font-weight="400"
    font-stretch="normal"
    units-per-em="1000"
    panose-1="1 0 0 0 0 0 0 0 0 0"
    ascent="800"
    descent="-200"
    x-height="482"
    cap-height="729"
    bbox="-398 -261 1029 943"
    underline-thickness="50"
    underline-position="-75"
    unicode-range="U+000D-2212"
  />
<missing-glyph horiz-adv-x="756" 
d="M350 -22q-51 0 -96.5 18.5t-78.5 53.5t-51.5 84t-18.5 107q0 63 22 132.5t56 122.5t64 85q40 42 88.5 72.5t94 42t80.5 11.5q47 0 92.5 -16t81 -47.5t56.5 -79.5t21 -109q0 -78 -31.5 -163t-84.5 -154q-57 -72 -134.5 -116t-160.5 -44zM335 40q74 0 142 42.5t117 111.5
q45 64 71.5 143t26.5 150q0 80 -37 124t-113 44q-75 0 -145.5 -42.5t-122.5 -112.5q-45 -62 -71.5 -137t-26.5 -144q0 -88 43 -133.5t116 -45.5zM371 206q-13 0 -26 15.5t-13 34.5q0 21 21 43.5t70.5 56t66.5 46.5q84 62 84 115q0 38 -34 38q-16 0 -41.5 -12t-53 -40.5
t-39.5 -58.5q0 -4 -3.5 -9.5t-11.5 -5.5q-13 0 -26 15t-13 30q0 21 20 48t47 45t52.5 26t51.5 8t54 -11t46 -38.5t18 -60.5q0 -36 -23 -73t-89 -81q-11 -8 -50 -32.5t-63.5 -45.5t-32.5 -43q-4 -10 -12 -10zM307 90q-16 0 -27 13.5t-11 30.5q0 22 17 35.5t37 13.5
q16 0 25.5 -10t9.5 -25q0 -23 -16 -40.5t-35 -17.5z" />
    <glyph glyph-name="f_j.liga" unicode="fj" horiz-adv-x="480" 
d="M3 -229q-23 0 -43.5 15t-29 40.5t-8.5 49.5q0 44 20 116t82 205q3 6 42.5 91t63.5 128q2 5 -2 9q-16 14 -16 30q0 11 11 14q11 2 34 4q5 0 6 3l118 224q6 12 19 12q19 0 40.5 -22t21.5 -42q0 -10 -7 -17q-24 -26 -89 -146l-2 -5q0 -5 11 -5h47q44 0 57 -2q23 -3 23 -18
q0 -16 -14 -28.5t-44 -15.5l-80 -3q-3 0 -4 -3v-2q6 -28 6 -64q0 -110 -47.5 -260t-111.5 -235q21 0 41 11t39.5 34t51.5 80t120 262l103 242q4 8 18 8q21 0 45 -17.5t24 -37.5q0 -9 -4 -14q-27 -52 -54.5 -112.5t-75 -169t-70.5 -156.5q-89 -182 -198 -182q-36 0 -61 25
q-43 -46 -83 -46zM562 535q-19 0 -34.5 19t-15.5 42q0 26 11.5 50t29.5 34.5t34 10.5q25 0 41 -17.5t16 -38.5q0 -15 -9 -38t-30.5 -42.5t-42.5 -19.5zM15 -153q14 0 29 13l-4 19q0 9 5 15t10 6q2 0 5.5 -2t5.5 -5l5 -3q25 36 56 112t59 191t32 195q0 3 -3 4l-4 -4
q-4 -8 -19 -36.5t-55.5 -118t-86.5 -210t-48 -159.5q0 -17 13 -17z" />
    <glyph glyph-name="f_t.liga" unicode="ft" horiz-adv-x="494" 
d="M3 -229q-23 0 -43.5 15t-29 40.5t-8.5 49.5q0 44 20 116t82 205q3 6 42.5 91t63.5 128v3l-2 6q-16 14 -16 30q0 11 11 14q11 2 34 4q5 0 6 3l118 224q6 12 19 12q19 0 40.5 -22t21.5 -42q0 -10 -7 -17q-24 -26 -89 -146l-2 -5q0 -5 11 -5l143 2q5 0 6 4q46 85 87 153
q7 12 22 12q21 0 43.5 -21.5t22.5 -39.5q0 -7 -5 -12q-14 -16 -53 -89l-1 -3q1 -3 4 -3l48 -4q16 -3 16 -14q0 -12 -18 -25.5t-42 -17.5l-41 -2q-5 0 -6 -4q-52 -98 -93 -189t-41 -118q0 -7 4 -13t11 -6q27 0 82 68.5t126 189.5l4 2q8 0 18 -8t10 -14l-1 -4
q-36 -72 -88 -151t-99.5 -123.5t-83.5 -44.5q-24 0 -44 14.5t-28.5 37.5t-8.5 43q0 35 26.5 110.5t88.5 197.5v3q-1 3 -5 3l-115 -1q-4 0 -5 -4l1 -1q7 -35 7 -82q0 -80 -22.5 -176.5t-60.5 -180.5t-85.5 -138.5t-95.5 -54.5zM15 -153q25 0 61.5 57.5t70 144t54 179.5
t17.5 160q0 3 -3 4l-4 -4q-4 -8 -19 -36.5t-55.5 -118t-86.5 -210t-48 -159.5q0 -17 13 -17z" />
    <glyph glyph-name="o_r.liga" unicode="or" horiz-adv-x="633" 
d="M115 0q-42 0 -73 35t-31 90q0 45 22.5 108.5t60 122.5t83 97t87.5 38q25 0 47.5 -15t36.5 -47l4 -6q22 -20 22 -66q0 -34 -12 -74v-3l2 -3l3 2q28 40 47.5 72t37.5 77v3v4q-6 11 -6 25q0 32 18 57.5t38 35t33 9.5q12 0 19.5 -7.5t7.5 -20.5q0 -26 -25 -68l-1 -3l4 -4
q36 -12 63.5 -26t39.5 -31t12 -32q0 -23 -15 -46q-3 -4 -28.5 -44t-50.5 -82t-35.5 -67t-10.5 -35q0 -11 10 -11q9 0 23 9.5t33.5 31.5t40.5 51.5t37 54.5t28.5 45t26 42t14.5 24q2 3 6 3q6 0 16 -8.5t10 -13.5l-2 -7q-32 -64 -83 -143t-101.5 -126.5t-89.5 -47.5
q-15 0 -32 9.5t-29 31.5t-12 46q0 18 8.5 49t31 71.5t60.5 100.5t38 78q0 11 -13.5 18.5t-37.5 7.5q-4 0 -7 -6q-57 -127 -94 -176t-77 -55q-5 -2 -6 -5q-41 -72 -95.5 -121t-103.5 -49zM136 82q19 0 49.5 28.5t71.5 101.5l1 7q-5 90 53 140l3 6l2 18q0 14 -5.5 22.5
t-15.5 8.5q-12 0 -30.5 -11.5t-42.5 -41t-49.5 -74t-43.5 -93t-18 -79.5q0 -15 6.5 -24t18.5 -9z" />
    <glyph glyph-name="o_x.liga" unicode="ox" horiz-adv-x="694" 
d="M326 -47q-13 0 -24.5 9.5t-11.5 20.5q0 7 4 12q3 5 151 173q3 3 2 7q-6 41 -8 100l-2 5l-4 -4q-26 -57 -66.5 -100t-75.5 -47l-6 -4q-28 -40 -60.5 -70.5t-61 -42.5t-48.5 -12q-42 0 -73 35t-31 90q0 45 22.5 108.5t60 122.5t83 97t87.5 38q25 0 47.5 -15t36.5 -47l4 -6
q22 -20 22 -66q0 -26 -9 -61t-23 -68l-1 -3l3 -3l3 2q30 27 60 88t49 119q4 19 26.5 33t43.5 14q12 0 20 -6.5t8 -18.5l-1 -10q-3 -14 -10 -59t-6 -103q0 -4 2.5 -4.5t5.5 1.5q172 203 189 210q2 2 8 2q14 0 27 -14t13 -26q0 -6 -4 -9q-89 -84 -139 -132.5t-92 -95.5
q-2 -2 -2 -8q4 -47 16 -77t20.5 -36t13.5 -6q1 0 3.5 0.5t11.5 4.5t29 26t40 50.5t35.5 53.5t26 42.5t17.5 29t12.5 21.5t10.5 19t6 10q2 3 5 3q5 0 14 -10.5t9 -17.5l-1 -7q-1 -2 -3 -5t-36 -68t-73.5 -121.5t-74.5 -86.5t-66 -30q-24 0 -44.5 17.5t-33 43.5t-19.5 48
q-1 3 -3.5 3.5t-4.5 -2.5q-49 -61 -109 -145q-7 -12 -21 -12zM136 82q40 0 98 92q2 2 2 7q1 34 22 77t47 67l4 6q7 23 7 52q0 14 -5.5 22.5t-15.5 8.5q-18 0 -44 -22t-56.5 -68.5t-56 -106t-27.5 -99.5q-1 -17 5.5 -26.5t19.5 -9.5z" />
    <glyph glyph-name="o_z.liga" unicode="o&#x7a;" horiz-adv-x="686" 
d="M115 0q-42 0 -73 35t-31 90q0 45 22.5 108.5t60 122.5t83 97t87.5 38q25 0 47.5 -15t36.5 -47l4 -6q22 -20 22 -66q0 -43 -23 -107l-1 -3l2 -2l3 3q39 41 79 133l1 4v4q-6 17 -6 39q0 20 7 33t21 13q5 0 13 -9.5t20.5 -14t29.5 -4.5q52 0 160 34l13 2q12 0 26.5 -9
t25.5 -30t11 -40q0 -25 -16 -34q-193 -177 -279 -271l-2 -4q1 -4 4 -4l5 1q49 17 85 17q24 0 44 -11t30 -32.5t10 -42.5q0 -19 -14 -19q-11 0 -24 10q-18 13 -57 13q-31 0 -70.5 -7.5t-49.5 -13.5q-10 -5 -17 -5q-22 0 -40 23t-18 51q0 22 13 39q27 36 112 126t158 155l3 4
l-4 4h-2q-101 -28 -151 -32q-5 0 -6 -4q-12 -39 -38 -87.5t-55 -83t-50.5 -49.5t-35.5 -17l-6 -4q-28 -40 -60.5 -70.5t-61 -42.5t-48.5 -12zM136 82q40 0 98 92q2 2 2 7q1 33 22 76.5t47 67.5l4 6q7 23 7 52q0 14 -5.5 22.5t-15.5 8.5q-18 0 -44 -22t-56.5 -68.5t-56 -106
t-27.5 -99.5q-1 -17 5.5 -26.5t19.5 -9.5z" />
    <glyph glyph-name="s_s.liga" unicode="ss" horiz-adv-x="581" 
d="M105 -9q-30 0 -55.5 16t-45.5 55t-20 91q0 34 11.5 59.5t31.5 26.5q5 0 6 4l65 108l59 91q37 51 60 67t43 16q26 0 47.5 -18t21.5 -36q0 -4 -2.5 -9.5t-5.5 -7.5q-18 -13 -31.5 -52.5t-22.5 -139.5l-2 -18q0 -2 2 -3.5t4 -1.5l51 1l6 1l1 2l65 108q40 65 59 91
q28 40 52 61.5t50 21.5q27 0 48.5 -18t21.5 -36q0 -11 -9 -17q-12 -9 -22 -29t-18 -57.5t-21 -184.5q-5 -62 -28 -107.5t-57.5 -65t-68.5 -19.5t-61.5 19.5t-44 59t-16.5 83.5l1 19q0 5 -5 5h-10q-6 0 -6 -5q-4 -35 -15 -68.5t-31 -58.5t-47.5 -39.5t-60.5 -14.5zM69 209h2
q44 13 93 20q2 0 3.5 1.5t1.5 3.5q5 26 13.5 85.5t13.5 81.5l1 5l-2 3l-5 -2q-6 -6 -19 -23t-54 -85l-50 -84l-2 -3zM388 62q12 0 27 15t29.5 65t28.5 143t19 116l1 5l-3 3l-5 -2q-3 -3 -8.5 -9t-13.5 -18t-17 -26.5t-19.5 -32l-13.5 -22.5l-40 -66q8 -3 17.5 -11t13 -20.5
t3.5 -17.5q0 -10 -4 -17.5t-10 -7.5q-4 0 -9 5q-6 6 -42 11h-2q-2 0 -4.5 -3t-2.5 -8q0 -17 5 -41t19 -42.5t31 -18.5zM93 62q38 0 63 106v1q1 2 -1 3.5t-4 1.5q-78 -6 -109 -10q-4 0 -4 -7v-1q1 -26 10 -50t21.5 -34t23.5 -10z" />
    <glyph glyph-name="t_t.liga" unicode="tt" horiz-adv-x="478" 
d="M94 0q-32 0 -52 25.5t-20 69.5q0 29 10 63l1 2l-3 3l-2 -1q-7 -2 -22 -2q-10 0 -18 4q-3 1 -1 5q22 31 67.5 106t78.5 139v3l-4 4q-13 4 -23 16t-10 22q0 11 11 14q10 2 60 4q5 0 6 4q52 98 85 153q8 12 22 12q20 0 42 -21t22 -39q0 -8 -5 -13q-14 -14 -56 -88l-1 -3
q1 -4 4 -4h120q6 0 7 4q50 96 84 152q8 12 22 12q20 0 42 -21t22 -39q0 -8 -5 -13q-11 -11 -58 -90q-3 -7 4 -7l51 -2q16 -3 16 -14q0 -12 -17.5 -25.5t-41.5 -17.5l-45 -1q-5 0 -6 -4q-49 -91 -89.5 -183.5t-40.5 -124.5q0 -7 3.5 -13t11.5 -6q27 0 82.5 69.5t124.5 188.5
l5 2q8 0 17.5 -8t9.5 -14l-1 -4q-37 -73 -88 -151.5t-99 -123t-84 -44.5q-31 0 -51.5 26t-20.5 69q0 27 10 63q-45 -68 -91.5 -113t-85.5 -45zM127 85q39 0 138 144q66 107 104 180l1 3q-2 3 -5 3h-118q-4 0 -6 -4q-49 -90 -89 -182.5t-40 -124.5q0 -7 3.5 -13t11.5 -6z" />
    <glyph glyph-name=".notdef" horiz-adv-x="756" 
d="M350 -22q-51 0 -96.5 18.5t-78.5 53.5t-51.5 84t-18.5 107q0 63 22 132.5t56 122.5t64 85q40 42 88.5 72.5t94 42t80.5 11.5q47 0 92.5 -16t81 -47.5t56.5 -79.5t21 -109q0 -78 -31.5 -163t-84.5 -154q-57 -72 -134.5 -116t-160.5 -44zM335 40q74 0 142 42.5t117 111.5
q45 64 71.5 143t26.5 150q0 80 -37 124t-113 44q-75 0 -145.5 -42.5t-122.5 -112.5q-45 -62 -71.5 -137t-26.5 -144q0 -88 43 -133.5t116 -45.5zM371 206q-13 0 -26 15.5t-13 34.5q0 21 21 43.5t70.5 56t66.5 46.5q84 62 84 115q0 38 -34 38q-16 0 -41.5 -12t-53 -40.5
t-39.5 -58.5q0 -4 -3.5 -9.5t-11.5 -5.5q-13 0 -26 15t-13 30q0 21 20 48t47 45t52.5 26t51.5 8t54 -11t46 -38.5t18 -60.5q0 -36 -23 -73t-89 -81q-11 -8 -50 -32.5t-63.5 -45.5t-32.5 -43q-4 -10 -12 -10zM307 90q-16 0 -27 13.5t-11 30.5q0 22 17 35.5t37 13.5
q16 0 25.5 -10t9.5 -25q0 -23 -16 -40.5t-35 -17.5z" />
    <glyph glyph-name="glyph1" horiz-adv-x="600" 
 />
    <glyph glyph-name="uni000D" unicode="&#xd;" horiz-adv-x="600" 
 />
    <glyph glyph-name="space" unicode=" " horiz-adv-x="191" 
 />
    <glyph glyph-name="exclam" unicode="!" horiz-adv-x="319" 
d="M187 186q-11 0 -20 13t-9 29q0 10 5 23q13 37 99 240t96 231q5 15 22 15q22 0 47 -22t25 -42q0 -6 -3 -12q-22 -37 -117 -219t-123 -238q-9 -18 -22 -18zM102 -1q-22 0 -36.5 18t-14.5 41q0 30 22.5 48t49.5 18q22 0 34.5 -13t12.5 -34q0 -14 -7.5 -32.5t-25 -32
t-35.5 -13.5z" />
    <glyph glyph-name="quotedbl" unicode="&#x22;" horiz-adv-x="309" 
d="M240 535q-9 0 -22.5 10.5t-13.5 19.5q0 5 5 13q7 14 47 85.5t49 93.5q5 10 17 10t32.5 -13.5t20.5 -28.5q0 -13 -36 -71.5t-62 -88.5t-37 -30zM364 535q-9 0 -22 11t-13 19q0 6 6 13q39 61 101 179q5 10 17 10t32 -13.5t20 -28.5q0 -1 -2.5 -8.5t-22.5 -42t-60 -87
t-56 -52.5z" />
    <glyph glyph-name="numbersign" unicode="#" horiz-adv-x="600" 
d="M195 60q-10 0 -19 16t-9 32q0 14 6 26l37 70l4 9q-2 3 -6 3h-33q-14 0 -25 17t-11 32q0 18 20 18h86q7 0 10 6l35 68l4 10q0 4 -4 4h-35q-11 0 -24.5 15t-13.5 29q0 9 6 15.5t16 6.5h88q2 0 5.5 2.5t4.5 4.5l75 142q3 8 12 8q5 0 13 -6t14.5 -19.5t3.5 -25.5q0 -7 -5 -16
l-39 -75l-5 -11q1 -4 5 -4h80q2 0 5.5 2.5t4.5 4.5l74 142q1 1 3.5 4.5t8.5 3.5q11 0 22 -12.5t11 -29.5l-1 -9l-5 -16l-39 -75l-5 -12q2 -3 5 -3h13q21 0 33.5 -17.5t12.5 -34.5q0 -7 -4.5 -10.5t-9.5 -3.5h-83q-6 0 -10 -6l-34 -67l-5 -12q0 -3 5 -3h15q16 0 31 -19
t15 -35q0 -2 -2.5 -7.5t-11.5 -5.5h-85q-7 0 -10 -6l-73 -140q-6 -10 -14 -10q-10 0 -18.5 15.5t-8.5 32.5q0 11 5 26l39 74l2 6l-3 2h-82q-2 0 -5.5 -2t-4.5 -4l-74 -140q-4 -10 -13 -10zM329 283h79q2 0 5.5 2t4.5 4l37 71l3 7q0 4 -6 4h-78q-2 0 -5.5 -2t-4.5 -4l-34 -65
l-5 -13q0 -4 4 -4z" />
    <glyph glyph-name="dollar" unicode="$" horiz-adv-x="422" 
d="M158 -40q-10 0 -19.5 15t-9.5 29l1 11l21 59l1 3q-1 4 -4 5q-28 8 -46.5 28.5t-18.5 49.5q0 16 7 29.5t21.5 24t26.5 10.5q9 0 9 -8q0 -3 -7.5 -11t-7.5 -18q0 -16 17 -26.5t30 -10.5l5 3l20 45l35 82v2l-3 5q-44 26 -60 55.5t-16 60.5q0 30 13.5 66.5t48 77t81 64
t86.5 26.5q5 0 6 4l42 93q5 8 10 8q7 0 13 -14t6 -29q0 -14 -2 -20l-19 -48q-2 -5 2 -7q19 -13 27 -36l2 -2l3 2q17 26 19 27q4 4 9 4q14 0 30 -18.5t16 -32.5q0 -5 -3 -10q-18 -22 -52 -78.5t-55 -105.5q-2 -3 -5.5 -6t-6.5 -3q-11 0 -22 14t-11 28q0 41 58 148l1 2l-2 3
q-5 3 -15 6t-16 3t-7 -4l-98 -233l-1 -3l3 -4q51 -26 68.5 -51.5t17.5 -55.5q0 -37 -22.5 -68t-66 -52.5t-102.5 -23.5q-4 0 -6 -5l-42 -101q-1 -3 -4.5 -5.5t-5.5 -2.5zM268 355l4 3l79 183v2l-3 2l-6 -2q-42 -26 -74 -66.5t-32 -71.5q0 -27 29 -49zM250 152l4 1
q32 8 53.5 24.5t21.5 37.5t-36 42l-3 1l-4 -4l-40 -96l-1 -2q2 -4 5 -4z" />
    <glyph glyph-name="percent" unicode="%" horiz-adv-x="618" 
d="M185 34q-7 0 -12.5 11t-5.5 25q0 27 15 51q4 6 17 25t68.5 96.5t77.5 108.5l77 112l2 3l-2 2l-4 -1q-27 -14 -52 -15q-5 0 -6 -4q-28 -42 -62.5 -69.5t-64.5 -27.5t-52.5 25.5t-22.5 63.5q0 24 11 61.5t39 88t64 81t66 30.5q18 0 34 -10.5t26 -32.5l4 -6q15 -13 15 -47
q0 -41 -22 -91l-1 -3l3 -3h3q20 9 54.5 33.5t63.5 56.5q35 50 75 102q11 14 17 14q5 0 7.5 -7t2.5 -17q0 -19 -6 -33q-6 -13 -28 -48t-108 -160t-103 -149l-174 -255q-8 -11 -16 -11zM240 398q12 0 30.5 15.5t43.5 56.5l1 4v3l-1 10q0 22 15 47.5t32 39.5l4 6q9 31 9 42
q0 18 -15 18q-13 0 -32.5 -16.5t-45.5 -55.5t-42 -80t-16 -63q0 -27 17 -27zM420 24q-30 0 -52.5 25.5t-22.5 63.5q0 24 11 61.5t39 88t64 81t66 30.5q18 0 34 -10.5t26 -32.5l4 -6q16 -14 16 -47q0 -24 -11.5 -61.5t-40.5 -86t-66 -77.5t-67 -29zM427 71q12 0 28 14.5
t34.5 41t43.5 78.5t28 90v2q0 7 -4 11.5t-11 4.5q-17 0 -41 -24.5t-46 -62t-35.5 -72.5t-13.5 -57q0 -12 4.5 -19t12.5 -7z" />
    <glyph glyph-name="ampersand" unicode="&#x26;" horiz-adv-x="564" 
d="M254 -26q-33 0 -65 9t-56.5 29t-39 50.5t-14.5 68.5q0 48 24.5 91t69.5 75t100 38l4 2l-3 3q-57 32 -57 104q0 47 24 97.5t64 92t88 66.5t92 25q49 0 82 -44l4 -2l4 3l23 41q8 11 18 11q20 0 41.5 -24t21.5 -44q0 -7 -4 -11q-30 -38 -78 -128.5t-69 -155.5q-3 -7 -11 -7
q-17 0 -32 16.5t-15 40.5q0 23 18 76.5t57 131.5l1 2q0 7 -15 7q-40 0 -80 -23t-71 -59.5t-49.5 -76t-18.5 -69.5q0 -47 59 -47l28 1q7 0 11 -5.5t4 -12.5q0 -13 -11 -29t-26 -16q-33 -4 -68.5 -20t-65.5 -44t-50 -64.5t-20 -71.5q0 -21 9.5 -39.5t26.5 -26.5t34 -8
q33 0 66 21t62 58t41 74v2q0 4 -4 4h-1q-45 -9 -55 -9q-16 0 -29.5 18.5t-13.5 35.5q0 7 4 11.5t11 4.5q29 0 101 8q23 3 62.5 6.5t57.5 3.5q16 0 31 -21.5t15 -37.5q0 -10 -7 -10l-101 1l-21 -2l-4 -3l2 -4q23 -18 23 -43t-16.5 -55t-46.5 -56.5t-73 -43t-93 -16.5z" />
    <glyph glyph-name="quotesingle" unicode="'" horiz-adv-x="180" 
d="M240 535q-9 0 -22.5 10.5t-13.5 19.5q0 5 5 13q7 14 47 85.5t49 93.5q5 10 17 10t32.5 -13.5t20.5 -28.5q0 -13 -36 -71.5t-62 -88.5t-37 -30z" />
    <glyph glyph-name="parenleft" unicode="(" horiz-adv-x="273" 
d="M118 -27q-35 0 -54 33.5t-19 95.5q0 84 29.5 186.5t77.5 197.5q63 124 137.5 207t127.5 83q27 0 46 -20.5t19 -40.5q0 -6 -6 -8q-36 -10 -79 -46.5t-88.5 -99t-83.5 -140.5q-43 -88 -69 -184t-26 -178q0 -33 7 -66l2 -8q0 -6 -6.5 -9t-14.5 -3z" />
    <glyph glyph-name="parenright" unicode=")" horiz-adv-x="409" 
d="M95 -27q-27 0 -46 20.5t-19 40.5q0 6 5 8q54 14 115.5 81t112.5 159q53 97 86 205.5t33 202.5q0 33 -7 66l-2 8q0 6 6.5 9t14.5 3q35 0 54 -33.5t19 -95.5q0 -95 -37.5 -212.5t-96.5 -220.5q-59 -106 -124.5 -173.5t-113.5 -67.5z" />
    <glyph glyph-name="asterisk" unicode="*" horiz-adv-x="318" 
d="M291 516q-5 0 -16 5.5t-15 13t-2 10.5l41 60l1 3q-1 2 -5 2h-28q-21 0 -36 13t-15 24q0 7 8 9l71 5l4 2l-3 4l-38 58l-3 9q0 7 10 7q3 0 14 -4t26 -22l30 -34l4 -2l5 3q35 57 49 73q3 5 7 5q7 0 13.5 -12t6.5 -22q0 -6 -2 -9l-28 -46l-3 -6q2 -3 6 -3l33 -2
q12 -1 23 -12.5t11 -24.5q0 -8 -14 -8l-61 -2q-3 0 -5 -5l2 -4q28 -41 37 -59l1 -4q0 -5 -6.5 -7.5t-14.5 -2.5t-15.5 3t-10.5 7l-27 40l-4 2l-4 -2l-37 -60q-1 -2 -4.5 -3.5t-5.5 -1.5z" />
    <glyph glyph-name="plus" unicode="+" horiz-adv-x="549" 
d="M279 86q-13 4 -28 20t-15 33q0 9 2 13l31 72l1 3q-2 4 -5 4l-107 -3q-5 0 -8 5.5t-3 12.5q0 20 15 43.5t33 23.5h107q6 0 7 4l21 49q7 16 18 47t17 43q5 9 14 9q8 0 20 -6t23.5 -19t11.5 -25l-1 -8l-39 -88v-2q-1 -4 4 -4h22l84 2q12 0 12 -20t-12 -42.5t-27 -22.5
l-115 2q-4 0 -6 -4l-56 -137q-3 -6 -12 -6z" />
    <glyph glyph-name="comma" unicode="," horiz-adv-x="241" 
d="M38 -71q-10 0 -24.5 9t-14.5 20q0 5 6 11q11 12 30.5 52t39.5 95q4 11 19 11q19 0 41 -15.5t22 -33.5q0 -22 -25.5 -60.5t-51.5 -63.5t-42 -25z" />
    <glyph glyph-name="hyphen" unicode="-" horiz-adv-x="481" 
d="M179 234q-5 0 -8 5.5t-3 13.5q0 20 15 44t34 24h132l86 2q13 0 13 -20q0 -21 -12 -44.5t-28 -23.5l-114 2z" />
    <glyph glyph-name="period" unicode="." horiz-adv-x="241" 
d="M101 -1q-22 0 -36.5 18t-14.5 41q0 30 22.5 48t49.5 18q22 0 34.5 -13t12.5 -34q0 -14 -7.5 -32.5t-25 -32t-35.5 -13.5z" />
    <glyph glyph-name="slash" unicode="/" horiz-adv-x="327" 
d="M70 -41q-12 0 -24.5 21t-12.5 49q0 24 14 52q21 38 156 260q11 18 100.5 170t142.5 223q9 11 16 11t13.5 -13.5t6.5 -45.5q0 -40 -17 -70l-210 -353q-98 -171 -176 -298q-4 -6 -9 -6z" />
    <glyph glyph-name="zero" unicode="0" horiz-adv-x="457" 
d="M194 -1q-31 0 -63.5 16t-52 55.5t-19.5 94.5t19 126.5t52 143.5t80 141t104 114t111 45q40 0 72 -22t50 -59.5t18 -89.5q0 -36 -11 -90.5t-38.5 -125.5t-66.5 -137.5t-82 -114t-87 -72.5t-86 -25zM192 91q31 0 72.5 37t94 127t84 187t31.5 151q0 58 -40 58
q-42 0 -91.5 -57.5t-93 -141t-71 -168.5t-27.5 -135q0 -58 41 -58z" />
    <glyph glyph-name="one" unicode="1" horiz-adv-x="309" 
d="M156 -6q-20 0 -42 20t-22 42q0 7 4 19q19 36 100 200t83 171l2 8l-3 2l-9 -5q-25 -20 -56 -34t-58 -14q-15 0 -22.5 8.5t-7.5 13.5q0 10 12 20q172 101 261 284q6 12 18 12q24 0 49 -24.5t25 -40.5q0 -6 -3 -11q0 -1 -2.5 -6t-130.5 -268.5t-177 -384.5q-4 -12 -21 -12z
" />
    <glyph glyph-name="two" unicode="2" horiz-adv-x="427" 
d="M50 -5q-22 0 -39 21.5t-17 50.5q0 8 3.5 19.5t13.5 17.5q18 9 54 33q117 82 217.5 177t151 179.5t50.5 141.5q0 15 -5 26t-24 11q-40 0 -88 -39t-79.5 -90.5t-43.5 -94.5q-5 -26 -26 -26q-18 0 -34.5 20t-16.5 49q0 30 21 72.5t58 82t85.5 65t99.5 25.5q27 0 53.5 -9
t48 -30.5t31 -51t9.5 -52.5q0 -33 -18 -81t-69 -117.5t-132 -141t-167 -128.5l-6 -9q0 -3 5 -4q4 0 35.5 3t49.5 3q20 0 29 -2q26 -4 43 -28.5t17 -47.5q0 -10 -5 -17.5t-13 -7.5l-14 2q-23 7 -73 7q-39 0 -89.5 -5.5t-87.5 -16.5q-20 -7 -28 -7z" />
    <glyph glyph-name="three" unicode="3" horiz-adv-x="445" 
d="M155 -9q-44 0 -80.5 12.5t-57.5 39t-21 68.5q0 23 10 37.5t21 14.5q6 0 13 -5.5t8 -12.5q2 -16 14.5 -31t36 -22t47.5 -7q37 0 74 14t67 38t47.5 54.5t17.5 62.5q0 22 -8.5 34.5t-20.5 16.5t-21.5 5t-19 0.5t-11.5 -0.5q-21 0 -59 -8q-10 -3 -14 -3q-9 0 -16 9t-7 19
q0 32 19 52.5t41 20.5l40 3q24 2 58.5 13t73.5 43t63 76.5t24 75.5q0 26 -15 39t-37 13q-49 0 -105 -47t-73 -92q-3 -11 -10.5 -16.5t-15.5 -5.5q-17 0 -31 18t-14 48q0 21 12.5 47t45.5 54.5t77.5 44t84.5 15.5q73 0 122 -43t49 -100q0 -40 -24.5 -83t-70 -82t-111.5 -68
q-3 -2 -3 -5l2 -3q30 -21 48.5 -43.5t23.5 -44t5 -33.5q0 -40 -23 -81.5t-64.5 -76t-96.5 -55t-115 -20.5z" />
    <glyph glyph-name="four" unicode="4" horiz-adv-x="471" 
d="M281 1q-8 0 -21.5 7t-25.5 24t-12 38q0 9 10 29q23 45 43 96l4 12q0 6 -11 6q-8 0 -51 -4.5t-102 -11.5l-24 -2q-15 0 -28 22.5t-13 37.5q0 14 21 35t199 206.5t222 235.5q10 12 20 12q12 0 29 -13.5t33.5 -39.5t16.5 -36t-4 -18q-22 -44 -49.5 -102t-61.5 -133.5
t-37 -81.5l-3 -9q0 -5 5 -6q12 -3 17 -8q15 -11 28.5 -30.5t13.5 -33.5q0 -7 -5.5 -12.5t-14.5 -5.5l-81 1q-8 0 -14 -11q-7 -17 -37.5 -88.5t-42.5 -96.5q-3 -9 -10 -14t-14 -5zM182 290l76 5l60 6q8 1 14 14l113 256l1 7l-2 4l-9 -6l-255 -277l-3 -5q2 -4 5 -4z" />
    <glyph glyph-name="five" unicode="5" horiz-adv-x="449" 
d="M134 5q-24 0 -54 10.5t-51 37t-21 56.5q0 19 7 31.5t20 12.5q5 0 9 -2.5t7 -6.5t6 -10t3 -7q8 -16 23 -21.5t35 -5.5q30 0 69.5 15.5t85.5 54.5t72.5 88.5t26.5 89.5q0 48 -40 48q-21 0 -50 -11.5t-76 -53.5q-13 -12 -30 -12q-23 0 -40 14.5t-17 30.5q0 10 4 15l5.5 11
t40 77.5t90.5 166.5l3 14l-1 24q0 9 5.5 19t28.5 17q36 9 140 14q96 6 159 6q9 0 16 -5.5t7 -14.5q0 -17 -19 -39.5t-43 -27.5q-29 -5 -104.5 -11t-79.5 -6q-14 -1 -18 -9q-2 -2 -29.5 -53.5t-43.5 -87.5q-5 -10 -5 -14q0 -6 5 -6l37 4q62 0 105.5 -43t43.5 -108
q0 -48 -24.5 -101.5t-69.5 -99t-107 -73.5t-131 -28z" />
    <glyph glyph-name="six" unicode="6" horiz-adv-x="445" 
d="M197 -10q-45 0 -76.5 23.5t-48.5 64t-17 85.5q0 61 25.5 133.5t66.5 143.5t99 139.5t123 113t120 44.5q27 0 46 -19t19 -49q0 -13 -6.5 -21.5t-13.5 -8.5q-4 0 -12.5 3.5t-16.5 3.5q-45 0 -99.5 -40t-95.5 -92.5t-62 -91.5q-5 -7 -5 -13q0 -4 3 -4l9 4q9 7 31 20.5
t43.5 18.5t35.5 5q15 0 40.5 -12t47.5 -46.5t22 -86.5q0 -21 -9 -60.5t-40 -93.5t-70 -90.5t-79 -55t-80 -18.5zM182 68q27 0 61.5 26t65.5 68t51 92.5t20 95.5q0 37 -27 37q-23 0 -53 -18t-60 -49q-9 -9 -34 -39.5t-51 -79.5q-10 -18 -10 -76q0 -57 37 -57z" />
    <glyph glyph-name="seven" unicode="7" horiz-adv-x="413" 
d="M129 -1q-21 0 -41 20.5t-20 45.5q0 14 13 36q43 75 153 226t221 284q0 1 3 5t3 7q0 4 -7 4q-1 0 -7.5 -0.5t-94 -11t-103.5 -10.5q-19 0 -29 16t-10 40q0 19 7 29.5t16 10.5l16 -1q34 0 135.5 9.5t138.5 15.5l26 5q13 0 25.5 -9t19.5 -28t7 -34q0 -6 -3.5 -16t-8.5 -15
q-92 -106 -237 -305.5t-197 -299.5q-12 -24 -26 -24z" />
    <glyph glyph-name="eight" unicode="8" horiz-adv-x="459" 
d="M190 -4q-74 0 -119.5 41t-45.5 104q0 128 211 233l7 7l-3 6q-30 22 -45.5 51.5t-15.5 60.5q0 38 20 80.5t55 78t82 57t97 21.5q47 0 86.5 -19.5t59 -51.5t19.5 -60q0 -32 -16.5 -63.5t-42 -59t-59.5 -53t-102 -64.5q-8 -4 -8 -7t6 -7q52 -35 67 -61t15 -57
q0 -44 -22.5 -87t-61 -77t-87 -53.5t-97.5 -19.5zM310 425l8 3q87 52 137 103.5t50 96.5q0 9 -5.5 19t-16 14.5t-22.5 4.5q-21 0 -50 -10.5t-63.5 -38t-54.5 -64t-20 -68.5q0 -24 14.5 -42t22.5 -18zM194 82q19 0 48.5 10.5t59.5 36.5t45.5 51t15.5 47q0 41 -63 83l-4 2
l-6 -2q-34 -14 -77 -42.5t-64 -60t-21 -60.5q0 -28 17.5 -46.5t48.5 -18.5z" />
    <glyph glyph-name="nine" unicode="9" horiz-adv-x="448" 
d="M162 -3q-29 0 -57.5 11.5t-47 37t-18.5 53.5q0 15 6.5 24.5t15.5 9.5q3 0 8.5 -2t18.5 -24q2 -5 19.5 -12t39.5 -7q37 0 80.5 23t87 75t75.5 109q9 14 9 18q0 3 -4 4l-10 -8q-23 -21 -57 -34.5t-62 -13.5q-31 0 -58.5 14t-42.5 47.5t-15 70.5t14.5 88t48 106.5t73 88.5
t71.5 44t57 11q65 0 110.5 -50.5t45.5 -128.5q0 -67 -33 -162.5t-81.5 -172t-96 -123.5t-97.5 -72t-100 -25zM283 331q32 0 67.5 27.5t65.5 70t48 89t18 81.5q0 27 -11.5 42t-34.5 15q-16 0 -38 -10t-47 -35.5t-49 -64t-41 -86t-17 -81.5q0 -48 39 -48z" />
    <glyph glyph-name="colon" unicode=":" horiz-adv-x="314" 
d="M237 281q-22 0 -36.5 18t-14.5 41q0 30 22.5 47.5t49.5 17.5q22 0 34.5 -12.5t12.5 -33.5q0 -31 -21 -54.5t-47 -23.5zM137 -1q-22 0 -36.5 18t-14.5 41q0 30 22.5 48t49.5 18q22 0 34.5 -13t12.5 -34q0 -31 -21 -54.5t-47 -23.5z" />
    <glyph glyph-name="semicolon" unicode=";" horiz-adv-x="314" 
d="M237 281q-22 0 -36.5 18t-14.5 41q0 30 22.5 47.5t49.5 17.5q22 0 34.5 -12.5t12.5 -33.5q0 -31 -21 -54.5t-47 -23.5zM75 -71q-10 0 -24.5 9t-14.5 20q0 6 5 11q23 24 71 147q4 11 18 11q20 0 42 -15.5t22 -33.5q0 -16 -17.5 -47t-50 -66.5t-51.5 -35.5z" />
    <glyph glyph-name="equal" unicode="=" horiz-adv-x="536" 
d="M221 370q-5 0 -8 5.5t-3 12.5q0 21 14.5 44t33.5 23h225l83 1q13 0 13 -19q0 -20 -12 -42.5t-27 -22.5l-129 2zM158 228q-5 0 -8 5.5t-3 12.5q0 20 15 43.5t33 23.5h225l84 2q12 0 12 -20t-12 -42.5t-27 -22.5l-129 2z" />
    <glyph glyph-name="question" unicode="?" horiz-adv-x="448" 
d="M200 204q-17 0 -35 21t-18 46q0 28 29 58.5t96 76t89 61.5q38 28 65 56t38 54t11 46q0 14 -5.5 26.5t-17 18.5t-24.5 6q-23 0 -57 -16.5t-70.5 -54.5t-52.5 -78q-5 -20 -21 -20q-17 0 -34.5 19.5t-17.5 40.5q0 22 18 51.5t49.5 57t74 45t88.5 17.5q73 0 116.5 -43
t43.5 -106q0 -40 -18 -75t-51 -66.5t-83 -65.5q-14 -9 -66.5 -42.5t-86 -62t-44.5 -58.5q-4 -13 -16 -13zM101 -1q-22 0 -36.5 18t-14.5 41q0 30 22.5 48t49.5 18q22 0 34.5 -13t12.5 -34q0 -14 -7.5 -32.5t-25 -32t-35.5 -13.5z" />
    <glyph glyph-name="at" unicode="@" horiz-adv-x="804" 
d="M384 -122q-44 0 -94.5 14t-98 50.5t-73.5 84t-34.5 91t-8.5 78.5q0 59 17.5 127t51 132.5t88 124t132.5 97.5t171 38q59 0 114.5 -18t99 -53t68.5 -86t25 -113q0 -66 -28 -130t-73.5 -113.5t-99 -78t-101.5 -28.5q-75 0 -81 116l-2 3l-3 -2q-41 -67 -69 -90t-50 -23
q-27 0 -42 23t-15 59q0 31 11 71.5t30 81t48.5 82.5t62 64.5t57.5 22.5q22 0 45 -13.5t35 -31.5l3 -2l4 4l19 35q6 10 17 10q16 0 33.5 -17.5t17.5 -36.5q0 -11 -6 -20q-59 -91 -96.5 -160.5t-37.5 -91.5q0 -18 22 -18q21 0 57 25.5t71.5 69.5t59.5 101t24 115t-23.5 97.5
t-67 62t-102.5 22.5q-57 0 -112.5 -23.5t-103 -64t-83.5 -93.5t-58.5 -111.5t-27 -99.5t-4.5 -55q0 -110 67.5 -173t188.5 -63q26 0 54 4q20 4 34 11.5t22.5 19t13.5 11.5t8.5 -5t3.5 -13q0 -14 -10 -34.5t-32 -40t-57 -33t-82 -13.5zM366 169q18 0 78 85t105 162l1 3l-2 5
q-6 7 -15 12.5t-18 5.5q-11 0 -29.5 -13t-48 -58t-53.5 -104.5t-24 -84.5q0 -13 6 -13z" />
    <glyph glyph-name="A" unicode="A" horiz-adv-x="578" 
d="M-17 -18q-17 0 -35.5 9.5t-30.5 30t-12 37.5q0 18 11 18q3 0 12.5 -5.5t19.5 -5.5q25 0 67.5 28t88.5 77l2 4q-2 3 -5 3l-18 -1q-14 0 -29 19.5t-15 33.5q0 9 11 9l31 -1l91 3q3 0 7 4q97 101 201.5 233t164.5 228q10 19 30 19q11 0 27 -8.5t30 -28t14 -38.5
q0 -12 -4 -20q-21 -51 -54 -149.5t-64 -225.5l-1 -2q0 -3 3 -6q11 -9 20 -21t9 -18q-1 -5 -6 -6l-34 -3l-5 -4q-27 -106 -27 -148q0 -12 2.5 -19.5t2.5 -9.5q0 -8 -8.5 -12.5t-20.5 -4.5q-18 0 -36.5 10t-27 27.5t-8.5 34.5q0 40 20 114q1 3 -0.5 4.5t-3.5 1.5l-63 -3
l-106 -6l-7 -3q-76 -92 -139.5 -145.5t-104.5 -53.5zM288 246l132 11q5 2 5 6q21 71 57 180t41 124v2q0 3 -3 4q-4 0 -6 -6q-125 -184 -227 -313l-2 -5z" />
    <glyph glyph-name="B" unicode="B" horiz-adv-x="546" 
d="M289 -9q-98 0 -129 66l-3 3l-4 -4q-15 -34 -18 -47q-4 -12 -21 -12q-10 0 -26 6t-30 21t-14 33q0 12 7 23q18 28 120 243t140 292l1 3l-3 3l-3 -1q-62 -22 -113 -62t-77 -76.5t-26 -59.5q0 -9 4.5 -16t15 -14.5t10.5 -13.5q0 -14 -18 -14q-19 0 -38 15.5t-32.5 47
t-13.5 59.5q0 30 20.5 64t71.5 70t119.5 59t125.5 29q5 2 6 5l6 12q7 13 25 13q13 0 29 -7.5t25 -17.5q2 -2 11 -4q59 -10 100.5 -39.5t65 -71t23.5 -86.5q0 -40 -21.5 -81t-67.5 -80.5t-116 -65.5l-4 -4l3 -4q30 -20 49 -53t19 -70q0 -27 -12.5 -55.5t-41 -52t-71.5 -39.5
t-94 -16zM275 303l2 1q61 12 114 38t90 60.5t57 71.5t20 70q0 43 -32.5 68.5t-80.5 25.5q-4 0 -6 -3q-45 -80 -166 -325l-1 -3zM229 83q88 0 146 32t58 80q0 29 -18.5 41.5t-53.5 12.5q-23 0 -53 -6t-59 -18l-9 -2l-8 2l-6 -3q-15 -28 -54 -122l-1 -3l3 -3q23 -11 55 -11z
" />
    <glyph glyph-name="C" unicode="C" horiz-adv-x="414" 
d="M190 -12q-73 0 -117.5 56.5t-44.5 147.5q0 60 21 130.5t56.5 137t83.5 127.5t101 99.5t95 38.5q49 0 82 -44l4 -2l4 3l23 41q8 10 18 10q20 0 41.5 -24t21.5 -44q0 -6 -4 -10q-30 -38 -78 -128.5t-69 -155.5q-3 -7 -11 -7q-17 0 -32 16.5t-15 40.5q0 23 18 76.5t57 131.5
l1 3q0 6 -15 6q-27 0 -65 -22t-87 -79t-84 -125t-52.5 -127t-17.5 -107q0 -55 23 -82t64 -27q70 0 143 67t140 184l4 3q6 0 15 -10t9 -18l-1 -5q-22 -48 -61.5 -108t-90.5 -107.5t-96.5 -67t-83.5 -19.5z" />
    <glyph glyph-name="D" unicode="D" horiz-adv-x="576" 
d="M266 -9q-89 0 -112 64l-4 3l-3 -3l-16 -41q-6 -15 -21 -15q-23 0 -45.5 20.5t-22.5 43.5q0 9 3 16q40 86 269 536l1 4l-3 2h-3q-37 -12 -76 -32t-74 -51.5t-52 -62t-17 -49.5q0 -15 15 -26t15 -16q0 -15 -18 -15q-19 0 -38 15.5t-32.5 47.5t-13.5 59q0 20 10.5 46
t38 52.5t71.5 51.5t104 43t114 23q6 1 7 4l5 11q7 13 23 13q13 0 30 -9t26 -21l7 -4q32 -8 63.5 -26t55.5 -48.5t38.5 -74t14.5 -99.5q0 -73 -31 -155.5t-83 -152t-117 -112t-129 -42.5zM228 83q27 0 64 13.5t76.5 48t77.5 89t64 127t26 132.5q0 42 -13 72.5t-35.5 49
t-44.5 18.5q-5 0 -7 -3q-47 -86 -134 -257t-134 -273l-1 -4l3 -3q24 -10 58 -10z" />
    <glyph glyph-name="E" unicode="E" horiz-adv-x="443" 
d="M186 -8q-26 0 -60 7t-65 31.5t-45 60t-14 68.5q0 25 11 53.5t39 59t68.5 54.5t74.5 36l4 4l-2 3q-63 61 -63 122q0 40 26 80.5t67.5 73t90 51.5t90.5 19q70 0 91 -50l3 -2l7 7l23 33q6 6 15 6q17 0 37 -19t20 -37q0 -9 -7 -16q-21 -25 -39 -54t-30 -54t-19.5 -43
t-15 -36.5t-9.5 -23.5q-4 -8 -12 -8q-17 0 -27 17.5t-10 42.5q0 48 42 134l1 3l-4 4q-12 4 -27 4q-48 0 -106.5 -27t-96 -67.5t-37.5 -70.5q0 -26 27.5 -45t76.5 -19q30 0 55 5q17 2 27 -13.5t10 -35.5q0 -18 -8 -31t-22 -14q-35 -3 -84 -12.5t-97 -33t-73 -55.5t-25 -61
q0 -31 25.5 -51t80.5 -20q60 0 115 26t107 79.5t103 142.5l4 3q6 0 14 -10t8 -18l-1 -5q-46 -100 -106 -168t-125.5 -99t-132.5 -31z" />
    <glyph glyph-name="F" unicode="F" horiz-adv-x="495" 
d="M304 -38q-9 0 -24 7.5t-29.5 24.5t-14.5 35q0 12 5 19q40 69 102 189l1 4q-1 3 -4 3h-2q-41 -6 -90.5 -15.5t-56.5 -9.5q-12 0 -26 20.5t-14 37.5q0 4 2 6t4 2h28q19 0 41 1.5t48 4t60.5 6.5t39.5 5l5 4q46 89 73 146t39 98.5t12 68.5t-12 37.5t-42 10.5
q-48 0 -110 -22.5t-118 -57.5t-91.5 -72t-35.5 -63q0 -8 4.5 -14.5t15 -14t10.5 -13.5q0 -15 -19 -15q-18 0 -37 15.5t-32.5 47.5t-13.5 58q0 19 13 45t45.5 54.5t84 56t118.5 46.5t121 19q34 0 67.5 -9t60 -30t43 -51.5t16.5 -66.5q0 -80 -104 -275l-1 -3l3 -6
q16 -18 16 -27q0 -2 -4 -5t-35 -8q-3 0 -6 -3q-108 -208 -139 -281q-4 -10 -17 -10z" />
    <glyph glyph-name="G" unicode="G" horiz-adv-x="495" 
d="M342 -60q-20 0 -42 16t-22 33q0 7 3 11q5 8 19.5 31.5t27.5 46.5t24 48l2 8l-3 3q-5 -2 -8 -7q-42 -61 -89.5 -93.5t-88.5 -32.5q-60 0 -100 54t-40 138q0 58 21 126.5t56.5 134.5t86 127.5t109 100.5t111.5 39q25 0 48.5 -10.5t53.5 -48.5l4 -3l3 3l18 28q7 10 17 10
q18 0 38 -24.5t20 -43.5q0 -9 -4 -12q-21 -21 -54 -73t-72 -141q-3 -7 -12 -7q-14 0 -27.5 18.5t-13.5 42.5q0 23 19 70.5t45 86.5l1 4q0 5 -11 9.5t-23 4.5q-29 0 -66 -15.5t-79.5 -53.5t-86 -99.5t-74 -141.5t-30.5 -145q0 -49 18 -77t51 -28q32 0 66 25.5t66 67t63 92.5
l2 3q-2 3 -5 3l-99 -17q-12 0 -26 19.5t-14 33.5q0 9 8 9q4 0 20 1t40.5 2.5t59.5 4.5l101 10q13 0 30 -20.5t17 -32.5q0 -8 -8 -8l-50 1q-3 0 -5 -3l2 -4q17 -12 20.5 -22t3.5 -13q0 -4 -6 -12q-29 -51 -67 -140.5t-46 -121.5q-3 -16 -23 -16z" />
    <glyph glyph-name="H" unicode="H" horiz-adv-x="635" 
d="M192 -34q-15 0 -34.5 12.5t-28.5 28t-9 26.5q0 9 5 19q12 19 80 147v3q0 2 -1.5 3t-3.5 0l-39 -3q-13 0 -26 8t-21.5 24.5t-8.5 29.5q0 11 9 11q51 0 127 8q9 1 12 7q131 243 131 320q0 45 -45 45q-25 0 -62.5 -16t-85 -55t-76.5 -81.5t-29 -67.5q0 -14 13.5 -24
t15 -12.5t1.5 -4.5q0 -15 -18 -15q-19 0 -37.5 15.5t-32 47t-13.5 58.5q0 39 28.5 79t74.5 72.5t97 51.5t92 19q43 0 78.5 -20.5t59 -57.5t23.5 -81q0 -34 -19.5 -90t-82.5 -172v-3q1 -4 5 -3l140 12q6 1 9.5 3t7.5 11q173 364 181 401q4 16 20 16q10 0 26.5 -8t32 -25
t15.5 -32q0 -6 -3 -12q-13 -23 -67.5 -134t-109.5 -228l-1 -3l3 -5q8 -7 14 -16.5t6 -14.5q0 -9 -7 -9l-34 -1q-5 0 -6 -4q-88 -191 -103 -232q-4 -15 -21 -15q-21 0 -43 20t-22 43q0 9 4 17q15 29 74 155l1 3q-1 3 -4 3q-53 -5 -154 -18q-5 -1 -6 -5q-94 -178 -117 -242
q-3 -9 -15 -9z" />
    <glyph glyph-name="I" unicode="I" horiz-adv-x="385" 
d="M223 -25q-4 -9 -16 -9q-9 0 -25 7.5t-30.5 24.5t-14.5 35q0 12 5 19q11 20 52 101t64 125q133 253 133 333q0 47 -46 47q-25 0 -62 -15.5t-83.5 -53.5t-74.5 -79.5t-28 -66.5q1 -14 16 -25t15 -17q0 -15 -18 -15q-19 0 -38.5 16t-33 48t-13.5 59q0 29 19 64.5t66.5 74
t105 60t98.5 21.5q35 0 73.5 -17.5t66 -59t27.5 -86.5q0 -36 -21 -94t-92 -197q-8 -17 -45.5 -90.5t-63 -126t-36.5 -83.5z" />
    <glyph glyph-name="J" unicode="J" horiz-adv-x="497" 
d="M85 -119q-40 0 -73 29.5t-33 76.5q0 33 22 72t71.5 77t123 72t159.5 53l6 4q61 97 102.5 195t41.5 154q0 24 -10.5 36t-35.5 12q-39 0 -89 -29t-95 -72t-74 -86.5t-29 -68.5q0 -14 13.5 -24t15 -12.5t1.5 -4.5q0 -15 -18 -15q-19 0 -38 15.5t-32.5 47t-13.5 58.5
q0 29 19 63.5t50.5 66.5t78.5 63.5t96 48t83 16.5q44 0 79 -19.5t58 -57t23 -88.5q0 -48 -27.5 -123t-74.5 -158l-2 -4l2 -3q14 0 22 -9.5t8 -18.5q0 -10 -8 -10h-2l-42 -4q-8 -1 -9 -5q-53 -85 -122 -169t-135 -131.5t-112 -47.5zM72 -41q37 0 105.5 67.5t139.5 168.5l1 3
l-3 3h-2q-30 -10 -73 -30.5t-89.5 -55.5t-73.5 -72.5t-27 -60.5q0 -10 6 -16.5t16 -6.5z" />
    <glyph glyph-name="K" unicode="K" horiz-adv-x="606" 
d="M180 -11q-20 0 -44 22t-24 45q0 12 5 19q31 53 106 201q93 184 113.5 245.5t20.5 96.5q0 14 -4 24.5t-22 10.5q-35 0 -95 -44t-104.5 -103.5t-44.5 -90.5q0 -14 13.5 -24t15 -12.5t1.5 -4.5q0 -15 -18 -15q-19 0 -38 15.5t-32.5 47.5t-13.5 58q0 39 28.5 82t74 79
t96 57.5t90.5 21.5q46 0 79.5 -28t46 -64.5t12.5 -63.5q0 -31 -13 -74.5t-59 -133.5v-2q0 -5 4 -5l3 2q45 35 108.5 96.5t127.5 136t91 122.5q3 6 11 6q16 0 36 -23.5t20 -45.5q0 -24 -37 -73t-123.5 -131t-185.5 -154l-4 -4l1 -3q6 -41 18.5 -91t33 -84t41.5 -34q9 0 19 8
t15 8q4 0 7 -3t3 -7q0 -7 -12 -25t-38.5 -36.5t-53.5 -18.5q-37 0 -65 29.5t-45.5 88t-17.5 144.5q0 3 -3 5q-4 -1 -5 -4q-102 -196 -124 -259q-3 -10 -15 -10z" />
    <glyph glyph-name="L" unicode="L" horiz-adv-x="514" 
d="M399 -68q-9 0 -11 12q-5 25 -79 72.5t-138 69.5l-3 1l-5 -2q-43 -38 -87 -38q-35 0 -58 16.5t-23 41.5q0 13 9.5 26.5t34.5 20.5t60 7l20 -1q4 0 6 4q27 47 81.5 183.5t85 196t60 99t60.5 58t61 18.5q18 0 37 -9t37 -40l4 -3l4 3q10 21 24 42q8 11 18 11q9 0 23.5 -8.5
t27 -26.5t12.5 -32q0 -8 -4 -12q-31 -42 -79 -133t-71 -156q-3 -10 -13 -10q-15 0 -31.5 19t-16.5 43q0 25 17 72t65 144l1 4q0 5 -7 5q-48 0 -91.5 -53t-104 -196t-80 -178.5t-26.5 -47.5l-1 -3l5 -4q99 -18 168 -54t69 -74q0 -18 -13 -41.5t-26.5 -35t-21.5 -11.5z" />
    <glyph glyph-name="M" unicode="M" horiz-adv-x="780" 
d="M672 -42q-19 0 -42 11.5t-34 30t-11 35.5q0 3 1.5 16.5t15 67.5t50 161t73.5 195l1 3l-2 3l-3 -2q-103 -171 -292 -443q-9 -15 -27 -15q-21 0 -41.5 20t-20.5 46q0 9 3 18l111 381v3l-1 2l-4 -3q-129 -258 -235 -392t-176 -134q-16 0 -33.5 9t-29 28t-11.5 35t11 16
q3 0 11.5 -5.5t22.5 -5.5q36 0 98 60.5t166 214.5t239 402q6 11 20 11q10 0 26.5 -7.5t32 -25.5t15.5 -37q0 -14 -8 -25q-8 -15 -36 -96t-55.5 -175.5t-38.5 -147.5v-3l2 -4l4 3q217 324 319 503q7 11 26 11q12 0 31.5 -6.5t37 -21.5t17.5 -28l-1 -7q-38 -76 -91.5 -220
t-89.5 -272t-36 -173q0 -8 2.5 -15t2.5 -11q0 -5 -5.5 -8t-14.5 -3z" />
    <glyph glyph-name="N" unicode="N" horiz-adv-x="583" 
d="M28 -18q-26 0 -47 16.5t-29 36t-8 32.5t9 13q2 0 11.5 -5.5t20.5 -5.5q70 0 176.5 177.5t222.5 464.5q5 12 20 12q10 0 28 -8t35.5 -27.5t17.5 -40.5q0 -13 -3 -21q-4 -17 -17.5 -185.5t-19.5 -230.5v-2q0 -3 3 -4l5 5q66 141 137.5 307t76.5 191q4 16 20 16q10 0 26 -8
t31.5 -25t15.5 -31q0 -6 -5 -13q-16 -21 -72 -135t-131.5 -279t-93.5 -218q-9 -20 -30 -20q-20 0 -43.5 19.5t-33 43t-7.5 39.5l31 406l1 3l-3 3l-3 -3q-77 -183 -128 -285.5t-106.5 -170t-107.5 -67.5z" />
    <glyph glyph-name="O" unicode="O" horiz-adv-x="502" 
d="M202 -14q-43 0 -80 23.5t-59 68t-22 110.5q0 76 29 166.5t75.5 169t98.5 127.5t94 49q11 0 23 -5h3l4 1q39 22 77 22q21 0 44 -10t45.5 -36.5t33 -64.5t10.5 -70q0 -50 -18.5 -118t-50.5 -138t-80 -138t-107.5 -112.5t-119.5 -44.5zM194 61q32 0 77 38.5t102.5 132
t92.5 194.5t35 157q0 36 -14 52t-35 16q-29 0 -64 -28.5t-70 -76t-64 -106t-46 -114.5q-2 -11 -9 -11q-5 0 -12.5 6.5t-12.5 17.5l-3 3l-5 -7q-13 -34 -22.5 -82t-9.5 -85q0 -34 8 -60t22.5 -36.5t29.5 -10.5z" />
    <glyph glyph-name="P" unicode="P" horiz-adv-x="501" 
d="M96 -1q-10 0 -25.5 7t-29.5 23.5t-14 33.5q0 9 4 16q1 2 4.5 9.5t99.5 205t158 331.5v2l-3 4l-3 -1q-39 -14 -84 -46.5t-79 -80.5t-34 -77q0 -15 15 -26t15 -16q0 -15 -18 -15q-19 0 -38 15.5t-32.5 47.5t-13.5 59q0 29 18.5 61t60 62.5t101 54.5t125.5 34q4 0 6 4l5 15
q3 16 20 16q11 0 27 -8.5t27 -19.5q3 -3 7 -3q60 -6 102 -33t65.5 -69.5t23.5 -89.5q0 -25 -10.5 -61t-37.5 -77.5t-71 -82.5t-104 -70t-114 -29q-7 0 -24 3.5t-30 18.5l-4 3l-4 -4q-67 -145 -89 -202q-2 -7 -8.5 -11t-13.5 -4zM239 273h2q59 11 110.5 40t88.5 68.5t57.5 83
t20.5 80.5q0 43 -30 71t-68 28q-4 0 -9 -8q-50 -91 -175 -358v-2z" />
    <glyph glyph-name="Q" unicode="Q" horiz-adv-x="502" 
d="M340 -102q-30 0 -55 24.5t-44 63.5q-1 3 -5 4h-2q-22 -4 -32 -4q-43 0 -80 23.5t-59 68t-22 110.5q0 76 29 166.5t75.5 169t98.5 127.5t94 49q11 0 23 -5h3l4 1q39 22 77 22q21 0 44 -10t45.5 -36.5t33 -64.5t10.5 -70q0 -67 -33.5 -168.5t-94 -194t-122.5 -139.5l-2 -4
l1 -3q18 -26 36.5 -41t31.5 -15q7 0 17.5 8t15.5 8q10 0 10 -11q0 -7 -11 -25t-36 -36t-51 -18zM194 61q19 0 19 6l-1 2q-9 42 -9 68q0 32 16 50.5t33 18.5q15 0 15 -13q2 -15 6.5 -37.5t8.5 -35.5l4 -4l4 2q59 62 113 166t76 180.5t22 118.5q0 36 -14 52t-35 16
q-29 0 -64 -28.5t-70 -76t-64 -106t-46 -114.5q-2 -11 -9 -11q-5 0 -12.5 6.5t-12.5 17.5l-3 3l-5 -7q-13 -34 -22.5 -82t-9.5 -85q0 -34 8 -60t22.5 -36.5t29.5 -10.5z" />
    <glyph glyph-name="R" unicode="R" horiz-adv-x="513" 
d="M355 -6q-24 0 -47 16.5t-42.5 54.5t-29.5 87t-12 83q0 3 -3 4q-4 -1 -5 -4q-85 -183 -101 -226q-4 -14 -21 -14q-10 0 -25.5 7t-29.5 23t-14 33q0 9 4 17q184 375 266 555v2l-3 4l-3 -1q-51 -19 -99 -58.5t-74 -82.5t-26 -67q0 -15 15 -26t15 -16q0 -15 -18 -15
q-19 0 -38 15.5t-32.5 47.5t-13.5 59q0 19 9 43t33 49.5t63 50.5t93.5 45t108.5 28q5 2 6 6l3 10q4 14 20 14q4 0 17 -3.5t32 -18.5q4 -2 10 -2q62 -5 106 -32.5t69 -71t25 -90.5q0 -32 -16 -72t-53 -81.5t-94.5 -78t-126.5 -50.5q-3 0 -4 -4v-2q18 -72 46 -115.5t52 -43.5
q9 0 20.5 9.5t17.5 10.5q4 0 6.5 -3.5t2.5 -8.5q0 -8 -12 -27.5t-39.5 -39.5t-57.5 -20zM255 310h2q42 10 88 31.5t91 60t67.5 81t22.5 74.5q0 18 -11 38.5t-37.5 35t-57.5 14.5q-5 0 -7 -5q-45 -80 -160 -324l-1 -2z" />
    <glyph glyph-name="S" unicode="S" horiz-adv-x="475" 
d="M185 -9q-50 0 -86.5 13t-56 39.5t-19.5 59.5q0 19 10 39t29 31.5t32 11.5q11 0 11 -10q0 -4 -10 -14t-10 -24q0 -18 16.5 -30.5t40 -17t42.5 -4.5q59 0 108.5 25.5t49.5 62.5q0 7 -3.5 16.5t-17 21t-60.5 35.5t-65.5 37.5t-33 28.5t-27 41t-12.5 63q0 54 27.5 109.5
t73 99t101.5 69.5t108 26q20 0 41 -7t35 -22.5t20 -33.5l3 -3l3 2q22 33 26 37t11 4q18 0 38.5 -23.5t20.5 -43.5q0 -8 -4 -12q-25 -31 -68.5 -103t-70.5 -136q-4 -11 -15 -11q-14 0 -28 18t-14 37q0 47 75 191l1 2q0 6 -17 11t-33 5q-43 0 -100.5 -35t-96 -87.5
t-38.5 -90.5q0 -14 6 -28t18.5 -25t24.5 -18t63 -33t71 -46.5t29 -42t9 -48.5q0 -29 -13.5 -61t-45.5 -60t-83 -47t-116 -19z" />
    <glyph glyph-name="T" unicode="T" horiz-adv-x="381" 
d="M165 -1q-21 0 -44.5 21t-23.5 44q0 8 4 15q202 404 265 546l1 3l-4 4q-15 3 -50.5 5.5t-67.5 2.5q-73 0 -114.5 -27.5t-41.5 -72.5q0 -20 13 -30t13 -15q0 -6 -5.5 -9.5t-14.5 -3.5q-10 0 -28.5 14t-35 45.5t-16.5 61.5q0 56 42 89t126 33q27 0 58.5 -4t56 -8t42.5 -7
t34.5 -6.5t18.5 -3.5h1q5 0 7 5l6 19q5 15 20 15q30 0 68 -49q5 -7 10 -7l31 -1q66 0 107 30q5 5 12 5t11.5 -8.5t4.5 -19.5q0 -28 -18 -48t-45 -27t-51 -7q-32 0 -81 11q-3 0 -6 -4q-55 -105 -158 -320.5t-125 -275.5q-2 -7 -8.5 -11t-13.5 -4z" />
    <glyph glyph-name="U" unicode="U" horiz-adv-x="614" 
d="M472 -19q-20 0 -39.5 20.5t-19.5 42.5l2 13q45 98 93 213l2 7q0 4 -4 5l-6 -5q-94 -150 -154 -213.5t-105 -63.5q-17 0 -37.5 12.5t-36 43.5t-15.5 65q0 24 10.5 62t33 83.5t75 140.5t71.5 143.5t19 80.5q0 13 -4.5 23t-22.5 10q-42 0 -101.5 -43t-101 -102t-41.5 -91
q0 -14 15 -25t15 -17q0 -14 -18 -14q-19 0 -37.5 15t-31.5 45.5t-13 56.5q0 39 28.5 82t73.5 79t95 57.5t90 21.5q31 0 61 -16.5t49 -55.5t19 -77q0 -21 -10.5 -56.5t-34.5 -86t-91.5 -173.5t-67.5 -159q0 -18 16 -18q34 0 104 72t169.5 225.5t183.5 332.5q7 13 21 13
q21 0 45.5 -22.5t24.5 -41.5q0 -8 -6 -14q-31 -42 -87 -156t-124 -282t-79 -208q-3 -12 -11 -18.5t-17 -6.5z" />
    <glyph glyph-name="V" unicode="V" horiz-adv-x="545" 
d="M260 -9q-15 0 -40.5 16.5t-38 38.5t-12.5 40q0 16 6 28q35 83 96.5 279.5t61.5 244.5q0 14 -6 21t-16 7q-27 0 -82.5 -45t-97 -106.5t-41.5 -99.5q0 -14 13.5 -24t15 -12.5t1.5 -4.5q0 -15 -18 -15q-19 0 -38 15.5t-32.5 47.5t-13.5 58q0 39 28 83.5t72 82t91.5 60.5
t82.5 23q27 0 54.5 -17t47.5 -57.5t20 -79.5q0 -105 -145 -462l-1 -3q0 -3 4 -4l6 4q141 203 212 313.5t106 181.5t35 102q0 6 -3 12.5t-3 7.5t2 4.5t9 3.5q10 0 27 -11t32 -37t15 -51q0 -40 -49 -124.5t-207 -285t-174 -221.5q-8 -14 -20 -14z" />
    <glyph glyph-name="W" unicode="W" horiz-adv-x="779" 
d="M252 -9q-15 0 -40.5 16.5t-38 38.5t-12.5 40q0 10 5 27q84 209 107 277t37 118.5t17 76.5t3 34q0 45 -25 45q-15 0 -44 -18.5t-71.5 -63t-69.5 -92t-27 -75.5q0 -14 13.5 -24t15 -12.5t1.5 -4.5q0 -15 -18 -15q-19 0 -38 15.5t-32.5 47.5t-13.5 58q0 29 18 68t62.5 84
t98 71t92.5 26q36 0 63.5 -19.5t45 -55t17.5 -80.5q0 -33 -20.5 -104.5t-81.5 -219.5t-62 -151l-1 -4q0 -3 3 -4l4 3q69 106 161 270.5t179 342.5q4 14 17 14q18 0 40 -23t22 -43q0 -8 -4 -13q-15 -26 -38.5 -81.5t-55.5 -148t-51.5 -172t-19.5 -115.5q-1 -35 16 -35
q22 0 61 47.5t90 147t97.5 219t52.5 180.5q1 11 -6.5 22.5t-7.5 15.5q0 7 5 11.5t12 4.5q11 0 33 -10.5t43 -36.5t21 -56q0 -25 -20.5 -89t-73 -172t-111.5 -196t-110.5 -136t-92.5 -48q-28 0 -53.5 25.5t-36 60.5t-10.5 63q0 23 10 56.5t27 82t22 64.5l1 3q0 3 -3 5l-4 -4
q-54 -99 -200 -345q-7 -14 -20 -14z" />
    <glyph glyph-name="X" unicode="X" horiz-adv-x="557" 
d="M69 -32q-18 0 -39 22.5t-21 42.5q0 10 7 17q146 134 288 275l2 7q7 145 31 298l1 10q0 11 -5.5 19t-19.5 8t-36.5 -10.5t-51 -35.5t-60 -63.5t-55 -82.5t-23.5 -69q0 -14 13.5 -24t15 -12.5t1.5 -4.5q0 -15 -18 -15q-19 0 -38 15.5t-32.5 47t-13.5 58.5q0 36 27.5 81.5
t71 85.5t92 65.5t88.5 25.5q37 0 66 -21t48.5 -58t19.5 -73l-2 -17q-2 -12 -8 -45.5t-9 -52.5t-4 -33l2 -8l8 4q62 62 157 173t105 121q7 7 16 7q17 0 33.5 -23t16.5 -43q0 -9 -5 -14q-194 -176 -332 -325l-2 -6q-2 -114 14 -189.5t45 -75.5q6 0 14.5 5t13.5 5q8 0 8 -10
q0 -12 -13 -29t-31.5 -25.5t-34.5 -8.5q-37 0 -60.5 26.5t-37 77t-17.5 128.5q0 3 -3 4l-3 -1q-108 -113 -150.5 -162.5t-65.5 -84.5q-6 -7 -14 -7z" />
    <glyph glyph-name="Y" unicode="Y" horiz-adv-x="621" 
d="M392 -201q-10 0 -25 8t-28 26t-13 35q0 5 4 15q20 39 91.5 193.5t84.5 182.5q5 10 5 16l-2 3q-7 -5 -13 -13q-95 -147 -152.5 -206t-102.5 -59q-17 0 -37.5 12.5t-36 43.5t-15.5 65q0 24 10.5 62t33 83.5t75 140.5t71.5 143.5t19 80.5q0 13 -4.5 23t-22.5 10
q-42 0 -101.5 -43t-101 -102t-41.5 -91q0 -14 15 -25t15 -17q0 -14 -18 -14q-19 0 -37.5 15t-31.5 45.5t-13 56.5q0 39 28.5 82t73.5 79t95 57.5t90 21.5q31 0 61 -16.5t49 -55.5t19 -77q0 -21 -10.5 -56.5t-34.5 -86t-91.5 -173.5t-67.5 -159q0 -18 16 -18q42 0 127.5 95
t178 241.5t161.5 293.5q7 13 22 13q21 0 45.5 -22.5t24.5 -41.5q0 -8 -6 -14q-60 -82 -203.5 -404t-177.5 -425q-4 -12 -11.5 -18t-16.5 -6z" />
    <glyph glyph-name="Z" unicode="Z" horiz-adv-x="444" 
d="M54 -1q-9 0 -22 11t-25 36t-12 45q0 16 7 24q40 50 177 204.5t283 313.5l2 4l-4 3l-5 -1q-67 -25 -139 -41t-104 -16q-40 0 -60.5 28.5t-20.5 71.5q0 18 13 18q5 0 11.5 -5t18.5 -7.5t32 -2.5q55 0 157.5 10.5t160.5 29.5l9 2q15 0 33.5 -18.5t27 -40t8.5 -36.5
q0 -19 -11 -27q-76 -60 -215 -211.5t-241 -276.5l-3 -4l3 -2h2q106 34 160 34q33 0 53.5 -13t30.5 -34.5t10 -47.5q0 -15 -4.5 -28t-11.5 -13q-8 0 -12 12q0 8 -14 15.5t-54 7.5q-55 0 -126.5 -14t-106.5 -29q-3 -2 -8 -2z" />
    <glyph glyph-name="bracketleft" unicode="[" 
d="M154 -2q-30 0 -48 11.5t-21.5 25.5t-3.5 20q0 34 45 132q217 471 249 531q10 18 26 27.5t44 9.5h40q26 0 40.5 -11.5t14.5 -24.5q0 -6 -4.5 -10.5t-11.5 -4.5h-30q-20 0 -33 -23q0 -1 -3 -6.5t-43.5 -86.5t-140 -293t-99.5 -233q0 -2 1.5 -7t16.5 -5h39q11 0 11 -12
q0 -11 -11.5 -25.5t-26.5 -14.5h-51z" />
    <glyph glyph-name="backslash" unicode="\" horiz-adv-x="427" 
d="M332 -35q-18 0 -47.5 32t-35.5 62q-18 96 -85 667l-2 17q0 5 5 8t12 3q16 0 37 -11.5t32 -30.5t13 -37q0 -3 1.5 -14t31 -283.5t45.5 -383.5l2 -18q0 -11 -9 -11z" />
    <glyph glyph-name="bracketright" unicode="]" horiz-adv-x="337" 
d="M81 -2q-26 0 -40.5 11.5t-14.5 24.5q0 7 4.5 11.5t12.5 4.5h30q19 0 32 23q19 33 153 314t134 305q0 12 -18 12h-39q-12 0 -12 12q0 11 11.5 25t27.5 14h51q21 0 39 -7t25.5 -20.5t7.5 -28.5q0 -39 -45 -133q-219 -478 -249 -531q-11 -18 -26.5 -27.5t-42.5 -9.5h-41z
" />
    <glyph glyph-name="asciicircum" unicode="^" horiz-adv-x="392" 
d="M382 447q-9 0 -14.5 4t-3.5 11q16 59 32 126.5t20 94.5q1 4 -3 6l-3 -2q-28 -23 -91 -94t-97 -119q-2 -3 -8 -3t-16 6.5t-17 17t-7 21.5q0 14 20.5 47t67.5 86t92.5 88.5t64.5 35.5q22 0 52 -23.5t28 -47.5q-1 -10 -4 -31.5t-10.5 -55.5t-13.5 -59.5t-11.5 -47.5
t-5.5 -23q-2 -7 -12 -16t-28 -15.5t-32 -6.5z" />
    <glyph glyph-name="underscore" unicode="_" horiz-adv-x="536" 
d="M-4 -112q-7 0 -12.5 8.5t-5.5 23.5q0 47 41.5 71.5t134.5 24.5q71 0 136 -11t98.5 -24t50 -26.5t16.5 -29.5q0 -10 -6 -20.5t-14 -10.5q-6 0 -13 4q-16 7 -100 14.5t-159 7.5q-134 0 -151 -24q-10 -8 -16 -8z" />
    <glyph glyph-name="a" unicode="a" horiz-adv-x="410" 
d="M76 0q-32 0 -50.5 28t-18.5 72q0 51 23 118t60.5 128.5t83 101t86.5 39.5q26 0 53.5 -16t42.5 -37l4 -3l4 3l23 43q7 12 21 12q20 0 40.5 -20.5t20.5 -43.5q0 -14 -7 -25q-33 -49 -90.5 -163.5t-57.5 -141.5q0 -10 8 -10q6 0 17.5 10.5t31 36.5t43 62t40.5 64t33.5 56
t17.5 29l5 2q8 0 17.5 -8t9.5 -14l-1 -4q-74 -138 -119.5 -201.5t-78.5 -90.5t-56 -27q-26 0 -44.5 23t-18.5 57q0 25 6 55l1 2l-1 2l-5 -4q-31 -47 -55.5 -77t-47 -44t-41.5 -14zM114 85q18 0 85.5 92t135.5 206v3l-1 4q-20 24 -40 24q-33 0 -78 -61.5t-78 -142.5t-33 -111
q0 -14 9 -14z" />
    <glyph glyph-name="b" unicode="b" horiz-adv-x="396" 
d="M36 -2q-15 0 -32 9t-25 22t-8 25q0 10 4 18q26 77 128.5 302.5t155.5 329.5q6 11 20 11q9 0 24.5 -7.5t30 -24t14.5 -31.5q0 -7 -5 -17q-15 -21 -82.5 -153.5t-79.5 -155.5l-2 -6l2 -3q4 1 7 5q64 80 105.5 123t63.5 43q15 0 32 -10.5t28.5 -33t11.5 -60.5q0 -42 -15 -92
t-46 -106t-72 -99.5t-78 -65t-70 -21.5q-22 0 -39.5 12.5t-30.5 44.5q-1 4 -4 5l-3 -3l-16 -51q-3 -10 -19 -10zM115 80q40 0 95 64.5t94.5 150t39.5 118.5q0 11 -7 12q-9 0 -56 -53t-106.5 -133.5t-89.5 -140.5l-2 -5l2 -3q16 -10 30 -10z" />
    <glyph glyph-name="c" unicode="c" horiz-adv-x="312" 
d="M127 0q-24 0 -50.5 11.5t-44 42.5t-17.5 72q0 37 15.5 90.5t54 121.5t85 108.5t79.5 40.5q13 0 26 -7t28 -35l4 -3l4 3q21 35 37 35t31 -14.5t15 -29.5q0 -8 -9 -17q-15 -15 -47 -62t-56 -94q-4 -8 -12 -8q-9 0 -17.5 11t-8.5 29q0 37 44 113l2 5l-3 2q-11 0 -28.5 -11
t-40 -39t-46.5 -71.5t-41 -90.5t-17 -78q0 -21 10 -35.5t32 -14.5q64 0 150 110q44 59 99 154l5 3q5 0 13 -8.5t8 -15.5q0 -9 -18 -44.5t-55 -92.5q-115 -181 -231 -181z" />
    <glyph glyph-name="d" unicode="d" horiz-adv-x="414" 
d="M74 0q-30 0 -48.5 27.5t-18.5 72.5q0 51 23 118t60.5 128.5t83 101t86.5 39.5q26 0 53.5 -16t42.5 -37l4 -3l4 3q22 43 67.5 142t53.5 119q4 13 19 13q10 0 25.5 -8t30.5 -25.5t15 -31.5q0 -12 -5 -18q-20 -24 -101.5 -187t-127.5 -265q-9 -20 -17 -45t-8 -33
q0 -10 9 -10q6 0 17.5 10.5t31 36.5t43 62t40.5 64t33.5 56t17.5 29l5 2q8 0 17.5 -8t9.5 -14l-1 -4q-74 -138 -119.5 -201.5t-78.5 -90.5t-56 -27q-26 0 -44 23t-18 59q0 30 6 59v1l-2 4l-3 -3q-56 -88 -89 -115.5t-61 -27.5zM114 85q18 0 86.5 93t133.5 204l1 3l-1 4
q-17 23 -39 23q-20 0 -44.5 -22.5t-56 -70.5t-60.5 -119.5t-29 -100.5q0 -14 9 -14z" />
    <glyph glyph-name="e" unicode="e" horiz-adv-x="325" 
d="M130 0q-23 0 -50 11.5t-46 43.5t-19 74q0 35 15 87.5t49 112.5t70.5 96.5t64 49t46.5 12.5q26 0 52.5 -15.5t38.5 -38.5t12 -43q0 -25 -12 -55t-39 -59.5t-67 -52t-82 -22.5q-9 0 -18.5 2t-10.5 2q-4 0 -5 -4q-15 -43 -15 -76q0 -51 41 -51q31 0 76 30.5t85 80.5
q51 66 90 134l4 3q6 0 14.5 -8.5t8.5 -16.5q0 -7 -16 -38t-50 -82q-33 -51 -73.5 -91.5t-81.5 -63t-82 -22.5zM164 250q20 0 48 21.5t56 66t28 69.5q0 13 -10 13q-22 0 -61.5 -48t-69.5 -110l-2 -6q0 -6 11 -6z" />
    <glyph glyph-name="f" unicode="f" horiz-adv-x="282" 
d="M3 -229q-23 0 -43.5 15t-29 40.5t-8.5 49.5q0 44 20 116t82 205q3 6 42.5 91t63.5 128v3l-2 6q-16 14 -16 30q0 11 11 14q11 2 33 4q6 0 7 3l118 224q6 12 19 12q19 0 40.5 -22t21.5 -42q0 -10 -7 -17q-24 -26 -89 -146l-2 -5q0 -5 11 -5q30 0 60.5 -1.5t36.5 -3.5
q16 -3 16 -14q0 -13 -18.5 -27.5t-43.5 -17.5q-30 -3 -62 -3q-4 0 -4 -4v-1q7 -35 7 -82q0 -80 -22.5 -176.5t-60.5 -180.5t-85.5 -138.5t-95.5 -54.5zM15 -153q25 0 61.5 57.5t70 144t54 179.5t17.5 160q0 3 -3 4l-4 -4q-4 -8 -19 -36.5t-55.5 -118t-86.5 -210t-48 -159.5
q0 -17 13 -17z" />
    <glyph glyph-name="g" unicode="g" horiz-adv-x="388" 
d="M43 -209q-26 0 -57 10.5t-53.5 33.5t-22.5 42q0 10 8 20.5t17 10.5q13 0 21 -20q6 -11 20.5 -21.5t35.5 -10.5q55 0 110 70.5t113 212.5l2 7l-3 4l-3 -3q-57 -76 -78 -98.5t-41 -35.5t-39 -13q-32 0 -49 27.5t-17 72.5q0 51 23 118t60.5 128.5t83 101t86.5 39.5
q25 0 50.5 -14t41.5 -34l4 -2l3 2l17 40q4 10 18 10q21 0 45 -20t24 -42q0 -9 -4 -17q-49 -92 -112 -238.5t-74 -172.5q-44 -99 -103 -153.5t-127 -54.5zM114 84q11 0 43 37t86 117t92 145v3l-1 4q-20 24 -40 24q-33 0 -78 -61.5t-78 -143t-33 -111.5q0 -14 9 -14z" />
    <glyph glyph-name="h" unicode="h" horiz-adv-x="408" 
d="M275 0q-18 0 -35 13t-24.5 35t-7.5 43q0 36 18.5 84t43.5 93.5t72 123.5l1 3l-3 3l-5 -3q-59 -56 -149.5 -174t-139.5 -207q-3 -14 -19 -14q-18 0 -36.5 17.5t-18.5 41.5q0 10 3 20q27 70 129 294t155 332q6 10 19 10q22 0 46.5 -21.5t24.5 -42.5q0 -8 -5 -16
q-16 -21 -72.5 -131t-120.5 -246l-1 -2q0 -3 4 -4l6 3q66 92 133.5 162t95.5 70q24 0 44.5 -25t20.5 -54q0 -10 -13 -32q-43 -69 -89 -163t-46 -118q0 -10 9 -10q6 0 18 10.5t32 36.5t44 62t39 60.5t26 42t19 31.5t9 15l4 2q8 0 18 -8t10 -14l-1 -4q-49 -91 -95 -162.5
t-89.5 -114t-73.5 -42.5z" />
    <glyph glyph-name="i" unicode="i" horiz-adv-x="195" 
d="M261 535q-19 0 -34.5 19t-15.5 42q0 25 14 49.5t33.5 35t36.5 10.5q25 0 36.5 -12.5t11.5 -33.5q0 -25 -15.5 -54t-34 -42.5t-32.5 -13.5zM65 0q-29 0 -49.5 25.5t-20.5 61.5q0 48 34 125q8 19 23 51t31.5 66t30 60.5l27 53t13.5 27.5q5 11 19 11q10 0 26.5 -7.5
t32 -23.5t15.5 -28q0 -9 -6 -17q-2 -2 -9 -12.5t-34.5 -57.5t-65 -127t-37.5 -110q0 -13 10 -13q6 0 17.5 10.5t31 36.5t43 62t40.5 64t33.5 56t17.5 29l5 2q8 0 17.5 -8t9.5 -14l-1 -4q-74 -138 -119.5 -201.5t-78.5 -90.5t-56 -27z" />
    <glyph glyph-name="j" unicode="j" horiz-adv-x="183" 
d="M265 535q-19 0 -34.5 19t-15.5 42q0 26 11.5 50t29.5 34.5t34 10.5q25 0 41 -17.5t16 -38.5q0 -15 -9 -38t-30.5 -42.5t-42.5 -19.5zM-159 -208q-22 0 -47 7.5t-42 26.5q-11 12 -11 26q0 10 6.5 18.5t13.5 8.5q8 0 13 -5q10 -10 18 -15.5t18 -5.5q36 0 70 30.5t76.5 107
t112.5 240.5l1 3l-2 3l-3 -2q-12 -4 -18 -4q-5 0 -9 2.5t-4 5.5q0 4 5 11q14 20 54.5 91t71.5 132q4 8 18 8q21 0 45 -17.5t24 -37.5q0 -9 -4 -14q-27 -52 -54.5 -112.5t-75 -169t-70.5 -156.5q-44 -91 -94.5 -136.5t-112.5 -45.5z" />
    <glyph glyph-name="k" unicode="k" horiz-adv-x="393" 
d="M29 0q-19 0 -38.5 18t-19.5 42q0 11 4 19q36 98 283 626q6 11 19 11q21 0 46 -22t25 -43q0 -8 -5 -16q-19 -27 -69 -123.5t-93 -188.5l-2 -5l3 -3l6 5q125 167 183 167q14 0 27.5 -11t21 -35t7.5 -46q0 -40 -26 -82.5t-65.5 -74t-88.5 -46.5q-4 -2 -4 -6q1 -20 8 -46.5
t17.5 -40.5t20.5 -14q27 0 82 74.5t116 183.5l5 2q8 0 17.5 -8t9.5 -14l-1 -4q-11 -25 -40 -76.5t-68 -107t-82 -95t-78 -39.5q-17 0 -35 11.5t-35 39t-25.5 65t-8.5 65.5q0 7 -10 7l-4 -3q-53 -87 -83 -172q-3 -14 -20 -14zM164 223q26 0 58 22t63 55t51.5 65.5t20.5 46.5
q0 8 -8 8q-20 0 -75 -54t-116 -138l-1 -3z" />
    <glyph glyph-name="l" unicode="l" horiz-adv-x="278" 
d="M111 0q-16 0 -36.5 11t-36.5 39t-16 61q0 35 18.5 104t66 175t101.5 191t100 129.5t81 44.5q25 0 46 -21t21 -52q0 -29 -22.5 -84t-76.5 -141t-117 -162.5t-104 -111.5l-7 -11q-14 -36 -14 -65q0 -32 24 -32q35 0 96.5 68.5t133.5 191.5l6 3q5 0 13 -10t8 -17l-1 -7
q-29 -63 -84.5 -142t-106.5 -120.5t-93 -41.5zM166 276q6 2 9 6q38 45 92 123.5t97.5 161t43.5 109.5q0 11 -7 11q-16 0 -54.5 -54.5t-90 -150t-91.5 -197.5l-2 -5z" />
    <glyph glyph-name="m" unicode="m" horiz-adv-x="587" 
d="M455 0q-16 0 -33.5 12t-25.5 32.5t-8 40.5q0 51 41 143t87 167l2 3l-4 4l-6 -3q-54 -61 -135.5 -174.5t-117.5 -192.5q-4 -13 -13.5 -20t-20.5 -7q-22 0 -42 18t-20 40q0 12 6 22q1 2 6.5 11.5t48 89t107.5 211.5l1 4l-3 3l-4 -2q-49 -52 -146 -185.5t-133 -202.5
q-4 -13 -18 -13q-18 0 -36.5 18t-18.5 42q0 13 5 24q15 40 82 188t93 199q6 11 19 11q8 0 22 -7t26 -22.5t12 -30.5q0 -8 -5 -18q-38 -58 -80 -152l-3 -9l2 -3q4 1 7 5q72 99 106.5 141t64 69t49.5 27q9 0 20.5 -8.5t20 -27t8.5 -35.5q0 -28 -46 -114l-2 -6l2 -2q6 2 9 6
q95 123 130 155t57 32t42.5 -24.5t20.5 -54.5q0 -10 -13 -32q-42 -68 -86.5 -160.5t-44.5 -116.5q0 -3 2 -6.5t6 -3.5q8 0 24 15.5t39.5 47.5t46.5 68.5t37.5 60t26.5 44t13 22.5l4 2q8 0 18 -8t10 -14l-1 -4q-97 -181 -158 -250t-100 -69z" />
    <glyph glyph-name="n" unicode="n" horiz-adv-x="405" 
d="M273 0q-17 0 -34 13t-24.5 35t-7.5 43q0 29 13 67t34.5 80.5t88.5 155.5l1 3l-3 3l-6 -4q-61 -55 -157 -180.5t-137 -201.5q-4 -13 -18 -13q-18 0 -36.5 18t-18.5 42q0 9 5 24q14 37 83 188t93 199q6 11 19 11q19 0 40 -19t21 -39q0 -10 -5 -18q-30 -42 -89 -167l-1 -6
l2 -3q6 3 9 9q70 98 143.5 172.5t105.5 74.5q23 0 41 -25t18 -54q0 -10 -13 -32q-43 -69 -89 -163t-46 -118q0 -3 2 -6.5t6 -3.5q6 0 18 10.5t32 36.5t44 62t39 60.5t26 42t19 31.5t9 15l5 2q7 0 17 -8t10 -14l-1 -4q-49 -91 -95 -162.5t-89.5 -114t-73.5 -42.5z" />
    <glyph glyph-name="o" unicode="o" 
d="M115 0q-42 0 -73 35t-31 90q0 45 22.5 108.5t60 122.5t83 97t87.5 38q25 0 47.5 -15t36.5 -47l4 -6q22 -20 22 -66q0 -32 -12 -72.5t-29 -77.5l-1 -2q0 -3 3 -4h2q23 9 49 41t65 102l4 1q7 0 17.5 -7.5t10.5 -12.5l-2 -7q-93 -190 -188 -190q-6 0 -8 -3
q-28 -40 -60.5 -70.5t-61 -42.5t-48.5 -12zM136 82q21 0 47.5 26.5t53.5 70.5q2 2 2 7q1 33 21.5 74t44.5 65l4 6q7 23 7 52q0 14 -5.5 22.5t-15.5 8.5q-18 0 -44 -22t-56.5 -68.5t-56 -106t-27.5 -99.5q-1 -17 5.5 -26.5t19.5 -9.5z" />
    <glyph glyph-name="p" unicode="p" horiz-adv-x="400" 
d="M-74 -212q-21 0 -43 18t-22 41q0 11 4 20q193 415 293 624q6 11 19 11q8 0 22 -7t26.5 -23t12.5 -31q0 -12 -5 -18q-11 -16 -34.5 -58t-43.5 -86v-3l2 -2l8 5q7 10 39.5 54t61.5 80t53.5 55.5t42.5 19.5q14 0 31.5 -12t29.5 -34.5t12 -57.5q0 -42 -15.5 -91.5t-47 -106
t-73 -100t-79 -65t-70.5 -21.5q-58 0 -78 68l-3 4l-4 -3l-37 -74q-15 -34 -45.5 -104.5t-35.5 -89.5q-3 -13 -21 -13zM118 85q17 0 40.5 14.5t52.5 47.5t60 82.5t54 104t23 80.5q0 11 -6 12q-9 0 -51.5 -49t-102 -128.5t-100.5 -145.5l-1 -5l1 -3q11 -10 30 -10z" />
    <glyph glyph-name="q" unicode="q" horiz-adv-x="397" 
d="M144 -247q-15 0 -33 10t-26.5 24t-8.5 26t5 22q27 59 141 282l1 5q0 3 -4 4q-5 -1 -7 -4q-60 -78 -88 -100t-50 -22q-32 0 -49.5 27.5t-17.5 72.5q0 51 23 118t60.5 128.5t83 101t86.5 39.5q26 0 53 -16t43 -37l3 -2l6 5q9 15 22 44q7 12 20 12q9 0 23.5 -7.5t27 -25
t12.5 -34.5q0 -11 -5 -19q-2 -3 -8 -15t-44.5 -88t-128 -268t-122.5 -272q-3 -11 -18 -11zM114 89q18 0 86.5 92t134.5 202v2l-1 5q-20 24 -39 24q-20 0 -48.5 -26t-59.5 -78t-56.5 -114.5t-25.5 -91.5q0 -15 9 -15z" />
    <glyph glyph-name="r" unicode="r" horiz-adv-x="318" 
d="M169 0q-15 0 -32 9t-28 30.5t-11 45.5q0 17 7 42.5t24 60t61.5 107t44.5 91.5q0 11 -14 18.5t-37 7.5q-5 0 -8 -6q-67 -121 -90 -158q-2 -5 -20 -5q-9 0 -17 2.5t-8 5.5l1 2q47 79 95 175l1 4l-1 3q-5 12 -5 25q0 43 29.5 72.5t58.5 29.5q12 0 19.5 -7.5t7.5 -20.5
q0 -28 -24 -68l-2 -3l4 -4q116 -38 116 -89q0 -21 -16 -46q-2 -4 -7.5 -13t-44 -70t-55.5 -96t-17 -49q0 -11 10 -11q18 0 46 29.5t54.5 68t44.5 67t36.5 58.5t21.5 35q2 3 5 3q6 0 16 -8.5t10 -13.5l-1 -7q-1 -2 -23.5 -44t-59.5 -98t-67 -91t-62.5 -59.5t-62.5 -24.5z" />
    <glyph glyph-name="s" unicode="s" horiz-adv-x="285" 
d="M105 -9q-30 0 -55.5 16t-45.5 55t-20 91q0 34 11.5 59.5t31.5 26.5q5 0 6 4l65 108l59 91q37 51 60 67t43 16q26 0 47.5 -18t21.5 -36q0 -4 -2.5 -9.5t-5.5 -7.5q-12 -9 -22 -29t-18 -56.5t-21 -185.5q-6 -62 -26.5 -104t-53.5 -65t-75 -23zM93 62q12 0 27 15t29.5 65.5
t28 143t18.5 115.5l1 5l-2 3l-5 -2q-6 -6 -19 -23t-54 -85q-59 -99 -78 -128l-2 -7q1 -39 16.5 -70.5t39.5 -31.5z" />
    <glyph glyph-name="t" unicode="t" horiz-adv-x="239" 
d="M95 0q-32 0 -52.5 26t-20.5 69q0 23 10 63l1 3l-3 2l-2 -1q-10 -3 -24 -3q-6 0 -12 2t-6 5l1 3q22 31 67.5 106t78.5 139l1 3l-5 4q-13 4 -23 16t-10 22q0 11 11 14q14 3 61 5q5 0 6 4q50 96 84 152q8 12 23 12q20 0 41.5 -21t21.5 -39q0 -8 -5 -13q-12 -12 -57 -89
l-1 -3q0 -4 5 -4l50 -3q16 -3 16 -14q0 -12 -17.5 -25.5t-41.5 -17.5l-45 -2q-4 0 -7 -4q-49 -90 -89 -182.5t-40 -124.5q0 -7 3.5 -13t11.5 -6q27 0 82 68.5t126 189.5l4 2q8 0 17.5 -8t9.5 -14l-1 -4q-37 -73 -88 -151.5t-98.5 -123t-83.5 -44.5z" />
    <glyph glyph-name="u" unicode="u" horiz-adv-x="404" 
d="M70 0q-20 0 -38 14t-25.5 35.5t-7.5 40.5q0 42 25 110t65 147t72 123q8 9 20 9q10 0 25.5 -7t30 -22t14.5 -28q0 -9 -6 -17q-2 -2 -10 -13.5t-35 -59.5t-64 -128t-37 -109q0 -10 6 -10q22 0 86.5 81t131.5 209q41 84 53 101q6 9 17 9q20 0 44 -22.5t24 -40.5q0 -9 -6 -17
q-9 -11 -29 -45.5t-50 -95t-49 -104.5q-3 -8 -11 -32t-8 -36q0 -7 7 -7q6 0 17.5 10.5t31 36.5t43 62t40.5 64t33.5 56t17.5 29l5 2q8 0 17.5 -8t9.5 -14l-1 -4q-74 -138 -119.5 -201.5t-78.5 -90.5t-56 -27q-14 0 -28.5 9t-23.5 30.5t-9 45.5q0 22 5 42v2l-2 3l-3 -3
q-84 -129 -144 -129z" />
    <glyph glyph-name="v" unicode="v" horiz-adv-x="361" 
d="M110 0q-18 0 -38 14t-32.5 38t-12.5 59q0 72 44 188.5t85 164.5q12 13 30 13q22 0 44.5 -16.5t22.5 -29.5q0 -5 -3 -8q-17 -16 -45.5 -68.5t-59 -135t-30.5 -118.5q0 -18 10 -18q18 0 47.5 33t72 106.5t72 146t30.5 99.5q4 18 20 18q18 0 38.5 -21.5t20.5 -43.5
q0 -31 -33 -100.5t-83.5 -143t-104.5 -125.5t-95 -52z" />
    <glyph glyph-name="w" unicode="w" horiz-adv-x="529" 
d="M89 0q-9 0 -21 4.5t-23 17t-19 35.5t-7 58q2 71 51.5 184.5t93.5 164.5q11 12 30 12q10 0 25 -5.5t28 -17.5t13 -22q0 -5 -4 -8q-22 -22 -58.5 -88.5t-63 -136t-26.5 -96.5q0 -17 9 -17q12 0 37 32t64.5 105t71.5 144l43 98q4 15 22 15q10 0 28 -9.5t32.5 -27.5t8.5 -28
q-39 -64 -84 -169t-45 -143q0 -17 10 -17q21 0 70.5 77t93.5 174.5t48 131.5q1 9 5.5 13.5t11.5 4.5q17 0 38 -21.5t21 -44.5q0 -22 -22 -77t-73 -140.5t-108.5 -144t-98.5 -58.5q-18 0 -33 11t-24 33.5t-9 59.5v15q0 5 -4 7l-4 -3q-21 -39 -45 -69t-45.5 -42t-37.5 -12z
" />
    <glyph glyph-name="x" unicode="x" horiz-adv-x="375" 
d="M9 -46q-12 0 -25.5 11t-13.5 23q0 5 5 12l151 168q3 3 2 8q-8 64 -8 116q0 3 -3 5l-4 -3l-27 -46q-2 -5 -20 -5q-10 0 -18.5 2.5t-5.5 7.5q47 75 95 178q4 19 26.5 33t43.5 14q12 0 20 -6.5t8 -18.5l-1 -10q-3 -14 -10 -59t-6 -103q0 -3 3 -5l4 2q113 133 150 172.5
t50 39.5q11 0 24.5 -13.5t13.5 -26.5q0 -6 -4 -9q-89 -84 -139 -132.5t-92 -95.5l-2 -6v-3q4 -46 18 -82t31 -36q2 0 7 1t19 11.5t38 42t46.5 66t37 58.5t29 49.5t16.5 28.5t5 3q5 0 14 -10.5t9 -17.5l-1 -7q-1 -2 -3 -5t-36 -68t-73.5 -121.5t-74.5 -86.5t-66 -30
q-24 0 -44.5 17.5t-33 43.5t-19.5 48l-4 3l-4 -2q-44 -53 -109 -145q-7 -11 -19 -11z" />
    <glyph glyph-name="y" unicode="y" horiz-adv-x="390" 
d="M43 -209q-26 0 -57 10.5t-53.5 33.5t-22.5 42q0 10 8 20.5t17 10.5q14 0 23 -23q20 -29 54 -29q49 0 100.5 62t111.5 200l2 10l-1 3q-6 -4 -10 -10q-26 -37 -54.5 -66.5t-52.5 -42t-41 -12.5q-28 0 -48 26t-20 67t24.5 108t64 145.5t71.5 123.5q8 9 20 9q10 0 25.5 -7
t30 -22t14.5 -28q0 -9 -6 -17q-2 -2 -9.5 -13.5t-34.5 -58.5t-63 -124t-36 -104q0 -12 7 -12q16 0 55 39t84 104t89 153q22 43 41 90q4 10 18 10q21 0 45.5 -20t24.5 -42q0 -9 -4 -17q-50 -94 -114.5 -244t-72.5 -167q-44 -99 -103 -153.5t-127 -54.5z" />
    <glyph glyph-name="z" unicode="z" horiz-adv-x="375" 
d="M93 0q-22 0 -40 23t-18 51q0 22 13 39q19 24 71.5 82t106.5 111.5t92 87.5l3 4q-1 4 -4 4h-2q-101 -29 -155 -32q-4 0 -6 -4l-68 -118q-2 -5 -20 -5q-10 0 -18.5 2.5t-5.5 7.5q38 60 78 142l1 6v3q-4 18 -4 24q0 20 7 33t21 13q5 0 13 -9.5t20.5 -14t29.5 -4.5q22 0 53 6
t73 18t47 12q18 0 34.5 -15.5t23 -33.5t6.5 -30q0 -11 -4.5 -20.5t-12.5 -13.5q-193 -177 -279 -271l-2 -4q2 -4 5 -4l4 1q49 17 82 17q34 0 54.5 -17.5t26.5 -37t6 -31.5q0 -19 -14 -19q-11 0 -24 10q-18 13 -57 13q-31 0 -70 -7.5t-50 -13.5q-8 -5 -17 -5z" />
    <glyph glyph-name="braceleft" unicode="{" horiz-adv-x="315" 
d="M184 -11q-26 0 -52.5 11.5t-38.5 29.5t-12 34q0 10 5 28.5t40 94.5q4 9 29.5 61.5t38 81.5t12.5 36t-16.5 22.5t-16.5 26.5q0 5 4 10t12 6q31 2 47 13.5t30 43.5q57 129 97 214q30 63 86 63q14 0 35.5 -4.5t39 -16t17.5 -25.5q0 -3 -3 -9t-14 -6l-30 1q-20 0 -33 -24
q-7 -12 -53 -113t-53 -116q-4 -7 -10.5 -17t-18 -19.5t-46.5 -24.5q-13 -5 -13 -9q0 -6 11 -25t11 -32q0 -12 -12.5 -46t-57.5 -124.5t-45 -99.5q0 -10 24.5 -25t24.5 -23q0 -7 -11 -12.5t-28 -5.5z" />
    <glyph glyph-name="bar" unicode="|" horiz-adv-x="291" 
d="M93 -86q-6 0 -17.5 9t-22.5 31t-11 47q0 17 7 34q6 17 22 56t88 204q3 8 13 30.5t82 193t99 224.5q4 9 13 9q7 0 14.5 -11t13 -33.5t5.5 -39.5q0 -18 -7 -43q-5 -15 -21 -55t-79 -191.5t-67 -161.5l-124 -298q-2 -5 -8 -5z" />
    <glyph glyph-name="braceright" unicode="}" horiz-adv-x="352" 
d="M114 -15q-21 0 -47.5 7.5t-39 18.5t-12.5 21q0 3 3 9t14 6l32 -1q19 0 32 24q7 12 54 116.5t55 120.5q20 40 68 58q20 8 20 12q0 5 -10 21q-12 20 -12 34t13 49t59 129t46 103q0 11 -26.5 21t-25.5 18q4 22 41 22q25 0 51.5 -9.5t39.5 -25.5t13 -34q0 -10 -6 -32.5
t-42 -100.5q-4 -9 -29.5 -61.5t-38 -81.5t-12.5 -36t16.5 -22.5t16.5 -25.5q0 -5 -4 -10.5t-12 -6.5q-31 -2 -47 -13.5t-30 -43.5q-56 -129 -97 -214q-14 -30 -33 -51t-50 -21z" />
    <glyph glyph-name="exclamdown" unicode="&#xa1;" horiz-adv-x="307" 
d="M274 366q-22 0 -35 13t-13 34q0 31 21.5 54.5t47.5 23.5q21 0 35.5 -18t14.5 -41q0 -30 -22.5 -48t-48.5 -18zM25 -247q-10 0 -25.5 7.5t-30 25t-14.5 33.5l1 10q191 376 240 457q11 17 22 17q9 0 15 -10t6 -25q0 -12 -5 -29q-10 -27 -93 -233t-94 -238q-4 -15 -22 -15z
" />
    <glyph glyph-name="cent" unicode="&#xa2;" horiz-adv-x="361" 
d="M168 60q-7 0 -16 12.5t-9 25.5t24 70v3l-3 5q-23 13 -36 40t-13 62q0 46 18.5 97t48 94.5t65 70t66.5 26.5h2q6 0 7 4q35 81 45 100q4 7 9 7q8 0 14.5 -14t6.5 -27q0 -9 -2 -13q-3 -15 -34 -86v-4q0 -2 1.5 -5t3.5 -3l3 2l7 9q6 9 17 9q14 0 28 -15t14 -27q0 -5 -3 -8
q-21 -24 -46.5 -63t-42.5 -73q-2 -3 -5.5 -5t-5.5 -2q-12 0 -18 13t-6 27q0 32 41 102l1 3l-2 2q-16 0 -38 -15.5t-45 -49t-41.5 -77.5t-18.5 -80q0 -46 43 -46q35 0 78 38q4 4 9 4q6 0 10 -6.5t4 -15.5q0 -21 -20 -44q-17 -19 -48 -31.5t-60 -13.5q-4 0 -7 -4
q-16 -43 -37 -92q-3 -6 -9 -6z" />
    <glyph glyph-name="sterling" unicode="&#xa3;" horiz-adv-x="448" 
d="M326 72q-10 0 -10 9q-3 18 -48 42t-90 37h-2l-6 -2q-33 -30 -67 -30q-28 0 -46.5 13.5t-18.5 33.5q0 21 22.5 31.5t60.5 10.5l15 -1q3 0 6 4q17 30 31 63v3q-2 3 -5 3l-32 -1q-10 0 -10 12q0 6 4.5 17.5t15 22t21.5 10.5l29 -1q4 0 6 5q55 137 85 185t59.5 72t62.5 24
q15 0 30 -7.5t29 -32.5l3 -2l4 2q18 42 33 42q16 0 33 -18.5t17 -34.5q0 -6 -3 -9q-63 -88 -92 -179q-1 -3 -4.5 -5.5t-6.5 -2.5q-12 0 -25 15.5t-13 35.5q0 35 39 119v3q0 3 -6 4q-26 0 -48.5 -17t-43.5 -51.5t-67 -141.5v-2q0 -4 5 -4l95 3q9 0 9 -11q0 -15 -15.5 -33
t-35.5 -18l-81 2q-6 0 -7 -4q-7 -15 -20 -38t-21 -35l-1 -3l4 -3q78 -13 116 -31.5t38 -38.5q0 -8 -6 -22.5t-19 -29.5t-23 -15z" />
    <glyph glyph-name="section" unicode="&#xa7;" horiz-adv-x="427" 
d="M173 0q-67 0 -98.5 26t-31.5 63q0 16 8 31.5t23.5 24.5t25.5 9q2 0 5.5 -1.5t3.5 -5.5t-8 -12.5t-8 -18.5q0 -19 22.5 -30t55.5 -11q47 0 86.5 20.5t39.5 49.5q0 22 -43.5 49t-60.5 38.5t-28.5 24.5t-19.5 28t-8 36q0 33 22 60.5t55 43.5l4 4l-1 4q-15 23 -15 60
q0 43 22 87t58.5 79t80.5 55.5t85 20.5q25 0 46 -11.5t31 -38.5l3 -3l2 2l10 16q11 16 19 16q14 0 30.5 -18.5t16.5 -33.5q0 -7 -3 -10q-18 -18 -52.5 -77t-57.5 -113q-4 -9 -12 -9q-11 0 -22.5 13.5t-11.5 29.5q0 18 15.5 59t44.5 92l1 3q0 5 -13 9t-27 4
q-27 0 -58.5 -15.5t-61.5 -42t-48.5 -57t-18.5 -54.5q0 -18 11.5 -34.5t50 -36.5t52 -28.5t23 -18.5t15 -21.5t5.5 -27.5q0 -33 -23 -60.5t-61 -43.5l-3 -4l1 -3q25 -30 25 -69t-24.5 -72t-71 -55t-108.5 -22zM297 260l4 1q57 20 57 54q0 27 -44.5 48t-55.5 28l-3 2l-4 -2
q-35 -25 -35 -55q0 -18 13 -32.5t63 -41.5z" />
    <glyph glyph-name="copyright" unicode="&#xa9;" horiz-adv-x="736" 
d="M340 -22q-51 0 -96.5 18.5t-78.5 53.5t-51.5 84t-18.5 107q0 63 22 132.5t56 122.5t64 85q40 42 88.5 72.5t94 42t80.5 11.5q47 0 92.5 -16t81 -47.5t56.5 -79.5t21 -109q0 -78 -31.5 -163t-84.5 -154q-57 -72 -134.5 -116t-160.5 -44zM330 55q53 0 103.5 23.5t86 58
t56.5 65.5q43 61 68 135.5t25 142.5q0 76 -35 118t-108 42q-72 0 -138.5 -40.5t-115.5 -106.5q-43 -59 -68.5 -130.5t-25.5 -137.5q0 -84 41 -127t111 -43zM373 154q-45 0 -71.5 30.5t-26.5 80.5q0 54 29.5 121.5t75.5 110t83 42.5q30 0 47 -38l3 -3l4 3l6 9q5 8 16 8
q14 0 26.5 -14t12.5 -26q0 -4 -3 -7q-23 -24 -52 -75t-32 -55q-4 -6 -11 -6t-14.5 9t-7.5 25v4q0 9 4.5 23.5t18 41t16.5 32.5l1 3l-2 2q-15 0 -36 -15t-44.5 -49.5t-39 -76.5t-15.5 -70q0 -45 40 -45q19 0 40 8.5t34 27.5q3 4 9 4q5 0 9 -6t4 -15q0 -8 -5.5 -19.5
t-14.5 -21.5q-16 -19 -46 -31t-58 -12z" />
    <glyph glyph-name="guillemotleft" unicode="&#xab;" horiz-adv-x="555" 
d="M270 136q-16 0 -29 4t-18 10q-22 26 -63 95q-9 18 -9 26q0 3 2 7.5t12 14.5q29 29 82 67.5t95 61.5q10 5 20 5q14 0 27 -9t13 -20q0 -6 -9 -13q-4 -3 -61 -45.5t-78 -60.5q-8 -6 -8 -9l3 -8l43 -98q4 -10 3 -15q0 -6 -8 -9.5t-17 -3.5zM441 136q-16 0 -29 4t-18 10
q-22 26 -63 95q-9 15 -9 26q0 4 2 8t6 8.5t5 5.5q21 21 71.5 59t106.5 70q10 5 19 5q14 0 27.5 -9.5t13.5 -19.5q0 -6 -9 -13q-4 -3 -61 -45.5t-78 -60.5q-8 -6 -8 -10l2 -7l44 -98q3 -7 3 -15q0 -6 -8 -9.5t-17 -3.5z" />
    <glyph glyph-name="registered" unicode="&#xae;" horiz-adv-x="482" 
d="M335 325q-25 0 -50.5 7.5t-49 28t-34 51.5t-10.5 59q0 47 20 97t54 90q32 37 72.5 59.5t82.5 22.5q38 0 74 -16.5t55 -50t19 -74.5q0 -45 -18 -92.5t-48 -85.5q-35 -43 -79 -69.5t-88 -26.5zM323 368q22 0 50 9.5t57.5 35.5t50.5 61q17 29 28 65t11 66q0 31 -11.5 55.5
t-31 34t-38.5 9.5q-43 0 -81 -24.5t-68 -65.5q-25 -35 -39.5 -76t-14.5 -76q0 -31 12 -54t33 -31.5t42 -8.5zM299 422q-7 0 -17.5 7.5t-10.5 14.5l1 4l85 176q1 4 -2 8q-2 1 -4 4t-2 5q0 4 4.5 8t12.5 6q5 0 6 4q4 6 8 6q8 0 16 -5q3 -3 7 -3q26 -2 48.5 -20.5t22.5 -42.5
q0 -16 -10.5 -36t-34.5 -36t-48 -20q-4 -1 -5 -5l1 -2q4 -13 16.5 -30t22.5 -17q4 0 2.5 -4.5t-12 -12t-19.5 -7.5q-15 0 -28 25t-16 51l-2 2l-3 -2q-4 -8 -15 -31t-14 -31t-3 -11q0 -2 -2.5 -3.5t-4.5 -1.5zM357 525q31 2 56 26.5t25 48.5q0 13 -8 21.5t-24 9.5q-5 0 -6 -4
l-48 -96v-2q-1 -2 3 -4h2z" />
    <glyph glyph-name="degree" unicode="&#xb0;" horiz-adv-x="327" 
d="M330 473q-21 0 -47.5 10t-46 37t-19.5 63q0 37 21.5 77.5t52.5 58t61 17.5q44 0 78.5 -29.5t34.5 -81.5q0 -25 -12.5 -60.5t-45 -63.5t-77.5 -28zM326 537q13 0 29.5 9.5t28.5 33t12 48.5q0 21 -9.5 34t-27.5 13q-15 0 -32 -10.5t-29 -34t-12 -46.5q0 -22 11 -34.5
t29 -12.5z" />
    <glyph glyph-name="paragraph" unicode="&#xb6;" horiz-adv-x="536" 
d="M227 -55q-18 0 -36 15.5t-18 36.5l2 17q21 52 95 208v3l-3 4q-5 1 -17.5 6.5t-28.5 17.5q-24 18 -42 53t-18 64q0 31 18 68t63.5 77.5t103.5 63t103 23.5q5 2 7 5l23 46q7 10 17 10q17 0 36.5 -17.5t19.5 -34.5q0 -10 -5 -16q-1 -1 -4.5 -7.5t-32.5 -62t-131.5 -275
t-131.5 -294.5q-3 -11 -20 -11zM329 -55q-12 0 -24 14t-12 33l4 22q23 61 139.5 303.5t164.5 335.5q7 10 14 10q13 0 25 -15t12 -32q0 -11 -7 -21q-1 -1 -4.5 -7.5t-32.5 -62t-131.5 -275t-131.5 -294.5q-3 -11 -16 -11z" />
    <glyph glyph-name="periodcentered" unicode="&#xb7;" horiz-adv-x="359" 
d="M235 236q-21 0 -35.5 18t-14.5 41q0 30 22.5 48t48.5 18q22 0 35 -13t13 -33q0 -31 -21.5 -55t-47.5 -24z" />
    <glyph glyph-name="guillemotright" unicode="&#xbb;" horiz-adv-x="536" 
d="M146 136q-14 0 -27.5 9.5t-13.5 19.5q0 8 10 13l139 107q7 5 7 10l-2 7l-44 98l-3 15q0 6 7.5 9t17.5 3q35 0 48 -13q7 -9 26.5 -37.5t35.5 -58.5q9 -13 9 -25q0 -4 -2 -8t-6 -8.5t-5 -5.5q-21 -21 -71.5 -59t-106.5 -70q-9 -6 -19 -6zM316 136q-14 0 -27 9.5t-13 19.5
q0 8 9 13q1 1 4.5 3.5t57.5 43t78 60.5q7 5 7 9l-3 8l-43 98q0 1 -2 6t-1 9q0 6 7.5 9t17.5 3q36 0 47 -13q8 -9 27 -37t36 -59q9 -16 9 -25q0 -4 -2 -8t-6 -8.5t-5 -5.5q-30 -29 -83.5 -67.5t-94.5 -61.5q-9 -6 -20 -6z" />
    <glyph glyph-name="questiondown" unicode="&#xbf;" horiz-adv-x="394" 
d="M387 365q-22 0 -34.5 13t-12.5 34q0 14 7.5 32.5t25 32t35.5 13.5q22 0 36.5 -18t14.5 -41q0 -30 -22.5 -48t-49.5 -18zM104 -247q-46 0 -84 19.5t-56.5 55.5t-18.5 74q0 55 37.5 107t152.5 125q92 59 120 85.5t38 52.5q4 13 16 13q17 0 35 -20.5t18 -46.5
q0 -16 -10.5 -34.5t-32 -37.5t-42.5 -34t-55.5 -38.5t-44.5 -30.5q-84 -59 -113 -100.5t-29 -76.5q0 -21 11 -36t35 -15q23 0 57 16.5t70.5 55t52.5 78.5q4 11 8.5 15.5t12.5 4.5q17 0 35 -20t18 -41q0 -22 -18 -51.5t-50 -57t-74.5 -45t-88.5 -17.5z" />
    <glyph glyph-name="Agrave" unicode="&#xc0;" horiz-adv-x="578" 
d="M683 745q-16 0 -47 17.5t-65.5 50t-34.5 50.5q0 8 8 18.5t24.5 20t25.5 9.5q8 0 12 -8q14 -25 47 -60t65 -57q8 -4 8 -13q0 -10 -14.5 -19t-28.5 -9zM-17 -18q-17 0 -35.5 9.5t-30.5 30t-12 37.5q0 18 11 18q3 0 12.5 -5.5t19.5 -5.5q25 0 67.5 28t88.5 77l2 4q-2 3 -5 3
l-18 -1q-14 0 -29 19.5t-15 33.5q0 9 11 9l31 -1l91 3q3 0 7 4q97 101 201.5 233t164.5 228q10 19 30 19q11 0 27 -8.5t30 -28t14 -38.5q0 -12 -4 -20q-21 -51 -54 -149.5t-64 -225.5l-1 -2q0 -3 3 -6q11 -9 20 -21t9 -18q-1 -5 -6 -6l-34 -3l-5 -4q-27 -106 -27 -148
q0 -12 2.5 -19.5t2.5 -9.5q0 -8 -8.5 -12.5t-20.5 -4.5q-18 0 -36.5 10t-27 27.5t-8.5 34.5q0 40 20 114q1 3 -0.5 4.5t-3.5 1.5l-63 -3l-106 -6l-7 -3q-76 -92 -139.5 -145.5t-104.5 -53.5zM288 246l132 11q5 2 5 6q21 71 57 180t41 124v2q0 3 -3 4q-4 0 -6 -6
q-125 -184 -227 -313l-2 -5z" />
    <glyph glyph-name="Aacute" unicode="&#xc1;" horiz-adv-x="578" 
d="M565 765q-15 0 -28.5 12.5t-13.5 23.5q0 4 3.5 8t8.5 6q23 9 68.5 37.5t69.5 52.5q4 4 12 4q12 0 30 -20.5t18 -38.5q0 -21 -65 -53t-103 -32zM-17 -18q-17 0 -35.5 9.5t-30.5 30t-12 37.5q0 18 11 18q3 0 12.5 -5.5t19.5 -5.5q25 0 67.5 28t88.5 77l2 4q-2 3 -5 3
l-18 -1q-14 0 -29 19.5t-15 33.5q0 9 11 9l31 -1l91 3q3 0 7 4q97 101 201.5 233t164.5 228q10 19 30 19q11 0 27 -8.5t30 -28t14 -38.5q0 -12 -4 -20q-21 -51 -54 -149.5t-64 -225.5l-1 -2q0 -3 3 -6q11 -9 20 -21t9 -18q-1 -5 -6 -6l-34 -3l-5 -4q-27 -106 -27 -148
q0 -12 2.5 -19.5t2.5 -9.5q0 -8 -8.5 -12.5t-20.5 -4.5q-18 0 -36.5 10t-27 27.5t-8.5 34.5q0 40 20 114q1 3 -0.5 4.5t-3.5 1.5l-63 -3l-106 -6l-7 -3q-76 -92 -139.5 -145.5t-104.5 -53.5zM288 246l132 11q5 2 5 6q21 71 57 180t41 124v2q0 3 -3 4q-4 0 -6 -6
q-125 -184 -227 -313l-2 -5z" />
    <glyph glyph-name="Acircumflex" unicode="&#xc2;" horiz-adv-x="578" 
d="M703 744q-12 0 -41.5 34t-41.5 34q-10 0 -49.5 -23.5t-47.5 -23.5l-2 -1q-7 0 -11.5 7t-4.5 13q0 7 21 29.5t61 52t58 29.5q12 0 28 -17.5t29 -52.5t13 -59q0 -22 -12 -22zM-17 -18q-17 0 -35.5 9.5t-30.5 30t-12 37.5q0 18 11 18q3 0 12.5 -5.5t19.5 -5.5q25 0 67.5 28
t88.5 77l2 4q-2 3 -5 3l-18 -1q-14 0 -29 19.5t-15 33.5q0 9 11 9l31 -1l91 3q3 0 7 4q97 101 201.5 233t164.5 228q10 19 30 19q11 0 27 -8.5t30 -28t14 -38.5q0 -12 -4 -20q-21 -51 -54 -149.5t-64 -225.5l-1 -2q0 -3 3 -6q11 -9 20 -21t9 -18q-1 -5 -6 -6l-34 -3l-5 -4
q-27 -106 -27 -148q0 -12 2.5 -19.5t2.5 -9.5q0 -8 -8.5 -12.5t-20.5 -4.5q-18 0 -36.5 10t-27 27.5t-8.5 34.5q0 40 20 114q1 3 -0.5 4.5t-3.5 1.5l-63 -3l-106 -6l-7 -3q-76 -92 -139.5 -145.5t-104.5 -53.5zM288 246l132 11q5 2 5 6q21 71 57 180t41 124v2q0 3 -3 4
q-4 0 -6 -6q-125 -184 -227 -313l-2 -5z" />
    <glyph glyph-name="Atilde" unicode="&#xc3;" horiz-adv-x="578" 
d="M665 756q-22 0 -49 21t-36.5 24t-13.5 3q-8 0 -18 -4.5t-19.5 -14.5t-10.5 -11q-6 -8 -11 -8t-10 6t-7.5 18.5t-2.5 17.5q0 14 9 32t30.5 31.5t42.5 13.5q24 0 52.5 -20.5t37 -23.5t12.5 -3q21 0 45 29q7 8 13 8q12 0 19 -13t7 -27q0 -15 -10.5 -33t-34 -32t-45.5 -14z
M-17 -18q-17 0 -35.5 9.5t-30.5 30t-12 37.5q0 18 11 18q3 0 12.5 -5.5t19.5 -5.5q25 0 67.5 28t88.5 77l2 4q-2 3 -5 3l-18 -1q-14 0 -29 19.5t-15 33.5q0 9 11 9l31 -1l91 3q3 0 7 4q97 101 201.5 233t164.5 228q10 19 30 19q11 0 27 -8.5t30 -28t14 -38.5q0 -12 -4 -20
q-21 -51 -54 -149.5t-64 -225.5l-1 -2q0 -3 3 -6q11 -9 20 -21t9 -18q-1 -5 -6 -6l-34 -3l-5 -4q-27 -106 -27 -148q0 -12 2.5 -19.5t2.5 -9.5q0 -8 -8.5 -12.5t-20.5 -4.5q-18 0 -36.5 10t-27 27.5t-8.5 34.5q0 40 20 114q1 3 -0.5 4.5t-3.5 1.5l-63 -3l-106 -6l-7 -3
q-76 -92 -139.5 -145.5t-104.5 -53.5zM288 246l132 11q5 2 5 6q21 71 57 180t41 124v2q0 3 -3 4q-4 0 -6 -6q-125 -184 -227 -313l-2 -5z" />
    <glyph glyph-name="Adieresis" unicode="&#xc4;" horiz-adv-x="578" 
d="M532 768q-16 0 -29 15.5t-13 34.5q0 13 6.5 31t24 33t37.5 15q41 0 41 -39q0 -12 -7.5 -32.5t-25 -39t-34.5 -18.5zM670 761q-16 0 -28.5 15.5t-12.5 35.5q0 29 20.5 53.5t48.5 24.5q40 0 40 -38q0 -20 -12.5 -44.5t-28.5 -35.5t-27 -11zM-17 -18q-17 0 -35.5 9.5
t-30.5 30t-12 37.5q0 18 11 18q3 0 12.5 -5.5t19.5 -5.5q25 0 67.5 28t88.5 77l2 4q-2 3 -5 3l-18 -1q-14 0 -29 19.5t-15 33.5q0 9 11 9l31 -1l91 3q3 0 7 4q97 101 201.5 233t164.5 228q10 19 30 19q11 0 27 -8.5t30 -28t14 -38.5q0 -12 -4 -20q-21 -51 -54 -149.5
t-64 -225.5l-1 -2q0 -3 3 -6q11 -9 20 -21t9 -18q-1 -5 -6 -6l-34 -3l-5 -4q-27 -106 -27 -148q0 -12 2.5 -19.5t2.5 -9.5q0 -8 -8.5 -12.5t-20.5 -4.5q-18 0 -36.5 10t-27 27.5t-8.5 34.5q0 40 20 114q1 3 -0.5 4.5t-3.5 1.5l-63 -3l-106 -6l-7 -3q-76 -92 -139.5 -145.5
t-104.5 -53.5zM288 246l132 11q5 2 5 6q21 71 57 180t41 124v2q0 3 -3 4q-4 0 -6 -6q-125 -184 -227 -313l-2 -5z" />
    <glyph glyph-name="Aring" unicode="&#xc5;" horiz-adv-x="578" 
d="M612 757q-18 0 -36.5 8.5t-29.5 27t-11 38.5q0 25 16 53.5t37.5 41.5t40.5 13q15 0 33.5 -9t32.5 -29.5t14 -41.5t-15 -48t-37 -40.5t-45 -13.5zM605 804q20 0 37 22t17 42q0 10 -5.5 16t-15.5 6q-21 0 -37 -21.5t-16 -42.5q0 -9 5.5 -15.5t14.5 -6.5zM-17 -18
q-17 0 -35.5 9.5t-30.5 30t-12 37.5q0 18 11 18q3 0 12.5 -5.5t19.5 -5.5q25 0 67.5 28t88.5 77l2 4q-2 3 -5 3l-18 -1q-14 0 -29 19.5t-15 33.5q0 9 11 9l31 -1l91 3q3 0 7 4q97 101 201.5 233t164.5 228q10 19 30 19q11 0 27 -8.5t30 -28t14 -38.5q0 -12 -4 -20
q-21 -51 -54 -149.5t-64 -225.5l-1 -2q0 -3 3 -6q11 -9 20 -21t9 -18q-1 -5 -6 -6l-34 -3l-5 -4q-27 -106 -27 -148q0 -12 2.5 -19.5t2.5 -9.5q0 -8 -8.5 -12.5t-20.5 -4.5q-18 0 -36.5 10t-27 27.5t-8.5 34.5q0 40 20 114q1 3 -0.5 4.5t-3.5 1.5l-63 -3l-106 -6l-7 -3
q-76 -92 -139.5 -145.5t-104.5 -53.5zM288 246l132 11q5 2 5 6q21 71 57 180t41 124v2q0 3 -3 4q-4 0 -6 -6q-125 -184 -227 -313l-2 -5z" />
    <glyph glyph-name="AE" unicode="&#xc6;" horiz-adv-x="845" 
d="M-17 -18q-17 0 -35.5 9.5t-30.5 30t-12 37.5q0 18 11 18q3 0 12.5 -5.5t19.5 -5.5q25 0 67.5 28t88.5 77l2 4q-2 3 -5 3l-18 -1q-14 0 -29 19.5t-15 33.5q0 9 11 9l31 -1l91 3q3 0 7 4q113 118 218.5 245t156.5 216q10 19 30 19q22 0 40.5 -21t21.5 -47l3 -4l3 2
q37 27 79.5 43.5t80.5 16.5q68 0 89 -50l3 -3l4 2q18 30 26 39q5 6 14 6q18 0 38 -19t20 -36q0 -10 -7 -17q-21 -25 -39 -54t-30.5 -54t-20 -43.5t-15.5 -38t-9 -21.5q-2 -8 -11 -8q-17 0 -27 17.5t-10 42.5q0 50 43 134v3q0 2 -7 5t-25 3q-41 0 -85.5 -16t-81.5 -42
t-59 -54.5t-22 -52.5q0 -26 30 -45t82 -19q30 0 56 5q17 2 27 -13.5t10 -35.5q0 -18 -8 -31t-22 -14q-72 -6 -127 -23.5t-89 -41.5t-50 -49.5t-16 -47.5q0 -17 10.5 -33.5t34.5 -27t64 -10.5q60 0 115 26t107 79.5t103 142.5l4 3q6 0 14 -10t8 -18l-1 -5q-46 -100 -106 -168
t-125.5 -99t-132.5 -31q-60 0 -103 23l-3 1l-4 -5l1 -11q0 -7 -8.5 -12t-18.5 -5q-25 0 -45 25.5t-20 62.5q0 42 20 116q1 3 -0.5 4.5t-3.5 1.5l-63 -3l-106 -6l-7 -3q-76 -92 -139.5 -145.5t-104.5 -53.5zM288 246l132 11q5 2 5 6q16 54 57 165t50 139v2q0 3 -3 4
q-2 0 -6 -6q-68 -100 -236 -313l-2 -5zM542 339l4 1q19 11 51 22l3 4l-1 4q-20 20 -31 45l-3 3l-3 -3l-22 -71q-1 -3 2 -5z" />
    <glyph glyph-name="Ccedilla" unicode="&#xc7;" horiz-adv-x="414" 
d="M370 421q0 23 18 76.5t57 131.5l1 3q0 6 -15 6q-27 0 -65 -22t-87 -79t-84 -125t-52.5 -127t-17.5 -107q0 -55 23 -82t64 -27q70 0 143 67t140 184l4 3q6 0 15 -10t9 -18l-1 -5q-21 -46 -54 -97t-75 -96t-91.5 -74.5t-98.5 -33.5q4 -17 4 -36q0 -42 -21.5 -70t-60.5 -28
q-16 0 -33 7.5t-27.5 23.5t-10.5 30q0 17 11 17l10 -3q14 -7 31 -7q22 0 37.5 18t19.5 49q-30 5 -61.5 26t-52.5 68t-21 108q0 60 21 130.5t56.5 137t83.5 127.5t101 99.5t95 38.5q49 0 82 -44l4 -2l4 3l23 41q8 10 18 10q20 0 41.5 -24t21.5 -44q0 -6 -4 -10
q-30 -38 -78 -128.5t-69 -155.5q-3 -7 -11 -7q-17 0 -32 16.5t-15 40.5z" />
    <glyph glyph-name="Egrave" unicode="&#xc8;" horiz-adv-x="443" 
d="M503 745q-16 0 -47 17.5t-65.5 50t-34.5 50.5q0 8 8 18.5t24.5 20t25.5 9.5q8 0 12 -8q14 -25 47 -60t65 -57q8 -4 8 -13q0 -10 -14.5 -19t-28.5 -9zM186 -8q-26 0 -60 7t-65 31.5t-45 60t-14 68.5q0 25 11 53.5t39 59t68.5 54.5t74.5 36l4 4l-2 3q-63 61 -63 122
q0 40 26 80.5t67.5 73t90 51.5t90.5 19q70 0 91 -50l3 -2l7 7l23 33q6 6 15 6q17 0 37 -19t20 -37q0 -9 -7 -16q-21 -25 -39 -54t-30 -54t-19.5 -43t-15 -36.5t-9.5 -23.5q-4 -8 -12 -8q-17 0 -27 17.5t-10 42.5q0 48 42 134l1 3l-4 4q-12 4 -27 4q-48 0 -106.5 -27
t-96 -67.5t-37.5 -70.5q0 -26 27.5 -45t76.5 -19q30 0 55 5q17 2 27 -13.5t10 -35.5q0 -18 -8 -31t-22 -14q-35 -3 -84 -12.5t-97 -33t-73 -55.5t-25 -61q0 -31 25.5 -51t80.5 -20q60 0 115 26t107 79.5t103 142.5l4 3q6 0 14 -10t8 -18l-1 -5q-46 -100 -106 -168
t-125.5 -99t-132.5 -31z" />
    <glyph glyph-name="Eacute" unicode="&#xc9;" horiz-adv-x="443" 
d="M385 765q-15 0 -28.5 12.5t-13.5 23.5q0 4 3.5 8t8.5 6q23 9 68.5 37.5t69.5 52.5q4 4 12 4q12 0 30 -20.5t18 -38.5q0 -21 -65 -53t-103 -32zM186 -8q-26 0 -60 7t-65 31.5t-45 60t-14 68.5q0 25 11 53.5t39 59t68.5 54.5t74.5 36l4 4l-2 3q-63 61 -63 122q0 40 26 80.5
t67.5 73t90 51.5t90.5 19q70 0 91 -50l3 -2l7 7l23 33q6 6 15 6q17 0 37 -19t20 -37q0 -9 -7 -16q-21 -25 -39 -54t-30 -54t-19.5 -43t-15 -36.5t-9.5 -23.5q-4 -8 -12 -8q-17 0 -27 17.5t-10 42.5q0 48 42 134l1 3l-4 4q-12 4 -27 4q-48 0 -106.5 -27t-96 -67.5
t-37.5 -70.5q0 -26 27.5 -45t76.5 -19q30 0 55 5q17 2 27 -13.5t10 -35.5q0 -18 -8 -31t-22 -14q-35 -3 -84 -12.5t-97 -33t-73 -55.5t-25 -61q0 -31 25.5 -51t80.5 -20q60 0 115 26t107 79.5t103 142.5l4 3q6 0 14 -10t8 -18l-1 -5q-46 -100 -106 -168t-125.5 -99
t-132.5 -31z" />
    <glyph glyph-name="Ecircumflex" unicode="&#xca;" horiz-adv-x="443" 
d="M523 744q-12 0 -41.5 34t-41.5 34q-10 0 -49.5 -23.5t-47.5 -23.5l-2 -1q-7 0 -11.5 7t-4.5 13q0 7 21 29.5t61 52t58 29.5q12 0 28 -17.5t29 -52.5t13 -59q0 -22 -12 -22zM186 -8q-26 0 -60 7t-65 31.5t-45 60t-14 68.5q0 25 11 53.5t39 59t68.5 54.5t74.5 36l4 4l-2 3
q-63 61 -63 122q0 40 26 80.5t67.5 73t90 51.5t90.5 19q70 0 91 -50l3 -2l7 7l23 33q6 6 15 6q17 0 37 -19t20 -37q0 -9 -7 -16q-21 -25 -39 -54t-30 -54t-19.5 -43t-15 -36.5t-9.5 -23.5q-4 -8 -12 -8q-17 0 -27 17.5t-10 42.5q0 48 42 134l1 3l-4 4q-12 4 -27 4
q-48 0 -106.5 -27t-96 -67.5t-37.5 -70.5q0 -26 27.5 -45t76.5 -19q30 0 55 5q17 2 27 -13.5t10 -35.5q0 -18 -8 -31t-22 -14q-35 -3 -84 -12.5t-97 -33t-73 -55.5t-25 -61q0 -31 25.5 -51t80.5 -20q60 0 115 26t107 79.5t103 142.5l4 3q6 0 14 -10t8 -18l-1 -5
q-46 -100 -106 -168t-125.5 -99t-132.5 -31z" />
    <glyph glyph-name="Edieresis" unicode="&#xcb;" horiz-adv-x="443" 
d="M352 768q-16 0 -29 15.5t-13 34.5q0 13 6.5 31t24 33t37.5 15q41 0 41 -39q0 -12 -7.5 -32.5t-25 -39t-34.5 -18.5zM490 761q-16 0 -28.5 15.5t-12.5 35.5q0 29 20.5 53.5t48.5 24.5q40 0 40 -38q0 -20 -12.5 -44.5t-28.5 -35.5t-27 -11zM186 -8q-26 0 -60 7t-65 31.5
t-45 60t-14 68.5q0 25 11 53.5t39 59t68.5 54.5t74.5 36l4 4l-2 3q-63 61 -63 122q0 40 26 80.5t67.5 73t90 51.5t90.5 19q70 0 91 -50l3 -2l7 7l23 33q6 6 15 6q17 0 37 -19t20 -37q0 -9 -7 -16q-21 -25 -39 -54t-30 -54t-19.5 -43t-15 -36.5t-9.5 -23.5q-4 -8 -12 -8
q-17 0 -27 17.5t-10 42.5q0 48 42 134l1 3l-4 4q-12 4 -27 4q-48 0 -106.5 -27t-96 -67.5t-37.5 -70.5q0 -26 27.5 -45t76.5 -19q30 0 55 5q17 2 27 -13.5t10 -35.5q0 -18 -8 -31t-22 -14q-35 -3 -84 -12.5t-97 -33t-73 -55.5t-25 -61q0 -31 25.5 -51t80.5 -20q60 0 115 26
t107 79.5t103 142.5l4 3q6 0 14 -10t8 -18l-1 -5q-46 -100 -106 -168t-125.5 -99t-132.5 -31z" />
    <glyph glyph-name="Igrave" unicode="&#xcc;" horiz-adv-x="385" 
d="M446 745q-16 0 -47 17.5t-65 50t-34 50.5q0 8 8 18.5t24 20t25 9.5q7 0 13 -8q14 -25 47 -60t65 -57q8 -5 8 -13q0 -10 -15 -19t-29 -9zM223 -25q-4 -9 -16 -9q-9 0 -25 7.5t-30.5 24.5t-14.5 35q0 12 5 19q11 20 52 101t64 125q133 253 133 333q0 47 -46 47
q-25 0 -62 -15.5t-83.5 -53.5t-74.5 -79.5t-28 -66.5q1 -14 16 -25t15 -17q0 -15 -18 -15q-19 0 -38.5 16t-33 48t-13.5 59q0 29 19 64.5t66.5 74t105 60t98.5 21.5q35 0 73.5 -17.5t66 -59t27.5 -86.5q0 -36 -21 -94t-92 -197q-8 -17 -45.5 -90.5t-63 -126t-36.5 -83.5z
" />
    <glyph glyph-name="Iacute" unicode="&#xcd;" horiz-adv-x="385" 
d="M329 765q-15 0 -29 12.5t-14 23.5q0 4 3.5 8t8.5 6q23 9 69 37.5t69 52.5q5 4 13 4q12 0 29.5 -20.5t17.5 -38.5q0 -21 -65 -53t-102 -32zM223 -25q-4 -9 -16 -9q-9 0 -25 7.5t-30.5 24.5t-14.5 35q0 12 5 19q11 20 52 101t64 125q133 253 133 333q0 47 -46 47
q-25 0 -62 -15.5t-83.5 -53.5t-74.5 -79.5t-28 -66.5q1 -14 16 -25t15 -17q0 -15 -18 -15q-19 0 -38.5 16t-33 48t-13.5 59q0 29 19 64.5t66.5 74t105 60t98.5 21.5q35 0 73.5 -17.5t66 -59t27.5 -86.5q0 -36 -21 -94t-92 -197q-8 -17 -45.5 -90.5t-63 -126t-36.5 -83.5z
" />
    <glyph glyph-name="Icircumflex" unicode="&#xce;" horiz-adv-x="385" 
d="M466 744q-11 0 -41 34t-41 34q-10 0 -50 -23.5t-48 -23.5l-1 -1q-7 0 -11.5 6.5t-4.5 13.5t20.5 29.5t60.5 52t58 29.5q24 0 47.5 -47t23.5 -82q0 -22 -13 -22zM223 -25q-4 -9 -16 -9q-9 0 -25 7.5t-30.5 24.5t-14.5 35q0 12 5 19q11 20 52 101t64 125q133 253 133 333
q0 47 -46 47q-25 0 -62 -15.5t-83.5 -53.5t-74.5 -79.5t-28 -66.5q1 -14 16 -25t15 -17q0 -15 -18 -15q-19 0 -38.5 16t-33 48t-13.5 59q0 29 19 64.5t66.5 74t105 60t98.5 21.5q35 0 73.5 -17.5t66 -59t27.5 -86.5q0 -36 -21 -94t-92 -197q-8 -17 -45.5 -90.5t-63 -126
t-36.5 -83.5z" />
    <glyph glyph-name="Idieresis" unicode="&#xcf;" horiz-adv-x="385" 
d="M295 768q-16 0 -28.5 15.5t-12.5 34.5q0 13 6.5 31t24 33t37.5 15q16 0 28.5 -8.5t12.5 -30.5q0 -12 -7.5 -32.5t-25.5 -39t-35 -18.5zM434 761q-16 0 -28.5 15.5t-12.5 35.5q0 29 20.5 53.5t48.5 24.5q40 0 40 -38q0 -13 -7.5 -33.5t-25.5 -39t-35 -18.5zM223 -25
q-4 -9 -16 -9q-9 0 -25 7.5t-30.5 24.5t-14.5 35q0 12 5 19q11 20 52 101t64 125q133 253 133 333q0 47 -46 47q-25 0 -62 -15.5t-83.5 -53.5t-74.5 -79.5t-28 -66.5q1 -14 16 -25t15 -17q0 -15 -18 -15q-19 0 -38.5 16t-33 48t-13.5 59q0 29 19 64.5t66.5 74t105 60
t98.5 21.5q35 0 73.5 -17.5t66 -59t27.5 -86.5q0 -36 -21 -94t-92 -197q-8 -17 -45.5 -90.5t-63 -126t-36.5 -83.5z" />
    <glyph glyph-name="Eth" unicode="&#xd0;" horiz-adv-x="576" 
d="M454 701q32 -8 63.5 -26t55.5 -48.5t38.5 -74t14.5 -99.5q0 -73 -31 -155.5t-83 -152t-117 -112t-129 -42.5q-89 0 -112 64l-4 3l-3 -3l-16 -41q-6 -15 -21 -15q-23 0 -45.5 20.5t-22.5 43.5q0 9 3 16q14 30 95 191q-12 6 -22 23t-10 29q0 5 3.5 9t8.5 4l54 2
q71 146 140 278l1 4l-3 2h-3q-37 -12 -76 -32t-74 -51.5t-52 -62t-17 -49.5q0 -15 15 -26t15 -16q0 -15 -18 -15q-19 0 -38 15.5t-32.5 47.5t-13.5 59q0 20 10.5 46t38 52.5t71.5 51.5t104 43t114 23q6 1 7 4l5 11q7 13 23 13q13 0 30 -9t26 -21zM228 83q27 0 64 13.5
t76.5 48t77.5 89t64 127t26 132.5q0 42 -13 72.5t-35.5 49t-44.5 18.5q-5 0 -7 -3q-58 -108 -147 -283q54 6 63 6q13 0 28 -21.5t15 -37.5q0 -13 -12 -13l-131 -9q-53 -104 -84 -172l-1 -4l3 -3q24 -10 58 -10z" />
    <glyph glyph-name="Ntilde" unicode="&#xd1;" horiz-adv-x="583" 
d="M662 756q-14 0 -26 6t-35.5 24t-37.5 18q-5 0 -10.5 -1.5t-11.5 -4.5t-11.5 -8t-9.5 -10t-5 -6q-8 -8 -11 -8q-7 0 -13.5 11.5t-6.5 30.5q0 14 9 32t30 31.5t42 13.5q24 0 52.5 -20.5t37 -23.5t12.5 -3q20 0 46 29q6 8 12 8q12 0 19.5 -13t7.5 -27q0 -15 -10.5 -33
t-34.5 -32t-45 -14zM28 -18q-26 0 -47 16.5t-29 36t-8 32.5t9 13q2 0 11.5 -5.5t20.5 -5.5q70 0 176.5 177.5t222.5 464.5q5 12 20 12q10 0 28 -8t35.5 -27.5t17.5 -40.5q0 -13 -3 -21q-4 -17 -17.5 -185.5t-19.5 -230.5v-2q0 -3 3 -4l5 5q66 141 137.5 307t76.5 191
q4 16 20 16q10 0 26 -8t31.5 -25t15.5 -31q0 -6 -5 -13q-16 -21 -72 -135t-131.5 -279t-93.5 -218q-9 -20 -30 -20q-20 0 -43.5 19.5t-33 43t-7.5 39.5l31 406l1 3l-3 3l-3 -3q-77 -183 -128 -285.5t-106.5 -170t-107.5 -67.5z" />
    <glyph glyph-name="Ograve" unicode="&#xd2;" horiz-adv-x="502" 
d="M542 745q-16 0 -47 17.5t-65.5 50t-34.5 50.5q0 8 8 18.5t24.5 20t25.5 9.5q8 0 12 -8q20 -33 55 -67.5t57 -49.5q8 -4 8 -13q0 -10 -14.5 -19t-28.5 -9zM202 -14q-43 0 -80 23.5t-59 68t-22 110.5q0 76 29 166.5t75.5 169t98.5 127.5t94 49q11 0 23 -5h3l4 1
q39 22 77 22q21 0 44 -10t45.5 -36.5t33 -64.5t10.5 -70q0 -50 -18.5 -118t-50.5 -138t-80 -138t-107.5 -112.5t-119.5 -44.5zM194 61q32 0 77 38.5t102.5 132t92.5 194.5t35 157q0 36 -14 52t-35 16q-29 0 -64 -28.5t-70 -76t-64 -106t-46 -114.5q-2 -11 -9 -11
q-5 0 -12.5 6.5t-12.5 17.5l-3 3l-5 -7q-13 -34 -22.5 -82t-9.5 -85q0 -34 8 -60t22.5 -36.5t29.5 -10.5z" />
    <glyph glyph-name="Oacute" unicode="&#xd3;" horiz-adv-x="502" 
d="M425 765q-15 0 -29 12.5t-14 23.5q0 4 3.5 8t8.5 6q23 9 68.5 37.5t69.5 52.5q4 4 13 4q12 0 29.5 -20.5t17.5 -38.5q0 -21 -65 -53t-102 -32zM202 -14q-43 0 -80 23.5t-59 68t-22 110.5q0 76 29 166.5t75.5 169t98.5 127.5t94 49q11 0 23 -5h3l4 1q39 22 77 22
q21 0 44 -10t45.5 -36.5t33 -64.5t10.5 -70q0 -50 -18.5 -118t-50.5 -138t-80 -138t-107.5 -112.5t-119.5 -44.5zM194 61q32 0 77 38.5t102.5 132t92.5 194.5t35 157q0 36 -14 52t-35 16q-29 0 -64 -28.5t-70 -76t-64 -106t-46 -114.5q-2 -11 -9 -11q-5 0 -12.5 6.5
t-12.5 17.5l-3 3l-5 -7q-13 -34 -22.5 -82t-9.5 -85q0 -34 8 -60t22.5 -36.5t29.5 -10.5z" />
    <glyph glyph-name="Ocircumflex" unicode="&#xd4;" horiz-adv-x="502" 
d="M562 744q-12 0 -41.5 34t-41.5 34q-10 0 -49.5 -23.5t-47.5 -23.5l-1 -1q-7 0 -11.5 6.5t-4.5 13.5t20.5 29.5t60.5 52t58 29.5q12 0 28 -17.5t29.5 -52.5t13.5 -59q0 -22 -13 -22zM202 -14q-43 0 -80 23.5t-59 68t-22 110.5q0 76 29 166.5t75.5 169t98.5 127.5t94 49
q11 0 23 -5h3l4 1q39 22 77 22q21 0 44 -10t45.5 -36.5t33 -64.5t10.5 -70q0 -50 -18.5 -118t-50.5 -138t-80 -138t-107.5 -112.5t-119.5 -44.5zM194 61q32 0 77 38.5t102.5 132t92.5 194.5t35 157q0 36 -14 52t-35 16q-29 0 -64 -28.5t-70 -76t-64 -106t-46 -114.5
q-2 -11 -9 -11q-5 0 -12.5 6.5t-12.5 17.5l-3 3l-5 -7q-13 -34 -22.5 -82t-9.5 -85q0 -34 8 -60t22.5 -36.5t29.5 -10.5z" />
    <glyph glyph-name="Otilde" unicode="&#xd5;" horiz-adv-x="502" 
d="M525 756q-14 0 -26 6t-36 24t-38 18q-8 0 -18 -4.5t-19.5 -14.5t-10.5 -11q-6 -8 -11 -8t-10 6t-7.5 18.5t-2.5 17.5q0 14 9 32t30.5 31.5t42.5 13.5q24 0 52.5 -20.5t37 -23.5t12.5 -3q21 0 45 29q7 8 13 8q12 0 19.5 -13t7.5 -27q0 -15 -10.5 -33t-34.5 -32t-45 -14z
M202 -14q-43 0 -80 23.5t-59 68t-22 110.5q0 76 29 166.5t75.5 169t98.5 127.5t94 49q11 0 23 -5h3l4 1q39 22 77 22q21 0 44 -10t45.5 -36.5t33 -64.5t10.5 -70q0 -50 -18.5 -118t-50.5 -138t-80 -138t-107.5 -112.5t-119.5 -44.5zM194 61q32 0 77 38.5t102.5 132
t92.5 194.5t35 157q0 36 -14 52t-35 16q-29 0 -64 -28.5t-70 -76t-64 -106t-46 -114.5q-2 -11 -9 -11q-5 0 -12.5 6.5t-12.5 17.5l-3 3l-5 -7q-13 -34 -22.5 -82t-9.5 -85q0 -34 8 -60t22.5 -36.5t29.5 -10.5z" />
    <glyph glyph-name="Odieresis" unicode="&#xd6;" horiz-adv-x="502" 
d="M391 768q-16 0 -29 15.5t-13 34.5q0 13 6.5 31t24 33t37.5 15q41 0 41 -39q0 -12 -7.5 -32.5t-25 -39t-34.5 -18.5zM529 761q-16 0 -28.5 15.5t-12.5 35.5q0 29 20.5 53.5t48.5 24.5q40 0 40 -38q0 -20 -12.5 -44.5t-28.5 -35.5t-27 -11zM202 -14q-43 0 -80 23.5t-59 68
t-22 110.5q0 76 29 166.5t75.5 169t98.5 127.5t94 49q11 0 23 -5h3l4 1q39 22 77 22q21 0 44 -10t45.5 -36.5t33 -64.5t10.5 -70q0 -50 -18.5 -118t-50.5 -138t-80 -138t-107.5 -112.5t-119.5 -44.5zM194 61q32 0 77 38.5t102.5 132t92.5 194.5t35 157q0 36 -14 52t-35 16
q-29 0 -64 -28.5t-70 -76t-64 -106t-46 -114.5q-2 -11 -9 -11q-5 0 -12.5 6.5t-12.5 17.5l-3 3l-5 -7q-13 -34 -22.5 -82t-9.5 -85q0 -34 8 -60t22.5 -36.5t29.5 -10.5z" />
    <glyph glyph-name="multiply" unicode="&#xd7;" horiz-adv-x="491" 
d="M357 109q-15 0 -29.5 7t-18.5 23l-18 84l-3 4l-4 -2l-119 -108q-1 -2 -6 -2q-8 0 -14 6q-7 6 -12 19.5t-5 26.5q0 20 13 30l124 111l3 5l-1 2l-40 146q-3 13 14 22.5t38 9.5q12 0 22.5 -5t11.5 -13q3 -19 21 -98l4 -3l3 1l26 23l96 87q5 5 10 5q12 0 22.5 -17t10.5 -36
q0 -16 -9 -22l-137 -121l-3 -5l1 -3q31 -105 48 -149q5 -10 -11.5 -19t-37.5 -9z" />
    <glyph glyph-name="Oslash" unicode="&#xd8;" horiz-adv-x="502" 
d="M20 -50q-12 0 -24 15.5t-12 30.5q0 12 7 19q13 13 62 75l2 5v3q-14 39 -14 90q0 76 29 166.5t75.5 169t98.5 127.5t94 49q11 0 23 -5h3l4 1q39 22 77 22q34 0 62 -20l3 -1l5 2q29 43 34 54q7 15 17 15q11 0 21 -16.5t10 -34.5t-10 -29l-32 -39l-2 -4l1 -3q24 -50 24 -105
q0 -50 -18.5 -118t-50.5 -138t-80 -138t-107.5 -112.5t-119.5 -44.5q-29 0 -59 12.5t-53 37.5l-3 2l-4 -3q-41 -56 -51 -77q-4 -8 -12 -8zM139 202l4 2q224 291 329 436l2 4q0 2 -5 4.5t-17 2.5q-29 0 -64 -28.5t-70 -76t-64 -106t-46 -114.5q-2 -11 -9 -11q-5 0 -12.5 6.5
t-12.5 17.5l-3 3l-5 -7q-22 -57 -30 -128q0 -3 3 -5zM194 61q26 0 57 22.5t66 66t76 116t72.5 159.5t34.5 145q1 3 -3 5l-4 -2q-248 -318 -351 -456l-2 -5l1 -3q13 -48 53 -48z" />
    <glyph glyph-name="Ugrave" unicode="&#xd9;" horiz-adv-x="614" 
d="M648 745q-16 0 -47 17.5t-65 50t-34 50.5q0 8 8 18.5t24 20t25 9.5q7 0 13 -8q14 -25 47 -60t65 -57q8 -5 8 -13q0 -10 -15 -19t-29 -9zM472 -19q-20 0 -39.5 20.5t-19.5 42.5l2 13q45 98 93 213l2 7q0 4 -4 5l-6 -5q-94 -150 -154 -213.5t-105 -63.5q-17 0 -37.5 12.5
t-36 43.5t-15.5 65q0 24 10.5 62t33 83.5t75 140.5t71.5 143.5t19 80.5q0 13 -4.5 23t-22.5 10q-42 0 -101.5 -43t-101 -102t-41.5 -91q0 -14 15 -25t15 -17q0 -14 -18 -14q-19 0 -37.5 15t-31.5 45.5t-13 56.5q0 39 28.5 82t73.5 79t95 57.5t90 21.5q31 0 61 -16.5
t49 -55.5t19 -77q0 -21 -10.5 -56.5t-34.5 -86t-91.5 -173.5t-67.5 -159q0 -18 16 -18q34 0 104 72t169.5 225.5t183.5 332.5q7 13 21 13q21 0 45.5 -22.5t24.5 -41.5q0 -8 -6 -14q-31 -42 -87 -156t-124 -282t-79 -208q-3 -12 -11 -18.5t-17 -6.5z" />
    <glyph glyph-name="Uacute" unicode="&#xda;" horiz-adv-x="614" 
d="M531 765q-15 0 -29 12.5t-14 23.5q0 4 3.5 8t8.5 6q23 9 69 37.5t69 52.5q5 4 13 4q12 0 29.5 -20.5t17.5 -38.5q0 -21 -65 -53t-102 -32zM472 -19q-20 0 -39.5 20.5t-19.5 42.5l2 13q45 98 93 213l2 7q0 4 -4 5l-6 -5q-94 -150 -154 -213.5t-105 -63.5q-17 0 -37.5 12.5
t-36 43.5t-15.5 65q0 24 10.5 62t33 83.5t75 140.5t71.5 143.5t19 80.5q0 13 -4.5 23t-22.5 10q-42 0 -101.5 -43t-101 -102t-41.5 -91q0 -14 15 -25t15 -17q0 -14 -18 -14q-19 0 -37.5 15t-31.5 45.5t-13 56.5q0 39 28.5 82t73.5 79t95 57.5t90 21.5q31 0 61 -16.5
t49 -55.5t19 -77q0 -21 -10.5 -56.5t-34.5 -86t-91.5 -173.5t-67.5 -159q0 -18 16 -18q34 0 104 72t169.5 225.5t183.5 332.5q7 13 21 13q21 0 45.5 -22.5t24.5 -41.5q0 -8 -6 -14q-31 -42 -87 -156t-124 -282t-79 -208q-3 -12 -11 -18.5t-17 -6.5z" />
    <glyph glyph-name="Ucircumflex" unicode="&#xdb;" horiz-adv-x="614" 
d="M668 744q-11 0 -41 34t-42 34q-10 0 -49.5 -23.5t-47.5 -23.5l-1 -1q-7 0 -11.5 6.5t-4.5 13.5t20.5 29.5t60.5 52t58 29.5q24 0 47.5 -47t23.5 -82q0 -22 -13 -22zM472 -19q-20 0 -39.5 20.5t-19.5 42.5l2 13q45 98 93 213l2 7q0 4 -4 5q-4 -1 -6 -5
q-94 -150 -154 -213.5t-105 -63.5q-17 0 -37.5 12.5t-36 43.5t-15.5 65q0 24 10.5 62t33 83.5t75 140.5t71.5 143.5t19 80.5q0 13 -4.5 23t-22.5 10q-42 0 -101.5 -43t-101 -102t-41.5 -91q0 -14 15 -25t15 -17q0 -14 -18 -14q-19 0 -37.5 15t-31.5 45.5t-13 56.5
q0 39 28.5 82t73.5 79t95 57.5t90 21.5q31 0 61 -16.5t49 -55.5t19 -77q0 -21 -10.5 -56.5t-34.5 -86t-91.5 -173.5t-67.5 -159q0 -18 16 -18q34 0 104 72t169.5 225.5t183.5 332.5q7 13 21 13q21 0 45.5 -22.5t24.5 -41.5q0 -8 -6 -14q-31 -42 -87 -156t-124 -282t-79 -208
q-3 -12 -11 -18.5t-17 -6.5z" />
    <glyph glyph-name="Udieresis" unicode="&#xdc;" horiz-adv-x="614" 
d="M497 768q-16 0 -29 15.5t-13 34.5q0 13 7 31t24 33t37 15q42 0 42 -39q0 -12 -7.5 -32.5t-25.5 -39t-35 -18.5zM635 761q-16 0 -28 15.5t-12 35.5q0 29 20.5 53.5t48.5 24.5q40 0 40 -38q0 -20 -13 -44.5t-28.5 -35.5t-27.5 -11zM472 -19q-20 0 -39.5 20.5t-19.5 42.5
l2 13q45 98 93 213l2 7q0 4 -4 5l-6 -5q-94 -150 -154 -213.5t-105 -63.5q-17 0 -37.5 12.5t-36 43.5t-15.5 65q0 24 10.5 62t33 83.5t75 140.5t71.5 143.5t19 80.5q0 13 -4.5 23t-22.5 10q-42 0 -101.5 -43t-101 -102t-41.5 -91q0 -14 15 -25t15 -17q0 -14 -18 -14
q-19 0 -37.5 15t-31.5 45.5t-13 56.5q0 39 28.5 82t73.5 79t95 57.5t90 21.5q31 0 61 -16.5t49 -55.5t19 -77q0 -21 -10.5 -56.5t-34.5 -86t-91.5 -173.5t-67.5 -159q0 -18 16 -18q34 0 104 72t169.5 225.5t183.5 332.5q7 13 21 13q21 0 45.5 -22.5t24.5 -41.5q0 -8 -6 -14
q-31 -42 -87 -156t-124 -282t-79 -208q-3 -12 -11 -18.5t-17 -6.5z" />
    <glyph glyph-name="Yacute" unicode="&#xdd;" horiz-adv-x="621" 
d="M520 765q-15 0 -29 12.5t-14 23.5q0 4 3.5 8t8.5 6q23 9 69 37.5t69 52.5q5 4 13 4q12 0 29.5 -20.5t17.5 -38.5q0 -21 -65 -53t-102 -32zM392 -201q-10 0 -25 8t-28 26t-13 35q0 5 4 15q20 39 91.5 193.5t84.5 182.5q5 10 5 16l-2 3q-7 -5 -13 -13q-95 -147 -152.5 -206
t-102.5 -59q-17 0 -37.5 12.5t-36 43.5t-15.5 65q0 24 10.5 62t33 83.5t75 140.5t71.5 143.5t19 80.5q0 13 -4.5 23t-22.5 10q-42 0 -101.5 -43t-101 -102t-41.5 -91q0 -14 15 -25t15 -17q0 -14 -18 -14q-19 0 -37.5 15t-31.5 45.5t-13 56.5q0 39 28.5 82t73.5 79t95 57.5
t90 21.5q31 0 61 -16.5t49 -55.5t19 -77q0 -21 -10.5 -56.5t-34.5 -86t-91.5 -173.5t-67.5 -159q0 -18 16 -18q42 0 127.5 95t178 241.5t161.5 293.5q7 13 22 13q21 0 45.5 -22.5t24.5 -41.5q0 -8 -6 -14q-60 -82 -203.5 -404t-177.5 -425q-4 -12 -11.5 -18t-16.5 -6z" />
    <glyph glyph-name="Thorn" unicode="&#xde;" horiz-adv-x="506" 
d="M96 -1q-10 0 -25.5 7t-29.5 23.5t-14 33.5q0 9 4 16q142 290 223 462l1 3l-3 3l-3 -1q-29 -11 -62 -31.5t-62 -50t-50 -63t-21 -57.5q0 -16 13.5 -25.5t15 -12.5t1.5 -5q0 -15 -19 -15q-34 0 -58.5 41.5t-24.5 80.5q0 29 18.5 61.5t59.5 62.5t100.5 54.5t126.5 34.5
q5 0 6 4q50 108 53 124q2 8 8 12t13 4q10 0 26.5 -8t32.5 -25t16 -32q0 -7 -4 -12q-8 -12 -33 -61q-3 -5 4 -7q60 -12 97 -45t49 -70t12 -63q0 -39 -21 -83.5t-67 -85.5t-94 -63.5t-81.5 -29.5t-55.5 -7q-33 0 -51 9h-3l-4 -3q-56 -121 -72 -165q-5 -15 -22 -15zM230 253h2
q53 10 99.5 34t80 56.5t51.5 67.5t18 65q0 36 -26.5 59.5t-77.5 26.5q-4 0 -6 -3q-74 -149 -144 -300v-3z" />
    <glyph glyph-name="germandbls" unicode="&#xdf;" horiz-adv-x="398" 
d="M-60 -154q-24 0 -44.5 19.5t-20.5 41.5q0 12 5 18q23 34 70 127t118.5 243t81.5 171q73 141 122.5 190.5t96.5 49.5q37 0 67 -22.5t46 -55.5t16 -73q0 -80 -60 -170t-155 -145q-4 -2 -4.5 -5.5t3.5 -6.5q25 -17 42 -43.5t17 -61.5q0 -56 -43 -93t-117 -37
q-45 0 -70.5 13.5t-25.5 31.5q0 11 6 17.5t15 6.5t21 -7.5t28 -7.5q14 0 33.5 10.5t36 34.5t16.5 47q0 16 -8 29t-28.5 30t-20.5 29q0 6 4 15t41 38q58 46 98.5 100.5t63 111.5t22.5 104q0 25 -8.5 38.5t-21.5 13.5t-28 -12.5t-27 -34.5q-27 -50 -194.5 -386t-172.5 -356
q-4 -13 -21 -13z" />
    <glyph glyph-name="agrave" unicode="&#xe0;" horiz-adv-x="410" 
d="M430 509q-16 0 -47 17.5t-65 50t-34 50.5q0 8 8 18.5t24 20t25 9.5q8 0 13 -9q14 -25 46 -58.5t65 -57.5q3 -2 6 -6.5t3 -7.5q0 -10 -15 -18.5t-29 -8.5zM76 0q-32 0 -50.5 28t-18.5 72q0 51 23 118t60.5 128.5t83 101t86.5 39.5q26 0 53.5 -16t42.5 -37l4 -3l4 3l23 43
q7 12 21 12q20 0 40.5 -20.5t20.5 -43.5q0 -14 -7 -25q-33 -49 -90.5 -163.5t-57.5 -141.5q0 -10 8 -10q6 0 17.5 10.5t31 36.5t43 62t40.5 64t33.5 56t17.5 29l5 2q8 0 17.5 -8t9.5 -14l-1 -4q-74 -138 -119.5 -201.5t-78.5 -90.5t-56 -27q-26 0 -44.5 23t-18.5 57
q0 25 6 55l1 2l-1 2l-5 -4q-31 -47 -55.5 -77t-47 -44t-41.5 -14zM114 85q18 0 85.5 92t135.5 206v3l-1 4q-20 24 -40 24q-33 0 -78 -61.5t-78 -142.5t-33 -111q0 -14 9 -14z" />
    <glyph glyph-name="aacute" unicode="&#xe1;" horiz-adv-x="410" 
d="M313 528q-15 0 -29 13t-14 24q0 8 12 13q22 9 68.5 38t69.5 52q5 5 13 5q12 0 29.5 -21t17.5 -38q0 -21 -65 -53.5t-102 -32.5zM76 0q-32 0 -50.5 28t-18.5 72q0 51 23 118t60.5 128.5t83 101t86.5 39.5q26 0 53.5 -16t42.5 -37l4 -3l4 3l23 43q7 12 21 12
q20 0 40.5 -20.5t20.5 -43.5q0 -14 -7 -25q-33 -49 -90.5 -163.5t-57.5 -141.5q0 -10 8 -10q6 0 17.5 10.5t31 36.5t43 62t40.5 64t33.5 56t17.5 29l5 2q8 0 17.5 -8t9.5 -14l-1 -4q-74 -138 -119.5 -201.5t-78.5 -90.5t-56 -27q-26 0 -44.5 23t-18.5 57q0 25 6 55l1 2l-1 2
l-5 -4q-31 -47 -55.5 -77t-47 -44t-41.5 -14zM114 85q18 0 85.5 92t135.5 206v3l-1 4q-20 24 -40 24q-33 0 -78 -61.5t-78 -142.5t-33 -111q0 -14 9 -14z" />
    <glyph glyph-name="acircumflex" unicode="&#xe2;" horiz-adv-x="410" 
d="M450 507q-12 0 -41.5 34t-41.5 34q-10 0 -50 -23.5t-47 -23.5h-1q-7 0 -11.5 6.5t-4.5 12.5q0 7 20.5 30t60.5 52.5t58 29.5q12 0 28 -17.5t29.5 -52.5t13.5 -59q0 -10 -3.5 -16.5t-9.5 -6.5zM76 0q-32 0 -50.5 28t-18.5 72q0 51 23 118t60.5 128.5t83 101t86.5 39.5
q26 0 53.5 -16t42.5 -37l4 -3l4 3l23 43q7 12 21 12q20 0 40.5 -20.5t20.5 -43.5q0 -14 -7 -25q-33 -49 -90.5 -163.5t-57.5 -141.5q0 -10 8 -10q6 0 17.5 10.5t31 36.5t43 62t40.5 64t33.5 56t17.5 29l5 2q8 0 17.5 -8t9.5 -14l-1 -4q-74 -138 -119.5 -201.5t-78.5 -90.5
t-56 -27q-26 0 -44.5 23t-18.5 57q0 25 6 55l1 2l-1 2l-5 -4q-31 -47 -55.5 -77t-47 -44t-41.5 -14zM114 85q18 0 85.5 92t135.5 206v3l-1 4q-20 24 -40 24q-33 0 -78 -61.5t-78 -142.5t-33 -111q0 -14 9 -14z" />
    <glyph glyph-name="atilde" unicode="&#xe3;" horiz-adv-x="410" 
d="M413 520q-23 0 -50 20.5t-36 23.5t-13 3t-9.5 -1t-12 -4.5t-12 -8.5t-10 -10t-5.5 -6q-7 -7 -10 -7q-10 0 -15 15t-5 27q0 14 9 32t30 31t42 13q14 0 27.5 -6t37.5 -23t37 -17q20 0 46 29q7 8 12 8q12 0 19.5 -13t7.5 -27q0 -31 -30 -55t-60 -24zM76 0q-32 0 -50.5 28
t-18.5 72q0 51 23 118t60.5 128.5t83 101t86.5 39.5q26 0 53.5 -16t42.5 -37l4 -3l4 3l23 43q7 12 21 12q20 0 40.5 -20.5t20.5 -43.5q0 -14 -7 -25q-33 -49 -90.5 -163.5t-57.5 -141.5q0 -10 8 -10q6 0 17.5 10.5t31 36.5t43 62t40.5 64t33.5 56t17.5 29l5 2q8 0 17.5 -8
t9.5 -14l-1 -4q-74 -138 -119.5 -201.5t-78.5 -90.5t-56 -27q-26 0 -44.5 23t-18.5 57q0 25 6 55l1 2l-1 2l-5 -4q-31 -47 -55.5 -77t-47 -44t-41.5 -14zM114 85q18 0 85.5 92t135.5 206v3l-1 4q-20 24 -40 24q-33 0 -78 -61.5t-78 -142.5t-33 -111q0 -14 9 -14z" />
    <glyph glyph-name="adieresis" unicode="&#xe4;" horiz-adv-x="410" 
d="M279 532q-16 0 -29 15.5t-13 34.5q0 13 7 31t24 33t37 15q41 0 41 -39q0 -13 -7.5 -33.5t-25 -38.5t-34.5 -18zM417 525q-16 0 -28.5 15.5t-12.5 34.5q0 29 20.5 54t48.5 25q40 0 40 -39q0 -20 -12.5 -44t-28 -35t-27.5 -11zM76 0q-32 0 -50.5 28t-18.5 72q0 51 23 118
t60.5 128.5t83 101t86.5 39.5q26 0 53.5 -16t42.5 -37l4 -3l4 3l23 43q7 12 21 12q20 0 40.5 -20.5t20.5 -43.5q0 -14 -7 -25q-33 -49 -90.5 -163.5t-57.5 -141.5q0 -10 8 -10q6 0 17.5 10.5t31 36.5t43 62t40.5 64t33.5 56t17.5 29l5 2q8 0 17.5 -8t9.5 -14l-1 -4
q-74 -138 -119.5 -201.5t-78.5 -90.5t-56 -27q-26 0 -44.5 23t-18.5 57q0 25 6 55l1 2l-1 2l-5 -4q-31 -47 -55.5 -77t-47 -44t-41.5 -14zM114 85q18 0 85.5 92t135.5 206v3l-1 4q-20 24 -40 24q-33 0 -78 -61.5t-78 -142.5t-33 -111q0 -14 9 -14z" />
    <glyph glyph-name="aring" unicode="&#xe5;" horiz-adv-x="410" 
d="M359 521q-18 0 -36.5 8.5t-29.5 27t-11 38.5q0 25 16 53.5t37.5 41.5t40.5 13q15 0 33.5 -9t32.5 -29.5t14 -41.5q0 -22 -14.5 -48.5t-37 -40t-45.5 -13.5zM353 567q9 0 21.5 8t22 25t9.5 32q0 10 -5.5 16t-15.5 6q-21 0 -36.5 -22t-15.5 -42q0 -10 5 -16.5t15 -6.5z
M76 0q-32 0 -50.5 28t-18.5 72q0 51 23 118t60.5 128.5t83 101t86.5 39.5q26 0 53.5 -16t42.5 -37l4 -3l4 3l23 43q7 12 21 12q20 0 40.5 -20.5t20.5 -43.5q0 -14 -7 -25q-33 -49 -90.5 -163.5t-57.5 -141.5q0 -10 8 -10q6 0 17.5 10.5t31 36.5t43 62t40.5 64t33.5 56
t17.5 29l5 2q8 0 17.5 -8t9.5 -14l-1 -4q-74 -138 -119.5 -201.5t-78.5 -90.5t-56 -27q-26 0 -44.5 23t-18.5 57q0 25 6 55l1 2l-1 2l-5 -4q-31 -47 -55.5 -77t-47 -44t-41.5 -14zM114 85q18 0 85.5 92t135.5 206v3l-1 4q-20 24 -40 24q-33 0 -78 -61.5t-78 -142.5t-33 -111
q0 -14 9 -14z" />
    <glyph glyph-name="ae" unicode="&#xe6;" horiz-adv-x="555" 
d="M74 0q-30 0 -48.5 28.5t-18.5 71.5q0 51 23 118t60.5 128.5t83 101t86.5 39.5q26 0 53.5 -16t42.5 -37l4 -3l4 3l23 43q7 12 21 12q15 0 31 -11l4 -2l3 1q21 10 44 10q26 0 52.5 -15.5t38.5 -38.5t12 -43q0 -41 -29.5 -87.5t-77 -75t-87.5 -28.5q-17 0 -34 6h-1l-5 -4
q-15 -43 -15 -76q0 -51 41 -51q31 0 77.5 30.5t85.5 80.5q43 56 88 134l6 3q3 0 12 -8t9 -16q0 -10 -20 -47.5t-45 -73.5q-35 -51 -75 -91.5t-81 -63t-82 -22.5q-23 0 -50.5 12t-46 44t-18.5 75l1 11q0 4 -3 5l-3 -3q-26 -41 -57.5 -76.5t-59.5 -51.5t-49 -16zM394 250
q20 0 48 21.5t56 66t28 69.5q0 13 -10 13q-22 0 -61.5 -48t-69.5 -110l-2 -6q0 -6 11 -6zM114 85q18 0 85.5 92t135.5 206v2l-1 5q-20 24 -40 24q-33 0 -78 -61.5t-78 -142.5t-33 -111q0 -14 9 -14z" />
    <glyph glyph-name="ccedilla" unicode="&#xe7;" horiz-adv-x="312" 
d="M410 342q5 0 13 -8.5t8 -15.5q0 -9 -18 -44.5t-55 -92.5q-107 -168 -214 -180q8 -26 8 -48q0 -42 -21.5 -70t-60.5 -28q-16 0 -33.5 7.5t-28 23.5t-10.5 30q0 7 3 12t8 5l10 -3q15 -7 32 -7q24 0 40 21t18 57q-43 6 -68.5 40t-25.5 85q0 37 15.5 90.5t54 121.5t85 108.5
t79.5 40.5q13 0 26 -7t28 -35l4 -3l4 3q21 35 37 35t31 -14.5t15 -29.5q0 -8 -9 -17q-15 -15 -47 -62t-56 -94q-4 -8 -12 -8q-9 0 -17.5 11t-8.5 29q0 37 44 113l2 5l-3 2q-11 0 -28.5 -11t-40 -39t-46.5 -71.5t-41 -90.5t-17 -78q0 -21 10 -35.5t32 -14.5q64 0 150 110
q44 59 99 154z" />
    <glyph glyph-name="egrave" unicode="&#xe8;" horiz-adv-x="325" 
d="M387 509q-16 0 -47 17.5t-65 50t-34 50.5q0 8 8 18.5t24 20t25 9.5q8 0 13 -9q19 -33 54 -66.5t58 -49.5q3 -2 5.5 -6.5t2.5 -7.5q0 -10 -15 -18.5t-29 -8.5zM130 0q-23 0 -50 11.5t-46 43.5t-19 74q0 35 15 87.5t49 112.5t70.5 96.5t64 49t46.5 12.5q26 0 52.5 -15.5
t38.5 -38.5t12 -43q0 -25 -12 -55t-39 -59.5t-67 -52t-82 -22.5q-9 0 -18.5 2t-10.5 2q-4 0 -5 -4q-15 -43 -15 -76q0 -51 41 -51q31 0 76 30.5t85 80.5q51 66 90 134l4 3q6 0 14.5 -8.5t8.5 -16.5q0 -7 -16 -38t-50 -82q-33 -51 -73.5 -91.5t-81.5 -63t-82 -22.5zM164 250
q20 0 48 21.5t56 66t28 69.5q0 13 -10 13q-22 0 -61.5 -48t-69.5 -110l-2 -6q0 -6 11 -6z" />
    <glyph glyph-name="eacute" unicode="&#xe9;" horiz-adv-x="325" 
d="M270 528q-15 0 -29 13t-14 24q0 8 12 13q23 9 68.5 37.5t69.5 52.5q5 5 13 5q12 0 29.5 -21t17.5 -38q0 -21 -65 -53.5t-102 -32.5zM130 0q-23 0 -50 11.5t-46 43.5t-19 74q0 35 15 87.5t49 112.5t70.5 96.5t64 49t46.5 12.5q26 0 52.5 -15.5t38.5 -38.5t12 -43
q0 -25 -12 -55t-39 -59.5t-67 -52t-82 -22.5q-9 0 -18.5 2t-10.5 2q-4 0 -5 -4q-15 -43 -15 -76q0 -51 41 -51q31 0 76 30.5t85 80.5q51 66 90 134l4 3q6 0 14.5 -8.5t8.5 -16.5q0 -7 -16 -38t-50 -82q-33 -51 -73.5 -91.5t-81.5 -63t-82 -22.5zM164 250q20 0 48 21.5t56 66
t28 69.5q0 13 -10 13q-22 0 -61.5 -48t-69.5 -110l-2 -6q0 -6 11 -6z" />
    <glyph glyph-name="ecircumflex" unicode="&#xea;" horiz-adv-x="325" 
d="M407 507q-11 0 -41 34t-41 34q-10 0 -50 -23.5t-48 -23.5h-1q-7 0 -11.5 6.5t-4.5 12.5q0 7 20.5 30t60.5 52.5t58 29.5q24 0 47.5 -47t23.5 -82q0 -10 -3.5 -16.5t-9.5 -6.5zM130 0q-23 0 -50 11.5t-46 43.5t-19 74q0 35 15 87.5t49 112.5t70.5 96.5t64 49t46.5 12.5
q26 0 52.5 -15.5t38.5 -38.5t12 -43q0 -25 -12 -55t-39 -59.5t-67 -52t-82 -22.5q-9 0 -18.5 2t-10.5 2q-4 0 -5 -4q-15 -43 -15 -76q0 -51 41 -51q31 0 76 30.5t85 80.5q51 66 90 134l4 3q6 0 14.5 -8.5t8.5 -16.5q0 -7 -16 -38t-50 -82q-33 -51 -73.5 -91.5t-81.5 -63
t-82 -22.5zM164 250q20 0 48 21.5t56 66t28 69.5q0 13 -10 13q-22 0 -61.5 -48t-69.5 -110l-2 -6q0 -6 11 -6z" />
    <glyph glyph-name="edieresis" unicode="&#xeb;" horiz-adv-x="325" 
d="M236 532q-16 0 -28.5 15.5t-12.5 34.5q0 13 6.5 31t23.5 33t37 15q42 0 42 -39q0 -20 -13 -44t-28.5 -35t-26.5 -11zM375 525q-16 0 -28.5 15.5t-12.5 34.5q0 29 20.5 54t48.5 25q15 0 27.5 -8.5t12.5 -30.5q0 -20 -13 -44t-28.5 -35t-26.5 -11zM130 0q-23 0 -50 11.5
t-46 43.5t-19 74q0 35 15 87.5t49 112.5t70.5 96.5t64 49t46.5 12.5q26 0 52.5 -15.5t38.5 -38.5t12 -43q0 -25 -12 -55t-39 -59.5t-67 -52t-82 -22.5q-9 0 -18.5 2t-10.5 2q-4 0 -5 -4q-15 -43 -15 -76q0 -51 41 -51q31 0 76 30.5t85 80.5q51 66 90 134l4 3q6 0 14.5 -8.5
t8.5 -16.5q0 -7 -16 -38t-50 -82q-33 -51 -73.5 -91.5t-81.5 -63t-82 -22.5zM164 250q20 0 48 21.5t56 66t28 69.5q0 13 -10 13q-22 0 -61.5 -48t-69.5 -110l-2 -6q0 -6 11 -6z" />
    <glyph glyph-name="igrave" unicode="&#xec;" horiz-adv-x="195" 
d="M328 509q-16 0 -47 17.5t-65 50t-34 50.5q0 8 8 18.5t24 20t25 9.5q8 0 13 -9q19 -33 54 -66.5t58 -49.5q3 -2 5.5 -6.5t2.5 -7.5q0 -10 -15 -18.5t-29 -8.5zM65 0q-29 0 -49.5 25.5t-20.5 61.5q0 48 34 125q8 19 23 51t31.5 66t30 60.5l27 53t13.5 27.5q5 11 19 11
q10 0 26.5 -7.5t32 -23.5t15.5 -28q0 -9 -6 -17q-2 -2 -9 -12.5t-34.5 -57.5t-65 -127t-37.5 -110q0 -13 10 -13q6 0 17.5 10.5t31 36.5t43 62t40.5 64t33.5 56t17.5 29l5 2q8 0 17.5 -8t9.5 -14l-1 -4q-74 -138 -119.5 -201.5t-78.5 -90.5t-56 -27z" />
    <glyph glyph-name="iacute" unicode="&#xed;" horiz-adv-x="195" 
d="M211 528q-15 0 -29 13t-14 24q0 8 12 13q22 9 68.5 38t69.5 52q5 5 13 5q12 0 29.5 -21t17.5 -38q0 -21 -65 -53.5t-102 -32.5zM65 0q-29 0 -49.5 25.5t-20.5 61.5q0 48 34 125q8 19 23 51t31.5 66t30 60.5l27 53t13.5 27.5q5 11 19 11q10 0 26.5 -7.5t32 -23.5t15.5 -28
q0 -9 -6 -17q-2 -2 -9 -12.5t-34.5 -57.5t-65 -127t-37.5 -110q0 -13 10 -13q6 0 17.5 10.5t31 36.5t43 62t40.5 64t33.5 56t17.5 29l5 2q8 0 17.5 -8t9.5 -14l-1 -4q-74 -138 -119.5 -201.5t-78.5 -90.5t-56 -27z" />
    <glyph glyph-name="icircumflex" unicode="&#xee;" horiz-adv-x="195" 
d="M348 507q-11 0 -41 34t-42 34q-10 0 -49.5 -23.5t-47.5 -23.5h-1q-7 0 -11.5 6.5t-4.5 12.5q0 7 20.5 30t60.5 52.5t58 29.5q24 0 47.5 -47t23.5 -82q0 -10 -3.5 -16.5t-9.5 -6.5zM65 0q-29 0 -49.5 25.5t-20.5 61.5q0 48 34 125q8 19 23 51t31.5 66t30 60.5l27 53
t13.5 27.5q5 11 19 11q10 0 26.5 -7.5t32 -23.5t15.5 -28q0 -9 -6 -17q-2 -2 -9 -12.5t-34.5 -57.5t-65 -127t-37.5 -110q0 -13 10 -13q6 0 17.5 10.5t31 36.5t43 62t40.5 64t33.5 56t17.5 29l5 2q8 0 17.5 -8t9.5 -14l-1 -4q-74 -138 -119.5 -201.5t-78.5 -90.5t-56 -27z
" />
    <glyph glyph-name="idieresis" unicode="&#xef;" horiz-adv-x="195" 
d="M177 532q-16 0 -29 15.5t-13 34.5q0 13 7 31t24 33t37 15q42 0 42 -39q0 -20 -13 -44t-28.5 -35t-26.5 -11zM315 525q-15 0 -27.5 15.5t-12.5 34.5q0 29 20.5 54t48.5 25q15 0 27.5 -8.5t12.5 -30.5q0 -20 -13 -44t-28.5 -35t-27.5 -11zM65 0q-29 0 -49.5 25.5
t-20.5 61.5q0 48 34 125q8 19 23 51t31.5 66t30 60.5l27 53t13.5 27.5q5 11 19 11q10 0 26.5 -7.5t32 -23.5t15.5 -28q0 -9 -6 -17q-2 -2 -9 -12.5t-34.5 -57.5t-65 -127t-37.5 -110q0 -13 10 -13q6 0 17.5 10.5t31 36.5t43 62t40.5 64t33.5 56t17.5 29l5 2q8 0 17.5 -8
t9.5 -14l-1 -4q-74 -138 -119.5 -201.5t-78.5 -90.5t-56 -27z" />
    <glyph glyph-name="eth" unicode="&#xf0;" horiz-adv-x="365" 
d="M134 0q-32 0 -61 18.5t-45.5 46t-16.5 60.5q0 45 22.5 108.5t60 122.5t83 97t87.5 38q11 0 28 -5.5t26 -12.5l3 -2q3 2 3 5q0 45 -26 97l-4 3l-4 -1q-35 -22 -52 -40l-7 -2q-11 0 -22.5 16.5t-11.5 27.5q0 18 63 49l3 4l-1 4q-16 19 -37 27q-11 4 -11 13q0 16 22 32.5
t49 16.5q34 0 69 -53l4 -3h3q27 8 36 8q8 0 13 -5.5t5 -11.5q0 -13 -13 -16l-22 -9l-3 -5v-3q15 -36 24.5 -82.5t9.5 -89.5q0 -79 -26 -160.5t-68 -147.5t-91 -105.5t-92 -39.5zM134 79q18 0 45 24.5t58 75t57 112.5t27 96q0 14 -5.5 22.5t-15.5 8.5q-18 0 -41.5 -20
t-50 -56t-51 -83t-36.5 -84t-12 -60q-1 -17 5.5 -26.5t19.5 -9.5z" />
    <glyph glyph-name="ntilde" unicode="&#xf1;" horiz-adv-x="405" 
d="M383 520q-23 0 -50 20.5t-36 23.5t-13 3t-9.5 -1t-12 -4.5t-12 -8.5t-10 -10t-5.5 -6q-7 -7 -10 -7q-10 0 -15 15t-5 27q0 14 9 32t30 31t42 13q14 0 27.5 -6t37.5 -23t37 -17q20 0 46 29q7 8 12 8q12 0 19.5 -13t7.5 -27q0 -31 -30 -55t-60 -24zM273 0q-17 0 -34 13
t-24.5 35t-7.5 43q0 29 13 67t34.5 80.5t88.5 155.5l1 3l-3 3l-6 -4q-61 -55 -157 -180.5t-137 -201.5q-4 -13 -18 -13q-18 0 -36.5 18t-18.5 42q0 9 5 24q14 37 83 188t93 199q6 11 19 11q19 0 40 -19t21 -39q0 -10 -5 -18q-30 -42 -89 -167l-1 -6l2 -3q6 3 9 9
q70 98 143.5 172.5t105.5 74.5q23 0 41 -25t18 -54q0 -10 -13 -32q-43 -69 -89 -163t-46 -118q0 -3 2 -6.5t6 -3.5q6 0 18 10.5t32 36.5t44 62t39 60.5t26 42t19 31.5t9 15l5 2q7 0 17 -8t10 -14l-1 -4q-49 -91 -95 -162.5t-89.5 -114t-73.5 -42.5z" />
    <glyph glyph-name="ograve" unicode="&#xf2;" 
d="M386 509q-16 0 -47 17.5t-65 50t-34 50.5q0 8 8 18.5t24 20t25 9.5q8 0 13 -9q19 -33 54 -66.5t58 -49.5q3 -2 5.5 -6.5t2.5 -7.5q0 -10 -15 -18.5t-29 -8.5zM115 0q-42 0 -73 35t-31 90q0 45 22.5 108.5t60 122.5t83 97t87.5 38q25 0 47.5 -15t36.5 -47l4 -6
q22 -20 22 -66q0 -32 -12 -72.5t-29 -77.5l-1 -2q0 -3 3 -4h2q23 9 49 41t65 102l4 1q7 0 17.5 -7.5t10.5 -12.5l-2 -7q-93 -190 -188 -190q-6 0 -8 -3q-28 -40 -60.5 -70.5t-61 -42.5t-48.5 -12zM136 82q21 0 47.5 26.5t53.5 70.5q2 2 2 7q1 33 21.5 74t44.5 65l4 6
q7 23 7 52q0 14 -5.5 22.5t-15.5 8.5q-18 0 -44 -22t-56.5 -68.5t-56 -106t-27.5 -99.5q-1 -17 5.5 -26.5t19.5 -9.5z" />
    <glyph glyph-name="oacute" unicode="&#xf3;" 
d="M269 528q-15 0 -29 13t-14 24q0 8 12 13q23 9 68.5 37.5t69.5 52.5q5 5 13 5q12 0 29.5 -21t17.5 -38q0 -21 -65 -53.5t-102 -32.5zM115 0q-42 0 -73 35t-31 90q0 45 22.5 108.5t60 122.5t83 97t87.5 38q25 0 47.5 -15t36.5 -47l4 -6q22 -20 22 -66q0 -32 -12 -72.5
t-29 -77.5l-1 -2q0 -3 3 -4h2q23 9 49 41t65 102l4 1q7 0 17.5 -7.5t10.5 -12.5l-2 -7q-93 -190 -188 -190q-6 0 -8 -3q-28 -40 -60.5 -70.5t-61 -42.5t-48.5 -12zM136 82q21 0 47.5 26.5t53.5 70.5q2 2 2 7q1 33 21.5 74t44.5 65l4 6q7 23 7 52q0 14 -5.5 22.5t-15.5 8.5
q-18 0 -44 -22t-56.5 -68.5t-56 -106t-27.5 -99.5q-1 -17 5.5 -26.5t19.5 -9.5z" />
    <glyph glyph-name="ocircumflex" unicode="&#xf4;" 
d="M406 507q-11 0 -41 34t-41 34q-10 0 -50 -23.5t-48 -23.5h-1q-7 0 -11.5 6.5t-4.5 12.5q0 7 20.5 30t60.5 52.5t58 29.5q24 0 47.5 -47t23.5 -82q0 -10 -3.5 -16.5t-9.5 -6.5zM115 0q-42 0 -73 35t-31 90q0 45 22.5 108.5t60 122.5t83 97t87.5 38q25 0 47.5 -15t36.5 -47
l4 -6q22 -20 22 -66q0 -32 -12 -72.5t-29 -77.5l-1 -2q0 -3 3 -4h2q23 9 49 41t65 102l4 1q7 0 17.5 -7.5t10.5 -12.5l-2 -7q-93 -190 -188 -190q-6 0 -8 -3q-28 -40 -60.5 -70.5t-61 -42.5t-48.5 -12zM136 82q21 0 47.5 26.5t53.5 70.5q2 2 2 7q1 33 21.5 74t44.5 65l4 6
q7 23 7 52q0 14 -5.5 22.5t-15.5 8.5q-18 0 -44 -22t-56.5 -68.5t-56 -106t-27.5 -99.5q-1 -17 5.5 -26.5t19.5 -9.5z" />
    <glyph glyph-name="otilde" unicode="&#xf5;" 
d="M369 520q-14 0 -26 6t-35.5 23.5t-37.5 17.5q-4 0 -9.5 -1t-11 -4t-10 -6.5t-7 -6.5t-4.5 -5t-6 -7q-9 -7 -11 -7q-10 0 -15 15t-5 27q0 14 9 32t30.5 31t42.5 13q23 0 55.5 -23t46.5 -23q19 0 45 29q7 8 13 8q11 0 18.5 -13t7.5 -27q0 -31 -30 -55t-60 -24zM115 0
q-42 0 -73 35t-31 90q0 45 22.5 108.5t60 122.5t83 97t87.5 38q25 0 47.5 -15t36.5 -47l4 -6q22 -20 22 -66q0 -32 -12 -72.5t-29 -77.5l-1 -2q0 -3 3 -4h2q23 9 49 41t65 102l4 1q7 0 17.5 -7.5t10.5 -12.5l-2 -7q-93 -190 -188 -190q-6 0 -8 -3q-28 -40 -60.5 -70.5
t-61 -42.5t-48.5 -12zM136 82q21 0 47.5 26.5t53.5 70.5q2 2 2 7q1 33 21.5 74t44.5 65l4 6q7 23 7 52q0 14 -5.5 22.5t-15.5 8.5q-18 0 -44 -22t-56.5 -68.5t-56 -106t-27.5 -99.5q-1 -17 5.5 -26.5t19.5 -9.5z" />
    <glyph glyph-name="odieresis" unicode="&#xf6;" 
d="M235 532q-16 0 -28.5 15.5t-12.5 34.5q0 13 6.5 31t24 33t37.5 15q16 0 28.5 -8.5t12.5 -30.5q0 -20 -13 -44t-28.5 -35t-26.5 -11zM374 525q-16 0 -28.5 15.5t-12.5 34.5q0 29 20.5 54t48.5 25q15 0 27.5 -8.5t12.5 -30.5q0 -20 -13 -44t-28.5 -35t-26.5 -11zM115 0
q-42 0 -73 35t-31 90q0 45 22.5 108.5t60 122.5t83 97t87.5 38q25 0 47.5 -15t36.5 -47l4 -6q22 -20 22 -66q0 -32 -12 -72.5t-29 -77.5l-1 -2q0 -3 3 -4h2q23 9 49 41t65 102l4 1q7 0 17.5 -7.5t10.5 -12.5l-2 -7q-93 -190 -188 -190q-6 0 -8 -3q-28 -40 -60.5 -70.5
t-61 -42.5t-48.5 -12zM136 82q21 0 47.5 26.5t53.5 70.5q2 2 2 7q1 33 21.5 74t44.5 65l4 6q7 23 7 52q0 14 -5.5 22.5t-15.5 8.5q-18 0 -44 -22t-56.5 -68.5t-56 -106t-27.5 -99.5q-1 -17 5.5 -26.5t19.5 -9.5z" />
    <glyph glyph-name="oslash" unicode="&#xf8;" 
d="M32 -42q-2 -4 -6 -6.5t-7 -2.5q-11 0 -21 14.5t-10 27.5q0 12 7 19l35 41q-19 32 -19 74q0 45 22.5 108.5t60 122.5t83 97t87.5 38q17 0 35.5 -8.5t33.5 -27.5q24 36 31 50q7 17 17 17t18.5 -15.5t8.5 -30.5q0 -19 -11 -31l-32 -38q9 -19 9 -50q0 -32 -12 -72.5
t-29 -77.5l-1 -2q0 -3 3 -4h2q23 9 49 41t65 102l4 1q7 0 17.5 -7.5t10.5 -12.5l-2 -7q-93 -190 -188 -190q-6 0 -8 -3q-28 -40 -60.5 -70.5t-61 -42.5t-48.5 -12q-26 0 -49 14q-26 -40 -34 -56zM117 168l6 4q128 166 180 239l1 5l-3 2q-26 0 -60 -35.5t-70 -95t-56 -111.5
v-5zM134 79q16 0 37.5 17.5t50 55t56 93t27.5 78.5l-2 4l-5 -4q-107 -135 -178 -233l-1 -4l1 -3q5 -4 14 -4z" />
    <glyph glyph-name="ugrave" unicode="&#xf9;" horiz-adv-x="404" 
d="M410 509q-16 0 -47 17.5t-65 50t-34 50.5q0 8 8 18.5t24 20t25 9.5q8 0 13 -9q14 -25 46 -58.5t65 -57.5q3 -2 6 -6.5t3 -7.5q0 -10 -15 -18.5t-29 -8.5zM70 0q-20 0 -38 14t-25.5 35.5t-7.5 40.5q0 42 25 110t65 147t72 123q8 9 20 9q10 0 25.5 -7t30 -22t14.5 -28
q0 -9 -6 -17q-2 -2 -10 -13.5t-35 -59.5t-64 -128t-37 -109q0 -10 6 -10q22 0 86.5 81t131.5 209q41 84 53 101q5 9 17 9q20 0 44 -22.5t24 -40.5q0 -9 -6 -17q-9 -11 -29 -45.5t-50 -95t-49 -104.5q-3 -8 -11 -32t-8 -36q0 -7 7 -7q6 0 17.5 10.5t31 36.5t43 62t40.5 64
t33.5 56t17.5 29l5 2q8 0 17.5 -8t9.5 -14l-1 -4q-74 -138 -119.5 -201.5t-78.5 -90.5t-56 -27q-14 0 -28.5 9t-23.5 30.5t-9 45.5q0 22 5 42v2l-2 3l-3 -3q-84 -129 -144 -129z" />
    <glyph glyph-name="uacute" unicode="&#xfa;" horiz-adv-x="404" 
d="M293 528q-15 0 -29 13t-14 24q0 8 12 13q22 9 68.5 38t69.5 52q5 5 13 5q12 0 29.5 -21t17.5 -38q0 -21 -65 -53.5t-102 -32.5zM70 0q-20 0 -38 14t-25.5 35.5t-7.5 40.5q0 42 25 110t65 147t72 123q8 9 20 9q10 0 25.5 -7t30 -22t14.5 -28q0 -9 -6 -17q-2 -2 -10 -13.5
t-35 -59.5t-64 -128t-37 -109q0 -10 6 -10q22 0 86.5 81t131.5 209q41 84 53 101q5 9 17 9q20 0 44 -22.5t24 -40.5q0 -9 -6 -17q-9 -11 -29 -45.5t-50 -95t-49 -104.5q-3 -8 -11 -32t-8 -36q0 -7 7 -7q6 0 17.5 10.5t31 36.5t43 62t40.5 64t33.5 56t17.5 29l5 2
q8 0 17.5 -8t9.5 -14l-1 -4q-74 -138 -119.5 -201.5t-78.5 -90.5t-56 -27q-14 0 -28.5 9t-23.5 30.5t-9 45.5q0 22 5 42v2l-2 3l-3 -3q-84 -129 -144 -129z" />
    <glyph glyph-name="ucircumflex" unicode="&#xfb;" horiz-adv-x="404" 
d="M430 507q-12 0 -41.5 34t-41.5 34q-10 0 -50 -23.5t-47 -23.5h-1q-7 0 -11.5 6.5t-4.5 12.5q0 7 20.5 30t60.5 52.5t58 29.5q12 0 28 -17.5t29.5 -52.5t13.5 -59q0 -10 -3.5 -16.5t-9.5 -6.5zM70 0q-20 0 -38 14t-25.5 35.5t-7.5 40.5q0 42 25 110t65 147t72 123
q8 9 20 9q10 0 25.5 -7t30 -22t14.5 -28q0 -9 -6 -17q-2 -2 -10 -13.5t-35 -59.5t-64 -128t-37 -109q0 -10 6 -10q22 0 86.5 81t131.5 209q41 84 53 101q6 9 17 9q20 0 44 -22.5t24 -40.5q0 -9 -6 -17q-9 -11 -29 -45.5t-50 -95t-49 -104.5q-3 -8 -11 -32t-8 -36q0 -7 7 -7
q6 0 17.5 10.5t31 36.5t43 62t40.5 64t33.5 56t17.5 29l5 2q8 0 17.5 -8t9.5 -14l-1 -4q-74 -138 -119.5 -201.5t-78.5 -90.5t-56 -27q-14 0 -28.5 9t-23.5 30.5t-9 45.5q0 22 5 42v2l-2 3l-3 -3q-84 -129 -144 -129z" />
    <glyph glyph-name="udieresis" unicode="&#xfc;" horiz-adv-x="404" 
d="M259 532q-16 0 -29 15.5t-13 34.5q0 13 7 31t24 33t37 15q41 0 41 -39q0 -13 -7.5 -33.5t-25 -38.5t-34.5 -18zM397 525q-16 0 -28.5 15.5t-12.5 34.5q0 29 20.5 54t48.5 25q40 0 40 -39q0 -20 -12.5 -44t-28 -35t-27.5 -11zM70 0q-20 0 -38 14t-25.5 35.5t-7.5 40.5
q0 42 25 110t65 147t72 123q8 9 20 9q10 0 25.5 -7t30 -22t14.5 -28q0 -9 -6 -17q-2 -2 -10 -13.5t-35 -59.5t-64 -128t-37 -109q0 -10 6 -10q22 0 86.5 81t131.5 209q41 84 53 101q5 9 17 9q20 0 44 -22.5t24 -40.5q0 -9 -6 -17q-9 -11 -29 -45.5t-50 -95t-49 -104.5
q-3 -8 -11 -32t-8 -36q0 -7 7 -7q6 0 17.5 10.5t31 36.5t43 62t40.5 64t33.5 56t17.5 29l5 2q8 0 17.5 -8t9.5 -14l-1 -4q-74 -138 -119.5 -201.5t-78.5 -90.5t-56 -27q-14 0 -28.5 9t-23.5 30.5t-9 45.5q0 22 5 42v2l-2 3l-3 -3q-84 -129 -144 -129z" />
    <glyph glyph-name="yacute" unicode="&#xfd;" horiz-adv-x="390" 
d="M295 528q-15 0 -29 13t-14 24q0 9 12 13q15 6 46.5 24.5t55.5 36t36 29.5q4 5 13 5q12 0 29.5 -21t17.5 -38q0 -21 -65 -53.5t-102 -32.5zM43 -209q-26 0 -57 10.5t-53.5 33.5t-22.5 42q0 10 8 20.5t17 10.5q14 0 23 -23q20 -29 54 -29q49 0 100.5 62t111.5 200l2 10
l-1 3q-6 -4 -10 -10q-26 -37 -54.5 -66.5t-52.5 -42t-41 -12.5q-28 0 -48 26t-20 67t24.5 108t64 145.5t71.5 123.5q8 9 20 9q10 0 25.5 -7t30 -22t14.5 -28q0 -9 -6 -17q-2 -2 -9.5 -13.5t-34.5 -58.5t-63 -124t-36 -104q0 -12 7 -12q16 0 55 39t84 104t89 153q22 43 41 90
q4 10 18 10q21 0 45.5 -20t24.5 -42q0 -9 -4 -17q-50 -94 -114.5 -244t-72.5 -167q-44 -99 -103 -153.5t-127 -54.5z" />
    <glyph glyph-name="thorn" unicode="&#xfe;" horiz-adv-x="400" 
d="M-74 -212q-21 0 -43 18t-22 41q0 11 4 20q35 76 194.5 411t200.5 419q6 11 19 11q9 0 24 -7t28.5 -23.5t13.5 -31.5q0 -11 -5 -17q-11 -15 -88 -160t-97 -190v-3l2 -2l8 5q7 10 39.5 54t61.5 80t53.5 55.5t42.5 19.5q14 0 31.5 -12t29.5 -34.5t12 -57.5
q0 -42 -15.5 -91.5t-47 -106t-73 -100t-79 -65t-70.5 -21.5q-58 0 -78 68l-3 4l-4 -3l-37 -74q-15 -34 -45.5 -104.5t-35.5 -89.5q-3 -13 -21 -13zM118 85q17 0 40.5 14.5t52.5 47.5t60 82.5t54 104t23 80.5q0 11 -6 12q-9 0 -51.5 -49t-102 -128.5t-100.5 -145.5l-1 -5
q0 -5 11 -9t20 -4z" />
    <glyph glyph-name="ydieresis" unicode="&#xff;" horiz-adv-x="390" 
d="M261 532q-16 0 -29 15.5t-13 34.5q0 13 6.5 31t24 33t37.5 15q41 0 41 -39q0 -13 -7.5 -33.5t-25 -38.5t-34.5 -18zM399 525q-16 0 -28.5 15.5t-12.5 34.5q0 29 20.5 54t48.5 25q15 0 27.5 -8.5t12.5 -30.5q0 -20 -12.5 -44t-28 -35t-27.5 -11zM43 -209q-26 0 -57 10.5
t-53.5 33.5t-22.5 42q0 10 8 20.5t17 10.5q14 0 23 -23q20 -29 54 -29q49 0 100.5 62t111.5 200l2 10l-1 3q-6 -4 -10 -10q-26 -37 -54.5 -66.5t-52.5 -42t-41 -12.5q-28 0 -48 26t-20 67t24.5 108t64 145.5t71.5 123.5q8 9 20 9q10 0 25.5 -7t30 -22t14.5 -28q0 -9 -6 -17
q-2 -2 -9.5 -13.5t-34.5 -58.5t-63 -124t-36 -104q0 -12 7 -12q16 0 55 39t84 104t89 153q22 43 41 90q4 10 18 10q21 0 45.5 -20t24.5 -42q0 -9 -4 -17q-50 -94 -114.5 -244t-72.5 -167q-44 -99 -103 -153.5t-127 -54.5z" />
    <glyph glyph-name="Amacron" unicode="&#x100;" horiz-adv-x="578" 
d="M501 772q-5 0 -8 5.5t-3 13.5q0 18 13 38.5t27 20.5l105 -1q31 0 62.5 1.5t41.5 1.5q13 0 13 -20t-12 -39t-28 -19l-97 1zM-17 -18q-17 0 -35.5 9.5t-30.5 30t-12 37.5q0 18 11 18q3 0 12.5 -5.5t19.5 -5.5q25 0 67.5 28t88.5 77l2 4q-2 3 -5 3l-18 -1q-14 0 -29 19.5
t-15 33.5q0 9 11 9l31 -1l91 3q3 0 7 4q97 101 201.5 233t164.5 228q10 19 30 19q11 0 27 -8.5t30 -28t14 -38.5q0 -12 -4 -20q-21 -51 -54 -149.5t-64 -225.5l-1 -2q0 -3 3 -6q11 -9 20 -21t9 -18q-1 -5 -6 -6l-34 -3l-5 -4q-27 -106 -27 -148q0 -12 2.5 -19.5t2.5 -9.5
q0 -8 -8.5 -12.5t-20.5 -4.5q-18 0 -36.5 10t-27 27.5t-8.5 34.5q0 40 20 114q1 3 -0.5 4.5t-3.5 1.5l-63 -3l-106 -6l-7 -3q-76 -92 -139.5 -145.5t-104.5 -53.5zM288 246l132 11q5 2 5 6q21 71 57 180t41 124v2q0 3 -3 4q-4 0 -6 -6q-125 -184 -227 -313l-2 -5z" />
    <glyph glyph-name="amacron" unicode="&#x101;" horiz-adv-x="410" 
d="M248 535q-5 0 -8 6t-3 14q0 18 13 38.5t27 20.5l105 -1l104 2q13 0 13 -20t-12 -39t-28 -19l-96 2q-29 0 -70 -2t-45 -2zM76 0q-32 0 -50.5 28t-18.5 72q0 51 23 118t60.5 128.5t83 101t86.5 39.5q26 0 53.5 -16t42.5 -37l4 -3l4 3l23 43q7 12 21 12q20 0 40.5 -20.5
t20.5 -43.5q0 -14 -7 -25q-33 -49 -90.5 -163.5t-57.5 -141.5q0 -10 8 -10q6 0 17.5 10.5t31 36.5t43 62t40.5 64t33.5 56t17.5 29l5 2q8 0 17.5 -8t9.5 -14l-1 -4q-74 -138 -119.5 -201.5t-78.5 -90.5t-56 -27q-26 0 -44.5 23t-18.5 57q0 25 6 55l1 2l-1 2l-5 -4
q-31 -47 -55.5 -77t-47 -44t-41.5 -14zM114 85q18 0 85.5 92t135.5 206v3l-1 4q-20 24 -40 24q-33 0 -78 -61.5t-78 -142.5t-33 -111q0 -14 9 -14z" />
    <glyph glyph-name="Abreve" unicode="&#x102;" horiz-adv-x="578" 
d="M620 755q-30 0 -51.5 14t-29.5 34.5t-8 38.5q0 34 18 53.5t38 19.5q18 0 18 -15l-3 -32q0 -18 10 -30.5t27 -12.5q16 0 36 13t40 40q17 20 35 20q7 0 12.5 -5.5t5.5 -14.5q0 -26 -26.5 -58.5t-60 -48.5t-61.5 -16zM-17 -18q-17 0 -35.5 9.5t-30.5 30t-12 37.5q0 18 11 18
q3 0 12.5 -5.5t19.5 -5.5q25 0 67.5 28t88.5 77l2 4q-2 3 -5 3l-18 -1q-14 0 -29 19.5t-15 33.5q0 9 11 9l31 -1l91 3q3 0 7 4q97 101 201.5 233t164.5 228q10 19 30 19q11 0 27 -8.5t30 -28t14 -38.5q0 -12 -4 -20q-21 -51 -54 -149.5t-64 -225.5l-1 -2q0 -3 3 -6
q11 -9 20 -21t9 -18q-1 -5 -6 -6l-34 -3l-5 -4q-27 -106 -27 -148q0 -12 2.5 -19.5t2.5 -9.5q0 -8 -8.5 -12.5t-20.5 -4.5q-18 0 -36.5 10t-27 27.5t-8.5 34.5q0 40 20 114q1 3 -0.5 4.5t-3.5 1.5l-63 -3l-106 -6l-7 -3q-76 -92 -139.5 -145.5t-104.5 -53.5zM288 246l132 11
q5 2 5 6q21 71 57 180t41 124v2q0 3 -3 4q-4 0 -6 -6q-125 -184 -227 -313l-2 -5z" />
    <glyph glyph-name="abreve" unicode="&#x103;" horiz-adv-x="410" 
d="M367 518q-30 0 -51.5 14t-29.5 34.5t-8 38.5q0 34 18 54t39 20q17 0 17 -15l-3 -32q0 -19 10 -31t27 -12q35 0 77 53q15 19 34 19q7 0 12.5 -5t5.5 -14q0 -26 -26.5 -59t-59.5 -49t-62 -16zM76 0q-32 0 -50.5 28t-18.5 72q0 51 23 118t60.5 128.5t83 101t86.5 39.5
q26 0 53.5 -16t42.5 -37l4 -3l4 3l23 43q7 12 21 12q20 0 40.5 -20.5t20.5 -43.5q0 -14 -7 -25q-33 -49 -90.5 -163.5t-57.5 -141.5q0 -10 8 -10q6 0 17.5 10.5t31 36.5t43 62t40.5 64t33.5 56t17.5 29l5 2q8 0 17.5 -8t9.5 -14l-1 -4q-74 -138 -119.5 -201.5t-78.5 -90.5
t-56 -27q-26 0 -44.5 23t-18.5 57q0 25 6 55l1 2l-1 2l-5 -4q-31 -47 -55.5 -77t-47 -44t-41.5 -14zM114 85q18 0 85.5 92t135.5 206v3l-1 4q-20 24 -40 24q-33 0 -78 -61.5t-78 -142.5t-33 -111q0 -14 9 -14z" />
    <glyph glyph-name="Aogonek" unicode="&#x104;" horiz-adv-x="578" 
d="M642 630q-21 -51 -54 -149.5t-64 -225.5l-1 -2q0 -3 3 -6q11 -9 20 -21t9 -18q-1 -5 -6 -6l-34 -3l-5 -4q-27 -106 -27 -148q0 -12 2.5 -19.5t2.5 -9.5t-3 -8t-15 -8q-33 -33 -33 -64q0 -17 11.5 -26t31.5 -9q17 0 31.5 7.5t15.5 7.5q2 0 7.5 -2.5t5.5 -12.5t-13 -26
t-42.5 -31t-58.5 -15q-33 0 -52 20t-19 47q0 28 20 57t52 54q-17 8 -28.5 24.5t-11.5 39.5q0 40 20 114q1 3 -0.5 4.5t-3.5 1.5l-63 -3l-106 -6l-7 -3q-76 -92 -139.5 -145.5t-104.5 -53.5q-17 0 -35.5 9.5t-30.5 30t-12 37.5q0 18 11 18q3 0 12.5 -5.5t19.5 -5.5
q25 0 67.5 28t88.5 77l2 4q-2 3 -5 3l-18 -1q-14 0 -29 19.5t-15 33.5q0 9 11 9l31 -1l91 3q3 0 7 4q97 101 201.5 233t164.5 228q10 19 30 19q11 0 27 -8.5t30 -28t14 -38.5q0 -12 -4 -20zM523 567v2q0 3 -3 4q-4 0 -6 -6q-125 -184 -227 -313l-2 -5l3 -3l132 11q5 2 5 6
q21 71 57 180t41 124z" />
    <glyph glyph-name="aogonek" unicode="&#x105;" horiz-adv-x="410" 
d="M311 8q-38 -35 -38 -69q0 -17 11.5 -26t30.5 -9q18 0 32 7.5t16 7.5q5 0 8.5 -4.5t3.5 -10.5q0 -22 -37 -47t-76 -25q-33 0 -52.5 20t-19.5 47q0 20 14.5 48t53.5 59q-17 8 -28 28t-11 46q0 25 6 55l1 2l-1 2l-5 -4q-31 -47 -55.5 -77t-47 -44t-41.5 -14q-32 0 -50.5 28
t-18.5 72q0 51 23 118t60.5 128.5t83 101t86.5 39.5q26 0 53.5 -16t42.5 -37l4 -3l4 3l23 43q7 12 21 12q20 0 40.5 -20.5t20.5 -43.5q0 -14 -7 -25q-33 -49 -90.5 -163.5t-57.5 -141.5q0 -10 8 -10q6 0 17.5 10.5t31 36.5t43 62t40.5 64t33.5 56t17.5 29l5 2q8 0 17.5 -8
t9.5 -14l-1 -4q-49 -91 -79 -139.5t-59 -86.5t-50.5 -57.5t-36.5 -27.5zM114 85q18 0 85.5 92t135.5 206v3l-1 4q-20 24 -40 24q-33 0 -78 -61.5t-78 -142.5t-33 -111q0 -14 9 -14z" />
    <glyph glyph-name="Cacute" unicode="&#x106;" horiz-adv-x="414" 
d="M415 765q-15 0 -29 12.5t-14 23.5q0 4 3.5 8t8.5 6q23 9 68.5 37.5t69.5 52.5q4 4 13 4q12 0 29.5 -20.5t17.5 -38.5q0 -21 -65 -53t-102 -32zM190 -12q-73 0 -117.5 56.5t-44.5 147.5q0 60 21 130.5t56.5 137t83.5 127.5t101 99.5t95 38.5q49 0 82 -44l4 -2l4 3l23 41
q8 10 18 10q20 0 41.5 -24t21.5 -44q0 -6 -4 -10q-30 -38 -78 -128.5t-69 -155.5q-3 -7 -11 -7q-17 0 -32 16.5t-15 40.5q0 23 18 76.5t57 131.5l1 3q0 6 -15 6q-27 0 -65 -22t-87 -79t-84 -125t-52.5 -127t-17.5 -107q0 -55 23 -82t64 -27q70 0 143 67t140 184l4 3
q6 0 15 -10t9 -18l-1 -5q-22 -48 -61.5 -108t-90.5 -107.5t-96.5 -67t-83.5 -19.5z" />
    <glyph glyph-name="cacute" unicode="&#x107;" horiz-adv-x="312" 
d="M255 528q-15 0 -28.5 13t-13.5 24q0 9 12 13q15 6 46.5 24.5t55.5 36t36 29.5q4 5 12 5q12 0 30 -21t18 -38q0 -21 -65 -53.5t-103 -32.5zM127 0q-24 0 -50.5 11.5t-44 42.5t-17.5 72q0 37 15.5 90.5t54 121.5t85 108.5t79.5 40.5q13 0 26 -7t28 -35l4 -3l4 3
q21 35 37 35t31 -14.5t15 -29.5q0 -8 -9 -17q-15 -15 -47 -62t-56 -94q-4 -8 -12 -8q-9 0 -17.5 11t-8.5 29q0 37 44 113l2 5l-3 2q-11 0 -28.5 -11t-40 -39t-46.5 -71.5t-41 -90.5t-17 -78q0 -21 10 -35.5t32 -14.5q64 0 150 110q44 59 99 154l5 3q5 0 13 -8.5t8 -15.5
q0 -9 -18 -44.5t-55 -92.5q-115 -181 -231 -181z" />
    <glyph glyph-name="Cdotaccent" unicode="&#x10a;" horiz-adv-x="414" 
d="M469 757q-18 0 -31 16.5t-13 39.5q0 20 12.5 41.5t30 31t33.5 9.5q20 0 30 -12t10 -29q0 -14 -8 -36t-27 -41.5t-37 -19.5zM190 -12q-73 0 -117.5 56.5t-44.5 147.5q0 60 21 130.5t56.5 137t83.5 127.5t101 99.5t95 38.5q49 0 82 -44l4 -2l4 3l23 41q8 10 18 10
q20 0 41.5 -24t21.5 -44q0 -6 -4 -10q-30 -38 -78 -128.5t-69 -155.5q-3 -7 -11 -7q-17 0 -32 16.5t-15 40.5q0 23 18 76.5t57 131.5l1 3q0 6 -15 6q-27 0 -65 -22t-87 -79t-84 -125t-52.5 -127t-17.5 -107q0 -55 23 -82t64 -27q70 0 143 67t140 184l4 3q6 0 15 -10t9 -18
l-1 -5q-22 -48 -61.5 -108t-90.5 -107.5t-96.5 -67t-83.5 -19.5z" />
    <glyph glyph-name="cdotaccent" unicode="&#x10b;" horiz-adv-x="312" 
d="M310 521q-18 0 -31 16t-13 39q0 21 12.5 42.5t30 30.5t33.5 9q20 0 30 -11.5t10 -29.5q0 -14 -8 -35.5t-27 -41t-37 -19.5zM127 0q-24 0 -50.5 11.5t-44 42.5t-17.5 72q0 37 15.5 90.5t54 121.5t85 108.5t79.5 40.5q13 0 26 -7t28 -35l4 -3l4 3q21 35 37 35t31 -14.5
t15 -29.5q0 -8 -9 -17q-15 -15 -47 -62t-56 -94q-4 -8 -12 -8q-9 0 -17.5 11t-8.5 29q0 37 44 113l2 5l-3 2q-11 0 -28.5 -11t-40 -39t-46.5 -71.5t-41 -90.5t-17 -78q0 -21 10 -35.5t32 -14.5q64 0 150 110q44 59 99 154l5 3q5 0 13 -8.5t8 -15.5q0 -9 -18 -44.5t-55 -92.5
q-115 -181 -231 -181z" />
    <glyph glyph-name="Ccaron" unicode="&#x10c;" horiz-adv-x="414" 
d="M454 752q-24 0 -47.5 47t-23.5 82q0 23 12 23t42 -34.5t41 -34.5q10 0 50 24t47 24h2q7 0 11.5 -6.5t4.5 -12.5q0 -7 -21 -30t-61 -52.5t-57 -29.5zM190 -12q-73 0 -117.5 56.5t-44.5 147.5q0 60 21 130.5t56.5 137t83.5 127.5t101 99.5t95 38.5q49 0 82 -44l4 -2l4 3
l23 41q8 10 18 10q20 0 41.5 -24t21.5 -44q0 -6 -4 -10q-30 -38 -78 -128.5t-69 -155.5q-3 -7 -11 -7q-17 0 -32 16.5t-15 40.5q0 23 18 76.5t57 131.5l1 3q0 6 -15 6q-27 0 -65 -22t-87 -79t-84 -125t-52.5 -127t-17.5 -107q0 -55 23 -82t64 -27q70 0 143 67t140 184l4 3
q6 0 15 -10t9 -18l-1 -5q-22 -48 -61.5 -108t-90.5 -107.5t-96.5 -67t-83.5 -19.5z" />
    <glyph glyph-name="ccaron" unicode="&#x10d;" horiz-adv-x="312" 
d="M295 515q-24 0 -47.5 47.5t-23.5 82.5q0 22 12 22t41.5 -34t41.5 -34q10 0 50 23.5t47 23.5h2q7 0 11.5 -6.5t4.5 -12.5q0 -7 -21 -30t-61 -52.5t-57 -29.5zM127 0q-24 0 -50.5 11.5t-44 42.5t-17.5 72q0 37 15.5 90.5t54 121.5t85 108.5t79.5 40.5q13 0 26 -7t28 -35
l4 -3l4 3q21 35 37 35t31 -14.5t15 -29.5q0 -8 -9 -17q-15 -15 -47 -62t-56 -94q-4 -8 -12 -8q-9 0 -17.5 11t-8.5 29q0 37 44 113l2 5l-3 2q-11 0 -28.5 -11t-40 -39t-46.5 -71.5t-41 -90.5t-17 -78q0 -21 10 -35.5t32 -14.5q64 0 150 110q44 59 99 154l5 3q5 0 13 -8.5
t8 -15.5q0 -9 -18 -44.5t-55 -92.5q-115 -181 -231 -181z" />
    <glyph glyph-name="Dcaron" unicode="&#x10e;" horiz-adv-x="576" 
d="M453 752q-24 0 -47.5 47t-23.5 82q0 23 13 23q11 0 41 -34.5t41 -34.5q10 0 50 24t48 24h1q7 0 11.5 -6.5t4.5 -12.5q0 -7 -21 -30t-61 -52.5t-57 -29.5zM266 -9q-89 0 -112 64l-4 3l-3 -3l-16 -41q-6 -15 -21 -15q-23 0 -45.5 20.5t-22.5 43.5q0 9 3 16q40 86 269 536
l1 4l-3 2h-3q-37 -12 -76 -32t-74 -51.5t-52 -62t-17 -49.5q0 -15 15 -26t15 -16q0 -15 -18 -15q-19 0 -38 15.5t-32.5 47.5t-13.5 59q0 20 10.5 46t38 52.5t71.5 51.5t104 43t114 23q6 1 7 4l5 11q7 13 23 13q13 0 30 -9t26 -21l7 -4q32 -8 63.5 -26t55.5 -48.5t38.5 -74
t14.5 -99.5q0 -73 -31 -155.5t-83 -152t-117 -112t-129 -42.5zM228 83q27 0 64 13.5t76.5 48t77.5 89t64 127t26 132.5q0 42 -13 72.5t-35.5 49t-44.5 18.5q-5 0 -7 -3q-47 -86 -134 -257t-134 -273l-1 -4l3 -3q24 -10 58 -10z" />
    <glyph glyph-name="dcaron" unicode="&#x10f;" horiz-adv-x="414" 
d="M619 587q-8 0 -17.5 7.5t-9.5 16.5q0 7 5 13q15 15 35.5 58.5t29.5 74.5q3 10 16 10q12 0 31 -14.5t19 -29.5q0 -28 -43 -82t-66 -54zM74 0q-30 0 -48.5 27.5t-18.5 72.5q0 51 23 118t60.5 128.5t83 101t86.5 39.5q26 0 53.5 -16t42.5 -37l4 -3l4 3q22 43 67.5 142
t53.5 119q4 13 19 13q10 0 25.5 -8t30.5 -25.5t15 -31.5q0 -12 -5 -18q-20 -24 -101.5 -187t-127.5 -265q-9 -20 -17 -45t-8 -33q0 -10 9 -10q6 0 17.5 10.5t31 36.5t43 62t40.5 64t33.5 56t17.5 29l5 2q8 0 17.5 -8t9.5 -14l-1 -4q-74 -138 -119.5 -201.5t-78.5 -90.5
t-56 -27q-26 0 -44 23t-18 59q0 30 6 59v1l-2 4l-3 -3q-56 -88 -89 -115.5t-61 -27.5zM114 85q18 0 86.5 93t133.5 204l1 3l-1 4q-17 23 -39 23q-20 0 -44.5 -22.5t-56 -70.5t-60.5 -119.5t-29 -100.5q0 -14 9 -14z" />
    <glyph glyph-name="Dcroat" unicode="&#x110;" horiz-adv-x="576" 
d="M454 701q32 -8 63.5 -26t55.5 -48.5t38.5 -74t14.5 -99.5q0 -73 -31 -155.5t-83 -152t-117 -112t-129 -42.5q-89 0 -112 64l-4 3l-3 -3l-16 -41q-6 -15 -21 -15q-23 0 -45.5 20.5t-22.5 43.5q0 9 3 16q14 30 95 191q-12 6 -22 23t-10 29q0 5 3.5 9t8.5 4l54 2
q71 146 140 278l1 4l-3 2h-3q-37 -12 -76 -32t-74 -51.5t-52 -62t-17 -49.5q0 -15 15 -26t15 -16q0 -15 -18 -15q-19 0 -38 15.5t-32.5 47.5t-13.5 59q0 20 10.5 46t38 52.5t71.5 51.5t104 43t114 23q6 1 7 4l5 11q7 13 23 13q13 0 30 -9t26 -21zM228 83q27 0 64 13.5
t76.5 48t77.5 89t64 127t26 132.5q0 42 -13 72.5t-35.5 49t-44.5 18.5q-5 0 -7 -3q-58 -108 -147 -283q54 6 63 6q13 0 28 -21.5t15 -37.5q0 -13 -12 -13l-131 -9q-53 -104 -84 -172l-1 -4l3 -3q24 -10 58 -10z" />
    <glyph glyph-name="dcroat" unicode="&#x111;" horiz-adv-x="414" 
d="M547 589q12 -2 25 -21t13 -33q0 -13 -12 -13q-21 0 -64 -4q-30 -58 -82.5 -165.5t-85.5 -179.5q-9 -20 -17 -45t-8 -33q0 -10 9 -10q6 0 17.5 10.5t31 36.5t43 62t40.5 64t33.5 56t17.5 29l5 2q8 0 17.5 -8t9.5 -14l-1 -4q-74 -138 -119.5 -201.5t-78.5 -90.5t-56 -27
q-26 0 -44 23t-18 59q0 30 6 59v1l-2 4l-3 -3q-56 -88 -89 -115.5t-61 -27.5q-30 0 -48.5 27.5t-18.5 72.5q0 51 23 118t60.5 128.5t83 101t86.5 39.5q26 0 53.5 -16t42.5 -37l4 -3l4 3l37 77l-43 -2q-13 0 -26.5 18.5t-13.5 32.5q0 12 10 12q17 0 105 7q44 94 52 116
q4 13 19 13q10 0 25.5 -8t30.5 -25.5t15 -31.5q0 -12 -5 -18q-6 -7 -23 -36zM335 385l-1 4q-17 23 -39 23q-20 0 -44.5 -22.5t-56 -70.5t-60.5 -119.5t-29 -100.5q0 -14 9 -14q18 0 86.5 93t133.5 204z" />
    <glyph glyph-name="Emacron" unicode="&#x112;" horiz-adv-x="443" 
d="M321 772q-5 0 -8 5.5t-3 13.5q0 18 13 38.5t27 20.5l105 -1q31 0 62.5 1.5t41.5 1.5q13 0 13 -20t-12 -39t-28 -19l-97 1zM186 -8q-26 0 -60 7t-65 31.5t-45 60t-14 68.5q0 25 11 53.5t39 59t68.5 54.5t74.5 36l4 4l-2 3q-63 61 -63 122q0 40 26 80.5t67.5 73t90 51.5
t90.5 19q70 0 91 -50l3 -2l7 7l23 33q6 6 15 6q17 0 37 -19t20 -37q0 -9 -7 -16q-21 -25 -39 -54t-30 -54t-19.5 -43t-15 -36.5t-9.5 -23.5q-4 -8 -12 -8q-17 0 -27 17.5t-10 42.5q0 48 42 134l1 3l-4 4q-12 4 -27 4q-48 0 -106.5 -27t-96 -67.5t-37.5 -70.5q0 -26 27.5 -45
t76.5 -19q30 0 55 5q17 2 27 -13.5t10 -35.5q0 -18 -8 -31t-22 -14q-35 -3 -84 -12.5t-97 -33t-73 -55.5t-25 -61q0 -31 25.5 -51t80.5 -20q60 0 115 26t107 79.5t103 142.5l4 3q6 0 14 -10t8 -18l-1 -5q-46 -100 -106 -168t-125.5 -99t-132.5 -31z" />
    <glyph glyph-name="emacron" unicode="&#x113;" horiz-adv-x="325" 
d="M205 535q-10 0 -10 20q0 19 13 39t27 20l104 -1l105 2q12 0 12 -20t-12 -39t-28 -19l-96 2q-29 0 -70 -2t-45 -2zM130 0q-23 0 -50 11.5t-46 43.5t-19 74q0 35 15 87.5t49 112.5t70.5 96.5t64 49t46.5 12.5q26 0 52.5 -15.5t38.5 -38.5t12 -43q0 -25 -12 -55t-39 -59.5
t-67 -52t-82 -22.5q-9 0 -18.5 2t-10.5 2q-4 0 -5 -4q-15 -43 -15 -76q0 -51 41 -51q31 0 76 30.5t85 80.5q51 66 90 134l4 3q6 0 14.5 -8.5t8.5 -16.5q0 -7 -16 -38t-50 -82q-33 -51 -73.5 -91.5t-81.5 -63t-82 -22.5zM164 250q20 0 48 21.5t56 66t28 69.5q0 13 -10 13
q-22 0 -61.5 -48t-69.5 -110l-2 -6q0 -6 11 -6z" />
    <glyph glyph-name="Edotaccent" unicode="&#x116;" horiz-adv-x="443" 
d="M440 757q-18 0 -31 16.5t-13 39.5q0 20 12.5 41.5t30 31t33.5 9.5q20 0 30 -12t10 -29q0 -14 -8 -36t-27 -41.5t-37 -19.5zM186 -8q-26 0 -60 7t-65 31.5t-45 60t-14 68.5q0 25 11 53.5t39 59t68.5 54.5t74.5 36l4 4l-2 3q-63 61 -63 122q0 40 26 80.5t67.5 73t90 51.5
t90.5 19q70 0 91 -50l3 -2l7 7l23 33q6 6 15 6q17 0 37 -19t20 -37q0 -9 -7 -16q-21 -25 -39 -54t-30 -54t-19.5 -43t-15 -36.5t-9.5 -23.5q-4 -8 -12 -8q-17 0 -27 17.5t-10 42.5q0 48 42 134l1 3l-4 4q-12 4 -27 4q-48 0 -106.5 -27t-96 -67.5t-37.5 -70.5q0 -26 27.5 -45
t76.5 -19q30 0 55 5q17 2 27 -13.5t10 -35.5q0 -18 -8 -31t-22 -14q-35 -3 -84 -12.5t-97 -33t-73 -55.5t-25 -61q0 -31 25.5 -51t80.5 -20q60 0 115 26t107 79.5t103 142.5l4 3q6 0 14 -10t8 -18l-1 -5q-46 -100 -106 -168t-125.5 -99t-132.5 -31z" />
    <glyph glyph-name="edotaccent" unicode="&#x117;" horiz-adv-x="325" 
d="M325 521q-18 0 -31 16t-13 39q0 13 7 32t26 34.5t42 15.5q15 0 27.5 -9t12.5 -32q0 -14 -8 -35.5t-26.5 -41t-36.5 -19.5zM130 0q-23 0 -50 11.5t-46 43.5t-19 74q0 35 15 87.5t49 112.5t70.5 96.5t64 49t46.5 12.5q26 0 52.5 -15.5t38.5 -38.5t12 -43q0 -25 -12 -55
t-39 -59.5t-67 -52t-82 -22.5q-9 0 -18.5 2t-10.5 2q-4 0 -5 -4q-15 -43 -15 -76q0 -51 41 -51q31 0 76 30.5t85 80.5q51 66 90 134l4 3q6 0 14.5 -8.5t8.5 -16.5q0 -7 -16 -38t-50 -82q-33 -51 -73.5 -91.5t-81.5 -63t-82 -22.5zM164 250q20 0 48 21.5t56 66t28 69.5
q0 13 -10 13q-22 0 -61.5 -48t-69.5 -110l-2 -6q0 -6 11 -6z" />
    <glyph glyph-name="Eogonek" unicode="&#x118;" horiz-adv-x="443" 
d="M547 709q17 0 37 -19t20 -37q0 -9 -7 -16q-21 -25 -39 -54t-30 -54t-19.5 -43t-15 -36.5t-9.5 -23.5q-4 -8 -12 -8q-17 0 -27 17.5t-10 42.5q0 48 42 134l1 3l-4 4q-12 4 -27 4q-48 0 -106.5 -27t-96 -67.5t-37.5 -70.5q0 -26 27.5 -45t76.5 -19q30 0 55 5q17 2 27 -13.5
t10 -35.5q0 -18 -8 -31t-22 -14q-35 -3 -84 -12.5t-97 -33t-73 -55.5t-25 -61q0 -31 25.5 -51t80.5 -20q60 0 115 26t107 79.5t103 142.5l4 3q6 0 14 -10t8 -18l-1 -5q-55 -123 -138.5 -202t-182.5 -93q-41 -38 -41 -71q0 -17 12 -26.5t31 -9.5q17 0 31.5 8t15.5 8q5 0 9 -5
t4 -11q0 -10 -13 -26t-42.5 -31t-58.5 -15q-33 0 -52.5 20t-19.5 48q0 20 15 47.5t55 60.5q-37 1 -70.5 13.5t-56.5 36.5t-34.5 54.5t-11.5 62.5q0 25 11 53.5t39 59t68.5 54.5t74.5 36l4 4l-2 3q-63 61 -63 122q0 40 26 80.5t67.5 73t90 51.5t90.5 19q70 0 91 -50l3 -2l7 7
l23 33q6 6 15 6z" />
    <glyph glyph-name="eogonek" unicode="&#x119;" horiz-adv-x="325" 
d="M410 322q6 0 14.5 -8.5t8.5 -16.5q0 -7 -16 -38t-50 -82q-41 -63 -96.5 -112.5t-110.5 -61.5q-35 -33 -35 -65q0 -17 11.5 -26t31.5 -9q17 0 31.5 7.5t15.5 7.5q2 0 7.5 -2.5t5.5 -12.5t-12.5 -26t-42 -31t-58.5 -15q-34 0 -53 20t-19 47q0 50 64 104q-41 8 -66.5 42
t-25.5 85q0 35 15 87.5t49 112.5t70.5 96.5t64 49t46.5 12.5q26 0 52.5 -15.5t38.5 -38.5t12 -43q0 -25 -12 -55t-39 -59.5t-67 -52t-82 -22.5q-9 0 -18.5 2t-10.5 2q-4 0 -5 -4q-15 -43 -15 -76q0 -51 41 -51q31 0 76 30.5t85 80.5q51 66 90 134zM155 262l-2 -6q0 -6 11 -6
q20 0 48 21.5t56 66t28 69.5q0 13 -10 13q-22 0 -61.5 -48t-69.5 -110z" />
    <glyph glyph-name="Ecaron" unicode="&#x11a;" horiz-adv-x="443" 
d="M425 752q-24 0 -47.5 47t-23.5 82q0 23 12 23t41.5 -34.5t41.5 -34.5q10 0 50 24t47 24h2q7 0 11.5 -6.5t4.5 -12.5q0 -7 -21 -30t-61 -52.5t-57 -29.5zM186 -8q-26 0 -60 7t-65 31.5t-45 60t-14 68.5q0 25 11 53.5t39 59t68.5 54.5t74.5 36l4 4l-2 3q-63 61 -63 122
q0 40 26 80.5t67.5 73t90 51.5t90.5 19q70 0 91 -50l3 -2l7 7l23 33q6 6 15 6q17 0 37 -19t20 -37q0 -9 -7 -16q-21 -25 -39 -54t-30 -54t-19.5 -43t-15 -36.5t-9.5 -23.5q-4 -8 -12 -8q-17 0 -27 17.5t-10 42.5q0 48 42 134l1 3l-4 4q-12 4 -27 4q-48 0 -106.5 -27
t-96 -67.5t-37.5 -70.5q0 -26 27.5 -45t76.5 -19q30 0 55 5q17 2 27 -13.5t10 -35.5q0 -18 -8 -31t-22 -14q-35 -3 -84 -12.5t-97 -33t-73 -55.5t-25 -61q0 -31 25.5 -51t80.5 -20q60 0 115 26t107 79.5t103 142.5l4 3q6 0 14 -10t8 -18l-1 -5q-46 -100 -106 -168
t-125.5 -99t-132.5 -31z" />
    <glyph glyph-name="ecaron" unicode="&#x11b;" horiz-adv-x="325" 
d="M309 515q-12 0 -28 17.5t-29.5 53t-13.5 59.5q0 22 13 22q12 0 41.5 -34t41.5 -34q10 0 50 23.5t47 23.5h1q7 0 11.5 -6.5t4.5 -12.5q0 -7 -20.5 -30t-60.5 -52.5t-58 -29.5zM130 0q-23 0 -50 11.5t-46 43.5t-19 74q0 35 15 87.5t49 112.5t70.5 96.5t64 49t46.5 12.5
q26 0 52.5 -15.5t38.5 -38.5t12 -43q0 -25 -12 -55t-39 -59.5t-67 -52t-82 -22.5q-9 0 -18.5 2t-10.5 2q-4 0 -5 -4q-15 -43 -15 -76q0 -51 41 -51q31 0 76 30.5t85 80.5q51 66 90 134l4 3q6 0 14.5 -8.5t8.5 -16.5q0 -7 -16 -38t-50 -82q-33 -51 -73.5 -91.5t-81.5 -63
t-82 -22.5zM164 250q20 0 48 21.5t56 66t28 69.5q0 13 -10 13q-22 0 -61.5 -48t-69.5 -110l-2 -6q0 -6 11 -6z" />
    <glyph glyph-name="Gbreve" unicode="&#x11e;" horiz-adv-x="495" 
d="M482 755q-41 0 -65 24.5t-24 62.5q0 34 18 53.5t38 19.5q17 0 17 -15l-2 -32q0 -18 10 -30.5t27 -12.5q16 0 36 13t40 40q7 9 17 14.5t17 5.5q8 0 13.5 -5.5t5.5 -14.5q0 -26 -26.5 -58.5t-60 -48.5t-61.5 -16zM342 -60q-20 0 -42 16t-22 33q0 7 3 11q5 8 19.5 31.5
t27.5 46.5t24 48l2 8l-3 3q-5 -2 -8 -7q-42 -61 -89.5 -93.5t-88.5 -32.5q-60 0 -100 54t-40 138q0 58 21 126.5t56.5 134.5t86 127.5t109 100.5t111.5 39q25 0 48.5 -10.5t53.5 -48.5l4 -3l3 3l18 28q7 10 17 10q18 0 38 -24.5t20 -43.5q0 -9 -4 -12q-21 -21 -54 -73
t-72 -141q-3 -7 -12 -7q-14 0 -27.5 18.5t-13.5 42.5q0 23 19 70.5t45 86.5l1 4q0 5 -11 9.5t-23 4.5q-29 0 -66 -15.5t-79.5 -53.5t-86 -99.5t-74 -141.5t-30.5 -145q0 -49 18 -77t51 -28q32 0 66 25.5t66 67t63 92.5l2 3q-2 3 -5 3l-99 -17q-12 0 -26 19.5t-14 33.5
q0 9 8 9q4 0 20 1t40.5 2.5t59.5 4.5l101 10q13 0 30 -20.5t17 -32.5q0 -8 -8 -8l-50 1l-6 -3l3 -4q17 -12 20.5 -22t3.5 -13q0 -4 -6 -12q-29 -51 -67 -140.5t-46 -121.5q-3 -16 -23 -16z" />
    <glyph glyph-name="gbreve" unicode="&#x11f;" horiz-adv-x="388" 
d="M338 518q-30 0 -51.5 14t-29.5 34.5t-8 38.5q0 34 18 54t38 20q18 0 18 -15l-3 -32q0 -19 10 -31t27 -12q35 0 77 53q15 19 34 19q7 0 12.5 -5t5.5 -14q0 -18 -16.5 -45.5t-54 -53t-77.5 -25.5zM43 -209q-26 0 -57 10.5t-53.5 33.5t-22.5 42q0 10 8 20.5t17 10.5
q13 0 21 -20q6 -11 20.5 -21.5t35.5 -10.5q55 0 110 70.5t113 212.5l2 7l-3 4l-3 -3q-57 -76 -78 -98.5t-41 -35.5t-39 -13q-32 0 -49 27.5t-17 72.5q0 51 23 118t60.5 128.5t83 101t86.5 39.5q25 0 50.5 -14t41.5 -34l4 -2l3 2l17 40q4 10 18 10q21 0 45 -20t24 -42
q0 -9 -4 -17q-49 -92 -112 -238.5t-74 -172.5q-44 -99 -103 -153.5t-127 -54.5zM114 84q11 0 43 37t86 117t92 145v3l-1 4q-20 24 -40 24q-33 0 -78 -61.5t-78 -143t-33 -111.5q0 -14 9 -14z" />
    <glyph glyph-name="Gdotaccent" unicode="&#x120;" horiz-adv-x="495" 
d="M482 757q-18 0 -31 16.5t-13 39.5q0 20 12.5 41.5t30 31t33.5 9.5q20 0 30 -12t10 -29q0 -22 -14 -48t-30 -37.5t-28 -11.5zM342 -60q-20 0 -42 16t-22 33q0 7 3 11q5 8 19.5 31.5t27.5 46.5t24 48l2 8l-3 3q-5 -2 -8 -7q-42 -61 -89.5 -93.5t-88.5 -32.5q-60 0 -100 54
t-40 138q0 58 21 126.5t56.5 134.5t86 127.5t109 100.5t111.5 39q25 0 48.5 -10.5t53.5 -48.5l4 -3l3 3l18 28q7 10 17 10q18 0 38 -24.5t20 -43.5q0 -9 -4 -12q-21 -21 -54 -73t-72 -141q-3 -7 -12 -7q-14 0 -27.5 18.5t-13.5 42.5q0 23 19 70.5t45 86.5l1 4q0 5 -11 9.5
t-23 4.5q-29 0 -66 -15.5t-79.5 -53.5t-86 -99.5t-74 -141.5t-30.5 -145q0 -49 18 -77t51 -28q32 0 66 25.5t66 67t63 92.5l2 3q-2 3 -5 3l-99 -17q-12 0 -26 19.5t-14 33.5q0 9 8 9q4 0 20 1t40.5 2.5t59.5 4.5l101 10q13 0 30 -20.5t17 -32.5q0 -8 -8 -8l-50 1q-3 0 -5 -3
l2 -4q17 -12 20.5 -22t3.5 -13q0 -4 -6 -12q-29 -51 -67 -140.5t-46 -121.5q-3 -16 -23 -16z" />
    <glyph glyph-name="gdotaccent" unicode="&#x121;" horiz-adv-x="388" 
d="M338 521q-17 0 -30 16t-13 39q0 13 7 32t26 34.5t42 15.5q20 0 30 -11.5t10 -29.5q0 -14 -8 -35.5t-27 -41t-37 -19.5zM43 -209q-26 0 -57 10.5t-53.5 33.5t-22.5 42q0 10 8 20.5t17 10.5q13 0 21 -20q6 -11 20.5 -21.5t35.5 -10.5q55 0 110 70.5t113 212.5l2 7l-3 4
l-3 -3q-57 -76 -78 -98.5t-41 -35.5t-39 -13q-32 0 -49 27.5t-17 72.5q0 51 23 118t60.5 128.5t83 101t86.5 39.5q25 0 50.5 -14t41.5 -34l4 -2l3 2l17 40q4 10 18 10q21 0 45 -20t24 -42q0 -9 -4 -17q-49 -92 -112 -238.5t-74 -172.5q-44 -99 -103 -153.5t-127 -54.5z
M114 84q11 0 43 37t86 117t92 145v3l-1 4q-20 24 -40 24q-33 0 -78 -61.5t-78 -143t-33 -111.5q0 -14 9 -14z" />
    <glyph glyph-name="Gcommaaccent" unicode="&#x122;" horiz-adv-x="495" 
d="M342 -60q-20 0 -42 16t-22 33q0 7 3 11q5 8 19.5 31.5t27.5 46.5t24 48l2 8l-3 3q-5 -2 -8 -7q-42 -61 -89.5 -93.5t-88.5 -32.5q-60 0 -100 54t-40 138q0 58 21 126.5t56.5 134.5t86 127.5t109 100.5t111.5 39q25 0 48.5 -10.5t53.5 -48.5l4 -3l3 3l18 28q7 10 17 10
q18 0 38 -24.5t20 -43.5q0 -9 -4 -12q-21 -21 -54 -73t-72 -141q-3 -7 -12 -7q-14 0 -27.5 18.5t-13.5 42.5q0 23 19 70.5t45 86.5l1 4q0 5 -11 9.5t-23 4.5q-29 0 -66 -15.5t-79.5 -53.5t-86 -99.5t-74 -141.5t-30.5 -145q0 -49 18 -77t51 -28q32 0 66 25.5t66 67t63 92.5
l2 3q-2 3 -5 3l-99 -17q-12 0 -26 19.5t-14 33.5q0 9 8 9q4 0 20 1t40.5 2.5t59.5 4.5l101 10q13 0 30 -20.5t17 -32.5q0 -8 -8 -8l-50 1q-3 0 -5 -3l2 -4q17 -12 20.5 -22t3.5 -13q0 -4 -6 -12q-29 -51 -67 -140.5t-46 -121.5q-3 -16 -23 -16zM123 -211q-10 0 -24 8.5
t-14 20.5q0 6 4 11q11 15 20.5 36.5t19.5 49t13 34.5q5 11 18 11q9 0 23.5 -5.5t27.5 -18t13 -25.5q0 -9 -15 -35.5t-42 -56.5t-44 -30z" />
    <glyph glyph-name="gcommaaccent" unicode="&#x123;" horiz-adv-x="388" 
d="M364 517q-9 0 -23.5 5.5t-27.5 18t-13 25.5q0 9 14.5 35.5t41.5 56.5t45 30q10 0 23.5 -8.5t13.5 -20.5q0 -5 -3 -11q-20 -26 -53 -120q-5 -11 -18 -11zM43 -209q-26 0 -57 10.5t-53.5 33.5t-22.5 42q0 10 8 20.5t17 10.5q13 0 21 -20q6 -11 20.5 -21.5t35.5 -10.5
q55 0 110 70.5t113 212.5l2 7l-3 4l-3 -3q-57 -76 -78 -98.5t-41 -35.5t-39 -13q-32 0 -49 27.5t-17 72.5q0 51 23 118t60.5 128.5t83 101t86.5 39.5q25 0 50.5 -14t41.5 -34l4 -2l3 2l17 40q4 10 18 10q21 0 45 -20t24 -42q0 -9 -4 -17q-49 -92 -112 -238.5t-74 -172.5
q-44 -99 -103 -153.5t-127 -54.5zM114 84q11 0 43 37t86 117t92 145v3l-1 4q-20 24 -40 24q-33 0 -78 -61.5t-78 -143t-33 -111.5q0 -14 9 -14z" />
    <glyph glyph-name="Hbar" unicode="&#x126;" horiz-adv-x="641" 
d="M192 -34q-15 0 -34.5 12.5t-28.5 28t-9 26.5q0 9 5 19q12 19 80 147v3q0 2 -1.5 3t-3.5 0l-39 -3q-13 0 -26 8t-21.5 24.5t-8.5 29.5q0 11 9 11q51 0 127 8q9 1 12 7l34 65l1 3q-1 3 -4 3l-19 -1q-13 0 -26.5 7t-22 22t-8.5 27q0 11 9 11q25 0 105 7q5 0 6 4
q56 121 56 172q0 45 -45 45q-25 0 -62.5 -16t-85 -55t-76.5 -81.5t-29 -67.5q0 -14 13.5 -24t15 -12.5t1.5 -4.5q0 -15 -18 -15q-19 0 -37.5 15.5t-32 47t-13.5 58.5q0 39 28.5 79t74.5 72.5t97 51.5t92 19q43 0 78.5 -20.5t59 -57.5t23.5 -81q0 -42 -28 -113l-1 -2
q0 -4 6 -4l143 12q3 0 6 4q108 230 115 262q4 16 20 16q10 0 26.5 -8t32 -25t15.5 -32q0 -6 -3 -12q-13 -23 -67.5 -134t-109.5 -228l-1 -3l3 -5q8 -7 14 -16.5t6 -14.5q0 -9 -7 -9l-34 -1q-5 0 -6 -4q-88 -191 -103 -232q-4 -15 -21 -15q-21 0 -43 20t-22 43q0 9 4 17
q15 29 74 155l1 3q-1 3 -4 3q-53 -5 -154 -18q-5 -1 -6 -5q-94 -178 -117 -242q-3 -9 -15 -9zM371 295l140 12q6 1 9.5 3t7.5 11l30 64l1 3q-1 3 -4 3l-145 -15q-3 0 -7 -4l-37 -71v-3q1 -4 5 -3z" />
    <glyph glyph-name="hbar" unicode="&#x127;" horiz-adv-x="408" 
d="M275 0q-18 0 -35 13t-24.5 35t-7.5 43q0 36 18.5 84t43.5 93.5t72 123.5l1 3l-3 3l-5 -3q-59 -56 -149.5 -174t-139.5 -207q-3 -14 -19 -14q-18 0 -36.5 17.5t-18.5 41.5q0 10 3 20q27 70 129 294t155 332q6 10 19 10q22 0 46.5 -21.5t24.5 -42.5q0 -8 -5 -16
q-16 -21 -72.5 -131t-120.5 -246l-1 -2q0 -3 4 -4l6 3q66 92 133.5 162t95.5 70q24 0 44.5 -25t20.5 -54q0 -10 -13 -32q-43 -69 -89 -163t-46 -118q0 -10 9 -10q6 0 18 10.5t32 36.5t44 62t39 60.5t26 42t19 31.5t9 15l4 2q8 0 18 -8t10 -14l-1 -4q-49 -91 -95 -162.5
t-89.5 -114t-73.5 -42.5z" />
    <glyph glyph-name="Imacron" unicode="&#x12a;" horiz-adv-x="385" 
d="M265 772q-11 0 -11 19q0 18 13 38.5t27 20.5l104 -1q31 0 62.5 1.5t42.5 1.5q12 0 12 -20t-12 -39t-28 -19l-96 1zM223 -25q-4 -9 -16 -9q-9 0 -25 7.5t-30.5 24.5t-14.5 35q0 12 5 19q11 20 52 101t64 125q133 253 133 333q0 47 -46 47q-25 0 -62 -15.5t-83.5 -53.5
t-74.5 -79.5t-28 -66.5q1 -14 16 -25t15 -17q0 -15 -18 -15q-19 0 -38.5 16t-33 48t-13.5 59q0 29 19 64.5t66.5 74t105 60t98.5 21.5q35 0 73.5 -17.5t66 -59t27.5 -86.5q0 -36 -21 -94t-92 -197q-8 -17 -45.5 -90.5t-63 -126t-36.5 -83.5z" />
    <glyph glyph-name="imacron" unicode="&#x12b;" horiz-adv-x="195" 
d="M146 535q-5 0 -8 6t-3 14q0 18 13 38.5t27 20.5l105 -1l105 2q12 0 12 -20t-12 -39t-28 -19l-96 2q-29 0 -70 -2t-45 -2zM65 0q-29 0 -49.5 25.5t-20.5 61.5q0 48 34 125q8 19 23 51t31.5 66t30 60.5l27 53t13.5 27.5q5 11 19 11q10 0 26.5 -7.5t32 -23.5t15.5 -28
q0 -9 -6 -17q-2 -2 -9 -12.5t-34.5 -57.5t-65 -127t-37.5 -110q0 -13 10 -13q6 0 17.5 10.5t31 36.5t43 62t40.5 64t33.5 56t17.5 29l5 2q8 0 17.5 -8t9.5 -14l-1 -4q-74 -138 -119.5 -201.5t-78.5 -90.5t-56 -27z" />
    <glyph glyph-name="Iogonek" unicode="&#x12e;" horiz-adv-x="385" 
d="M218 -31q-43 -40 -43 -74q0 -16 11.5 -25.5t30.5 -9.5q17 0 31.5 7.5t16.5 7.5q5 0 8.5 -4.5t3.5 -10.5q0 -10 -12.5 -26t-42 -31t-58.5 -15q-34 0 -53 20t-19 47q0 23 18.5 54t66.5 67q-16 9 -28 25t-12 32q0 12 5 19q11 20 52 101t64 125q133 253 133 333q0 47 -46 47
q-25 0 -62 -15.5t-83.5 -53.5t-74.5 -79.5t-28 -66.5q1 -14 16 -25t15 -17q0 -15 -18 -15q-19 0 -38.5 16t-33 48t-13.5 59q0 29 19 64.5t66.5 74t105 60t98.5 21.5q35 0 73.5 -17.5t66 -59t27.5 -86.5q0 -36 -21 -94t-92 -197q-8 -17 -45.5 -90.5t-63 -126t-36.5 -83.5z
" />
    <glyph glyph-name="iogonek" unicode="&#x12f;" horiz-adv-x="195" 
d="M261 535q-19 0 -34.5 19t-15.5 42q0 25 14 49.5t33.5 35t36.5 10.5q25 0 36.5 -12.5t11.5 -33.5q0 -25 -15.5 -54t-34 -42.5t-32.5 -13.5zM293 345q8 0 17.5 -8t9.5 -14l-1 -4l-2 -4t-36.5 -67t-88.5 -140t-96 -99q-41 -38 -41 -71q0 -17 11.5 -26t31.5 -9q17 0 31.5 7.5
t15.5 7.5q2 0 7.5 -2.5t5.5 -12.5t-12.5 -26t-42 -31t-58.5 -15q-34 0 -53 20t-19 47q0 20 14.5 48t53.5 59q-20 9 -33 32t-13 50q0 48 34 125q8 19 23 51t31.5 66t30 60.5l27 53t13.5 27.5q5 11 19 11q10 0 26.5 -7.5t32 -23.5t15.5 -28q0 -9 -6 -17q-2 -2 -9 -12.5
t-34.5 -57.5t-65 -127t-37.5 -110q0 -13 10 -13q6 0 17.5 10.5t31 36.5t43 62t40.5 64t33.5 56t17.5 29z" />
    <glyph glyph-name="Idotaccent" unicode="&#x130;" horiz-adv-x="385" 
d="M384 757q-18 0 -31 16.5t-13 39.5q0 20 12.5 41.5t30 31t32.5 9.5q20 0 30 -11.5t10 -29.5q0 -3 -1 -11t-8 -27.5t-25.5 -39t-36.5 -19.5zM223 -25q-4 -9 -16 -9q-9 0 -25 7.5t-30.5 24.5t-14.5 35q0 12 5 19q11 20 52 101t64 125q133 253 133 333q0 47 -46 47
q-25 0 -62 -15.5t-83.5 -53.5t-74.5 -79.5t-28 -66.5q1 -14 16 -25t15 -17q0 -15 -18 -15q-19 0 -38.5 16t-33 48t-13.5 59q0 29 19 64.5t66.5 74t105 60t98.5 21.5q35 0 73.5 -17.5t66 -59t27.5 -86.5q0 -36 -21 -94t-92 -197q-8 -17 -45.5 -90.5t-63 -126t-36.5 -83.5z
" />
    <glyph glyph-name="dotlessi" unicode="&#x131;" horiz-adv-x="195" 
d="M65 0q-29 0 -49.5 25.5t-20.5 61.5q0 48 34 125q8 19 23 51t31.5 66t30 60.5l27 53t13.5 27.5q5 11 19 11q10 0 26.5 -7.5t32 -23.5t15.5 -28q0 -9 -6 -17q-2 -2 -9 -12.5t-34.5 -57.5t-65 -127t-37.5 -110q0 -13 10 -13q6 0 17.5 10.5t31 36.5t43 62t40.5 64t33.5 56
t17.5 29l5 2q8 0 17.5 -8t9.5 -14l-1 -4q-74 -138 -119.5 -201.5t-78.5 -90.5t-56 -27z" />
    <glyph glyph-name="Kcommaaccent" unicode="&#x136;" horiz-adv-x="606" 
d="M180 -11q-20 0 -44 22t-24 45q0 12 5 19q31 53 106 201q93 184 113.5 245.5t20.5 96.5q0 14 -4 24.5t-22 10.5q-35 0 -95 -44t-104.5 -103.5t-44.5 -90.5q0 -14 13.5 -24t15 -12.5t1.5 -4.5q0 -15 -18 -15q-19 0 -38 15.5t-32.5 47.5t-13.5 58q0 39 28.5 82t74 79
t96 57.5t90.5 21.5q46 0 79.5 -28t46 -64.5t12.5 -63.5q0 -31 -13 -74.5t-59 -133.5v-2q0 -5 4 -5l3 2q45 35 108.5 96.5t127.5 136t91 122.5q3 6 11 6q16 0 36 -23.5t20 -45.5q0 -24 -37 -73t-123.5 -131t-185.5 -154l-4 -4l1 -3q6 -41 18.5 -91t33 -84t41.5 -34q9 0 19 8
t15 8q4 0 7 -3t3 -7q0 -7 -12 -25t-38.5 -36.5t-53.5 -18.5q-37 0 -65 29.5t-45.5 88t-17.5 144.5q0 3 -3 5q-4 -1 -5 -4q-102 -196 -124 -259q-3 -10 -15 -10zM237 -211q-10 0 -23.5 9t-13.5 20q0 6 4 11q8 11 18 31.5t34 88.5q5 11 19 11q8 0 22.5 -5.5t27.5 -18t13 -25.5
q0 -9 -14.5 -35.5t-41.5 -56.5t-45 -30z" />
    <glyph glyph-name="kcommaaccent" unicode="&#x137;" horiz-adv-x="393" 
d="M29 0q-19 0 -38.5 18t-19.5 42q0 11 4 19q36 98 283 626q6 11 19 11q21 0 46 -22t25 -43q0 -8 -5 -16q-19 -27 -69 -123.5t-93 -188.5l-2 -5l3 -3l6 5q125 167 183 167q14 0 27.5 -11t21 -35t7.5 -46q0 -40 -26 -82.5t-65.5 -74t-88.5 -46.5q-4 -2 -4 -6q1 -20 8 -46.5
t17.5 -40.5t20.5 -14q27 0 82 74.5t116 183.5l5 2q8 0 17.5 -8t9.5 -14l-1 -4q-11 -25 -40 -76.5t-68 -107t-82 -95t-78 -39.5q-17 0 -35 11.5t-35 39t-25.5 65t-8.5 65.5q0 7 -10 7l-4 -3q-53 -87 -83 -172q-3 -14 -20 -14zM164 223q26 0 58 22t63 55t51.5 65.5t20.5 46.5
q0 8 -8 8q-20 0 -75 -54t-116 -138l-1 -3zM65 -211q-10 0 -24 8.5t-14 20.5q0 6 4 11q11 15 20.5 36.5t19.5 49t13 34.5q3 11 18 11q8 0 22.5 -5.5t27.5 -18t13 -25.5q0 -9 -14.5 -35.5t-41.5 -56.5t-44 -30z" />
    <glyph glyph-name="Lacute" unicode="&#x139;" horiz-adv-x="514" 
d="M492 765q-15 0 -29 12.5t-14 23.5q0 4 3.5 8t8.5 6q23 9 69 37.5t69 52.5q5 4 13 4q12 0 29.5 -20.5t17.5 -38.5q0 -21 -65 -53t-102 -32zM399 -68q-9 0 -11 12q-5 25 -79 72.5t-138 69.5l-3 1l-5 -2q-43 -38 -87 -38q-35 0 -58 16.5t-23 41.5q0 13 9.5 26.5t34.5 20.5
t60 7l20 -1q4 0 6 4q27 47 81.5 183.5t85 196t60 99t60.5 58t61 18.5q18 0 37 -9t37 -40l4 -3l4 3q10 21 24 42q8 11 18 11q9 0 23.5 -8.5t27 -26.5t12.5 -32q0 -8 -4 -12q-31 -42 -79 -133t-71 -156q-3 -10 -13 -10q-15 0 -31.5 19t-16.5 43q0 25 17 72t65 144l1 4
q0 5 -7 5q-48 0 -91.5 -53t-104 -196t-80 -178.5t-26.5 -47.5l-1 -3l5 -4q99 -18 168 -54t69 -74q0 -18 -13 -41.5t-26.5 -35t-21.5 -11.5z" />
    <glyph glyph-name="lacute" unicode="&#x13a;" horiz-adv-x="278" 
d="M364 798q-15 0 -29 13t-14 24q0 9 12 13q15 6 46.5 24.5t55.5 36t36 29.5q5 5 13 5q12 0 29.5 -21t17.5 -38q0 -21 -65 -53.5t-102 -32.5zM111 0q-16 0 -36.5 11t-36.5 39t-16 61q0 35 18.5 104t66 175t101.5 191t100 129.5t81 44.5q25 0 46 -21t21 -52q0 -29 -22.5 -84
t-76.5 -141t-117 -162.5t-104 -111.5l-7 -11q-14 -36 -14 -65q0 -32 24 -32q35 0 96.5 68.5t133.5 191.5l6 3q5 0 13 -10t8 -17l-1 -7q-29 -63 -84.5 -142t-106.5 -120.5t-93 -41.5zM166 276q6 2 9 6q38 45 92 123.5t97.5 161t43.5 109.5q0 11 -7 11q-16 0 -54.5 -54.5
t-90 -150t-91.5 -197.5l-2 -5z" />
    <glyph glyph-name="Lcommaaccent" unicode="&#x13b;" horiz-adv-x="514" 
d="M399 -68q-9 0 -11 12q-5 25 -79 72.5t-138 69.5l-3 1l-5 -2q-43 -38 -87 -38q-35 0 -58 16.5t-23 41.5q0 13 9.5 26.5t34.5 20.5t60 7l20 -1q4 0 6 4q27 47 81.5 183.5t85 196t60 99t60.5 58t61 18.5q18 0 37 -9t37 -40l4 -3l4 3q10 21 24 42q8 11 18 11q9 0 23.5 -8.5
t27 -26.5t12.5 -32q0 -8 -4 -12q-31 -42 -79 -133t-71 -156q-3 -10 -13 -10q-15 0 -31.5 19t-16.5 43q0 25 17 72t65 144l1 4q0 5 -7 5q-48 0 -91.5 -53t-104 -196t-80 -178.5t-26.5 -47.5l-1 -3l5 -4q99 -18 168 -54t69 -74q0 -18 -13 -41.5t-26.5 -35t-21.5 -11.5z
M153 -184q-10 0 -24 8.5t-14 20.5q0 7 4 11q11 15 20.5 36t19.5 48t13 36q4 11 18 11q20 0 42 -15.5t22 -33.5q0 -9 -15 -35.5t-42 -56.5t-44 -30z" />
    <glyph glyph-name="lcommaaccent" unicode="&#x13c;" horiz-adv-x="278" 
d="M111 0q-16 0 -36.5 11t-36.5 39t-16 61q0 35 18.5 104t66 175t101.5 191t100 129.5t81 44.5q25 0 46 -21t21 -52q0 -29 -22.5 -84t-76.5 -141t-117 -162.5t-104 -111.5l-7 -11q-14 -36 -14 -65q0 -32 24 -32q35 0 96.5 68.5t133.5 191.5l6 3q5 0 13 -10t8 -17l-1 -7
q-29 -63 -84.5 -142t-106.5 -120.5t-93 -41.5zM166 276q6 2 9 6q38 45 92 123.5t97.5 161t43.5 109.5q0 11 -7 11q-16 0 -54.5 -54.5t-90 -150t-91.5 -197.5l-2 -5zM34 -211q-10 0 -24 8.5t-14 20.5q0 6 4 11q11 15 20.5 36.5t19.5 49t13 34.5q3 11 18 11q19 0 41.5 -16
t22.5 -33q0 -9 -15 -35.5t-42 -56.5t-44 -30z" />
    <glyph glyph-name="Lcaron" unicode="&#x13d;" horiz-adv-x="514" 
d="M696 569q-8 0 -17.5 7.5t-9.5 16.5q0 7 6 12q10 10 27 45t37 89q3 10 16 10q12 0 31 -14.5t19 -29.5q0 -21 -23.5 -56t-47.5 -57.5t-38 -22.5zM399 -68q-9 0 -11 12q-5 25 -79 72.5t-138 69.5l-3 1l-5 -2q-43 -38 -87 -38q-35 0 -58 16.5t-23 41.5q0 13 9.5 26.5
t34.5 20.5t60 7l20 -1q4 0 6 4q27 47 81.5 183.5t85 196t60 99t60.5 58t61 18.5q18 0 37 -9t37 -40l4 -3l4 3q10 21 24 42q8 11 18 11q9 0 23.5 -8.5t27 -26.5t12.5 -32q0 -8 -4 -12q-31 -42 -79 -133t-71 -156q-3 -10 -13 -10q-15 0 -31.5 19t-16.5 43q0 25 17 72t65 144
l1 4q0 5 -7 5q-48 0 -91.5 -53t-104 -196t-80 -178.5t-26.5 -47.5l-1 -3l5 -4q99 -18 168 -54t69 -74q0 -18 -13 -41.5t-26.5 -35t-21.5 -11.5z" />
    <glyph glyph-name="lcaron" unicode="&#x13e;" horiz-adv-x="278" 
d="M496 578q-8 0 -17.5 7.5t-9.5 16.5q0 7 6 13q14 14 34.5 58t29.5 75q3 10 16 10q12 0 31 -14.5t19 -29.5q0 -21 -23.5 -56t-47.5 -57.5t-38 -22.5zM111 0q-16 0 -36.5 11t-36.5 39t-16 61q0 35 18.5 104t66 175t101.5 191t100 129.5t81 44.5q25 0 46 -21t21 -52
q0 -29 -22.5 -84t-76.5 -141t-117 -162.5t-104 -111.5l-7 -11q-14 -36 -14 -65q0 -32 24 -32q35 0 96.5 68.5t133.5 191.5l6 3q5 0 13 -10t8 -17l-1 -7q-29 -63 -84.5 -142t-106.5 -120.5t-93 -41.5zM166 276q6 2 9 6q38 45 92 123.5t97.5 161t43.5 109.5q0 11 -7 11
q-16 0 -54.5 -54.5t-90 -150t-91.5 -197.5l-2 -5z" />
    <glyph glyph-name="Lslash" unicode="&#x141;" horiz-adv-x="514" 
d="M597 721q9 0 23.5 -8.5t27 -26.5t12.5 -32q0 -8 -4 -12q-31 -42 -79 -133t-71 -156q-3 -10 -13 -10q-15 0 -31.5 19t-16.5 43q0 25 17 72t65 144l1 4q0 5 -7 5q-45 0 -89 -50t-112 -213q30 15 37 15q13 0 28.5 -14t15.5 -24q0 -7 -10 -13l-107 -49q-39 -84 -65 -127
l-1 -3l5 -4q99 -18 168 -54t69 -74q0 -18 -13 -41.5t-26.5 -35t-21.5 -11.5q-9 0 -11 12q-5 25 -79 72.5t-138 69.5l-3 1l-5 -2q-43 -38 -87 -38q-35 0 -58 16.5t-23 41.5q0 13 9.5 26.5t34.5 20.5t60 7l20 -1q4 0 6 4q18 32 36 72q-16 2 -32.5 17.5t-16.5 26.5q0 7 7 10
l74 24q46 115 64 157t39.5 83t46.5 77t58 62t72 26q18 0 37 -9t37 -40l4 -3l4 3q10 21 24 42q8 11 18 11z" />
    <glyph glyph-name="lslash" unicode="&#x142;" horiz-adv-x="276" 
d="M111 0q-16 0 -36.5 11t-36.5 39t-16 61q0 71 58 217l1 3q-2 3 -5 3q-18 0 -36.5 16t-18.5 28q0 7 7 10l87 27q4 2 5 5q28 59 73.5 137.5t100 138t95.5 59.5q25 0 46 -21t21 -52q0 -52 -59 -160l-1 -3l3 -5q10 -5 19.5 -16t9.5 -18q0 -8 -10 -13q-23 -11 -71 -31l-5 -4
q-50 -75 -107 -144.5t-99 -104.5l-7 -11q-14 -36 -14 -65q0 -32 24 -32q35 0 96.5 68.5t133.5 191.5l6 3q5 0 13 -10t8 -17l-1 -7q-29 -63 -84.5 -142t-106.5 -120.5t-93 -41.5zM251 462h2q42 16 66 28q4 1 5 5q37 61 60.5 111.5t23.5 69.5q0 11 -7 11q-15 0 -56 -57
t-96 -162l-1 -4zM166 276q6 2 9 6q36 43 85 112l1 4l-3 3l-3 -1l-46 -18q-4 -2 -5 -5q-20 -43 -39 -92l-2 -5z" />
    <glyph glyph-name="Nacute" unicode="&#x143;" horiz-adv-x="583" 
d="M562 765q-15 0 -29 12.5t-14 23.5q0 4 3.5 8t8.5 6q23 9 69 37.5t69 52.5q5 4 13 4q12 0 29.5 -20.5t17.5 -38.5q0 -21 -65 -53t-102 -32zM28 -18q-26 0 -47 16.5t-29 36t-8 32.5t9 13q2 0 11.5 -5.5t20.5 -5.5q70 0 176.5 177.5t222.5 464.5q5 12 20 12q10 0 28 -8
t35.5 -27.5t17.5 -40.5q0 -13 -3 -21q-4 -17 -17.5 -185.5t-19.5 -230.5v-2q0 -3 3 -4l5 5q66 141 137.5 307t76.5 191q4 16 20 16q10 0 26 -8t31.5 -25t15.5 -31q0 -6 -5 -13q-16 -21 -72 -135t-131.5 -279t-93.5 -218q-9 -20 -30 -20q-20 0 -43.5 19.5t-33 43t-7.5 39.5
l31 406l1 3l-3 3l-3 -3q-77 -183 -128 -285.5t-106.5 -170t-107.5 -67.5z" />
    <glyph glyph-name="nacute" unicode="&#x144;" horiz-adv-x="405" 
d="M283 528q-15 0 -29 13t-14 24q0 8 12 13q22 9 68.5 38t69.5 52q5 5 13 5q12 0 29.5 -21t17.5 -38q0 -21 -65 -53.5t-102 -32.5zM273 0q-17 0 -34 13t-24.5 35t-7.5 43q0 29 13 67t34.5 80.5t88.5 155.5l1 3l-3 3l-6 -4q-61 -55 -157 -180.5t-137 -201.5q-4 -13 -18 -13
q-18 0 -36.5 18t-18.5 42q0 9 5 24q14 37 83 188t93 199q6 11 19 11q19 0 40 -19t21 -39q0 -10 -5 -18q-30 -42 -89 -167l-1 -6l2 -3q6 3 9 9q70 98 143.5 172.5t105.5 74.5q23 0 41 -25t18 -54q0 -10 -13 -32q-43 -69 -89 -163t-46 -118q0 -3 2 -6.5t6 -3.5q6 0 18 10.5
t32 36.5t44 62t39 60.5t26 42t19 31.5t9 15l5 2q7 0 17 -8t10 -14l-1 -4q-49 -91 -95 -162.5t-89.5 -114t-73.5 -42.5z" />
    <glyph glyph-name="Ncommaaccent" unicode="&#x145;" horiz-adv-x="583" 
d="M28 -18q-26 0 -47 16.5t-29 36t-8 32.5t9 13q2 0 11.5 -5.5t20.5 -5.5q70 0 176.5 177.5t222.5 464.5q5 12 20 12q10 0 28 -8t35.5 -27.5t17.5 -40.5q0 -13 -3 -21q-4 -17 -17.5 -185.5t-19.5 -230.5v-2q0 -3 3 -4l5 5q66 141 137.5 307t76.5 191q4 16 20 16q10 0 26 -8
t31.5 -25t15.5 -31q0 -6 -5 -13q-16 -21 -72 -135t-131.5 -279t-93.5 -218q-9 -20 -30 -20q-20 0 -43.5 19.5t-33 43t-7.5 39.5l31 406l1 3l-3 3l-3 -3q-77 -183 -128 -285.5t-106.5 -170t-107.5 -67.5zM169 -211q-10 0 -23.5 8.5t-13.5 20.5q0 5 3 11q20 26 53 120
q5 11 18 11q9 0 23.5 -5.5t27.5 -18t13 -25.5q0 -9 -14.5 -35.5t-41.5 -56.5t-45 -30z" />
    <glyph glyph-name="ncommaaccent" unicode="&#x146;" horiz-adv-x="405" 
d="M273 0q-17 0 -34 13t-24.5 35t-7.5 43q0 29 13 67t34.5 80.5t88.5 155.5l1 3l-3 3l-6 -4q-61 -55 -157 -180.5t-137 -201.5q-4 -13 -18 -13q-18 0 -36.5 18t-18.5 42q0 9 5 24q14 37 83 188t93 199q6 11 19 11q19 0 40 -19t21 -39q0 -10 -5 -18q-30 -42 -89 -167l-1 -6
l2 -3q6 3 9 9q70 98 143.5 172.5t105.5 74.5q23 0 41 -25t18 -54q0 -10 -13 -32q-43 -69 -89 -163t-46 -118q0 -3 2 -6.5t6 -3.5q6 0 18 10.5t32 36.5t44 62t39 60.5t26 42t19 31.5t9 15l5 2q7 0 17 -8t10 -14l-1 -4q-49 -91 -95 -162.5t-89.5 -114t-73.5 -42.5zM82 -211
q-10 0 -23.5 8.5t-13.5 20.5q0 7 3 11q11 15 20.5 36.5t19.5 49t13 34.5q5 11 18 11q9 0 23.5 -5.5t27.5 -18t13 -25.5q0 -9 -15 -35.5t-42 -56.5t-44 -30z" />
    <glyph glyph-name="Ncaron" unicode="&#x147;" horiz-adv-x="583" 
d="M601 752q-24 0 -47.5 47t-23.5 82q0 10 3.5 16.5t9.5 6.5q11 0 41 -34.5t41 -34.5q10 0 50 24t48 24h1q7 0 11.5 -6.5t4.5 -12.5q0 -7 -20.5 -30t-60.5 -52.5t-58 -29.5zM28 -18q-26 0 -47 16.5t-29 36t-8 32.5t9 13q2 0 11.5 -5.5t20.5 -5.5q70 0 176.5 177.5
t222.5 464.5q5 12 20 12q10 0 28 -8t35.5 -27.5t17.5 -40.5q0 -13 -3 -21q-4 -17 -17.5 -185.5t-19.5 -230.5v-2q0 -3 3 -4l5 5q66 141 137.5 307t76.5 191q4 16 20 16q10 0 26 -8t31.5 -25t15.5 -31q0 -6 -5 -13q-16 -21 -72 -135t-131.5 -279t-93.5 -218q-9 -20 -30 -20
q-20 0 -43.5 19.5t-33 43t-7.5 39.5l31 406l1 3l-3 3l-3 -3q-77 -183 -128 -285.5t-106.5 -170t-107.5 -67.5z" />
    <glyph glyph-name="ncaron" unicode="&#x148;" horiz-adv-x="405" 
d="M322 515q-24 0 -47.5 47.5t-23.5 82.5q0 22 13 22q11 0 41 -34t41 -34q10 0 50 23.5t48 23.5h1q7 0 11.5 -6.5t4.5 -12.5q0 -7 -20.5 -30t-60.5 -52.5t-58 -29.5zM273 0q-17 0 -34 13t-24.5 35t-7.5 43q0 29 13 67t34.5 80.5t88.5 155.5l1 3l-3 3l-6 -4
q-61 -55 -157 -180.5t-137 -201.5q-4 -13 -18 -13q-18 0 -36.5 18t-18.5 42q0 9 5 24q14 37 83 188t93 199q6 11 19 11q19 0 40 -19t21 -39q0 -10 -5 -18q-30 -42 -89 -167l-1 -6l2 -3q6 3 9 9q70 98 143.5 172.5t105.5 74.5q23 0 41 -25t18 -54q0 -10 -13 -32
q-43 -69 -89 -163t-46 -118q0 -3 2 -6.5t6 -3.5q6 0 18 10.5t32 36.5t44 62t39 60.5t26 42t19 31.5t9 15l5 2q7 0 17 -8t10 -14l-1 -4q-49 -91 -95 -162.5t-89.5 -114t-73.5 -42.5z" />
    <glyph glyph-name="Eng" unicode="&#x14a;" horiz-adv-x="582" 
d="M245 -188q-21 0 -46 7.5t-43 26.5q-10 13 -10 26q0 11 6 19t14 8q7 0 12 -5q18 -17 24.5 -19t12.5 -2q36 0 66.5 32t73.5 118l1 5l-2 7q-10 14 -15.5 30.5t-4.5 30.5q29 267 46 399v1l-2 3l-3 -3q-79 -170 -135 -273t-113 -172t-105 -69q-17 0 -36.5 11t-33 34t-13.5 39
q0 14 9 14q2 0 12 -5.5t20 -5.5q43 0 104.5 68.5t145 216.5t177.5 357q6 11 20 11q23 0 47 -22.5t24 -50.5q0 -12 -4 -23q-3 -10 -9 -55t-20.5 -176.5t-19.5 -173.5v-2q0 -3 3 -4l5 5q132 271 179 370.5t51 116.5q3 16 20 16q21 0 46 -22t25 -42q0 -8 -4 -13
q-16 -21 -79 -137t-145 -279.5t-101 -215.5q-46 -103 -92.5 -152.5t-107.5 -49.5z" />
    <glyph glyph-name="eng" unicode="&#x14b;" horiz-adv-x="404" 
d="M55 -188q-22 0 -47 7.5t-43 26.5q-10 13 -10 26q0 11 6 19t14 8q7 0 12 -5q18 -17 24.5 -19t12.5 -2q47 0 86.5 51t89.5 177q58 149 143 293l1 3l-3 3l-6 -4q-61 -55 -157 -180.5t-137 -201.5q-4 -13 -18 -13q-18 0 -36.5 18t-18.5 42q0 9 5 24q14 37 83 188t93 199
q6 11 19 11q19 0 40 -19t21 -39q0 -10 -5 -18q-30 -42 -89 -167l-1 -6l2 -3q6 3 9 9q70 98 143.5 172.5t105.5 74.5q23 0 41 -25t18 -54q0 -10 -13 -32q-6 -10 -21 -40.5t-45 -98.5t-65.5 -152.5t-36.5 -86.5q-91 -186 -217 -186z" />
    <glyph glyph-name="Omacron" unicode="&#x14c;" horiz-adv-x="502" 
d="M360 772q-5 0 -8 5.5t-3 13.5q0 18 13 38.5t27 20.5l105 -1q31 0 62.5 1.5t41.5 1.5q13 0 13 -20t-12 -39t-28 -19l-96 1zM202 -14q-43 0 -80 23.5t-59 68t-22 110.5q0 76 29 166.5t75.5 169t98.5 127.5t94 49q11 0 23 -5h3l4 1q39 22 77 22q21 0 44 -10t45.5 -36.5
t33 -64.5t10.5 -70q0 -50 -18.5 -118t-50.5 -138t-80 -138t-107.5 -112.5t-119.5 -44.5zM194 61q32 0 77 38.5t102.5 132t92.5 194.5t35 157q0 36 -14 52t-35 16q-29 0 -64 -28.5t-70 -76t-64 -106t-46 -114.5q-2 -11 -9 -11q-5 0 -12.5 6.5t-12.5 17.5l-3 3l-5 -7
q-13 -34 -22.5 -82t-9.5 -85q0 -34 8 -60t22.5 -36.5t29.5 -10.5z" />
    <glyph glyph-name="omacron" unicode="&#x14d;" 
d="M205 535q-11 0 -11 20q0 18 13 38.5t27 20.5l104 -1l105 2q12 0 12 -20t-12 -39t-28 -19l-96 2q-29 0 -70 -2t-44 -2zM115 0q-42 0 -73 35t-31 90q0 45 22.5 108.5t60 122.5t83 97t87.5 38q25 0 47.5 -15t36.5 -47l4 -6q22 -20 22 -66q0 -32 -12 -72.5t-29 -77.5l-1 -2
q0 -3 3 -4h2q23 9 49 41t65 102l4 1q7 0 17.5 -7.5t10.5 -12.5l-2 -7q-93 -190 -188 -190q-6 0 -8 -3q-28 -40 -60.5 -70.5t-61 -42.5t-48.5 -12zM136 82q21 0 47.5 26.5t53.5 70.5q2 2 2 7q1 33 21.5 74t44.5 65l4 6q7 23 7 52q0 14 -5.5 22.5t-15.5 8.5q-18 0 -44 -22
t-56.5 -68.5t-56 -106t-27.5 -99.5q-1 -17 5.5 -26.5t19.5 -9.5z" />
    <glyph glyph-name="Ohungarumlaut" unicode="&#x150;" horiz-adv-x="502" 
d="M390 755q-9 -1 -21 7t-12 16q0 4 4 8q12 16 34 61.5t31 75.5q4 8 13 8q13 0 30 -14t17 -27q0 -16 -21 -51t-42.5 -59t-32.5 -25zM499 756q-9 0 -19.5 9.5t-10.5 17.5q0 3 5 8q13 16 38 59.5t36 71.5q5 9 11 9q11 0 29 -15.5t18 -28.5q0 -15 -24 -50t-47 -58t-36 -23z
M202 -14q-43 0 -80 23.5t-59 68t-22 110.5q0 76 29 166.5t75.5 169t98.5 127.5t94 49q11 0 23 -5h3l4 1q39 22 77 22q21 0 44 -10t45.5 -36.5t33 -64.5t10.5 -70q0 -50 -18.5 -118t-50.5 -138t-80 -138t-107.5 -112.5t-119.5 -44.5zM194 61q32 0 77 38.5t102.5 132
t92.5 194.5t35 157q0 36 -14 52t-35 16q-29 0 -64 -28.5t-70 -76t-64 -106t-46 -114.5q-2 -11 -9 -11q-5 0 -12.5 6.5t-12.5 17.5l-3 3l-5 -7q-13 -34 -22.5 -82t-9.5 -85q0 -34 8 -60t22.5 -36.5t29.5 -10.5z" />
    <glyph glyph-name="ohungarumlaut" unicode="&#x151;" 
d="M235 518q-9 -1 -21 7.5t-12 16.5l3 8q12 15 34 60t32 76q4 9 13 9q12 0 29.5 -14t17.5 -27q0 -11 -14.5 -38.5t-41 -61.5t-40.5 -36zM344 520q-9 0 -19.5 9t-10.5 17q0 5 4 9q12 15 37.5 58.5t37.5 71.5q4 10 11 10q11 0 29 -15.5t18 -28.5q0 -15 -24 -50t-47 -58
t-36 -23zM115 0q-42 0 -73 35t-31 90q0 45 22.5 108.5t60 122.5t83 97t87.5 38q25 0 47.5 -15t36.5 -47l4 -6q22 -20 22 -66q0 -32 -12 -72.5t-29 -77.5l-1 -2q0 -3 3 -4h2q23 9 49 41t65 102l4 1q7 0 17.5 -7.5t10.5 -12.5l-2 -7q-93 -190 -188 -190q-6 0 -8 -3
q-28 -40 -60.5 -70.5t-61 -42.5t-48.5 -12zM136 82q21 0 47.5 26.5t53.5 70.5q2 2 2 7q1 33 21.5 74t44.5 65l4 6q7 23 7 52q0 14 -5.5 22.5t-15.5 8.5q-18 0 -44 -22t-56.5 -68.5t-56 -106t-27.5 -99.5q-1 -17 5.5 -26.5t19.5 -9.5z" />
    <glyph glyph-name="OE" unicode="&#x152;" horiz-adv-x="800" 
d="M184 -14q-27 0 -52.5 11t-46 34.5t-32.5 63t-12 93.5q0 76 29 166.5t75.5 169t98.5 127.5t94 49q11 0 23 -5h3l4 1q39 22 77 22t65 -26t39 -70l3 -4l4 2q20 20 53 42t76 37.5t80 15.5q29 0 55 -11.5t36 -38.5l3 -2q5 2 8 7q14 24 22 33q6 6 15 6q17 0 37.5 -19t20.5 -37
q0 -9 -7 -16q-20 -24 -46.5 -66.5t-67.5 -144.5q-4 -8 -12 -8q-16 0 -26 17.5t-10 42.5q0 48 42 134v3l-4 4q-12 4 -26 4q-39 0 -81.5 -16t-78.5 -42t-58 -55t-22 -52q0 -26 27 -45t76 -19q30 0 56 5q16 2 26 -13.5t10 -35.5q0 -18 -7.5 -31t-22.5 -14q-35 -3 -83.5 -12.5
t-97 -33t-73.5 -55.5t-25 -61q0 -31 26 -51t80 -20q184 0 326 248l3 3q6 0 14 -10t8 -18l-1 -5q-45 -99 -105.5 -167.5t-125.5 -99.5t-132 -31t-109 27t-61 68l-3 3l-4 -2q-43 -47 -90.5 -74.5t-92.5 -27.5zM194 61q32 0 77 38.5t102.5 132t92.5 194.5t35 157q0 36 -14 52
t-35 16q-29 0 -64 -28.5t-70 -76t-64 -106t-46 -114.5q-2 -11 -9 -11q-5 0 -12.5 6.5t-12.5 17.5l-3 3l-5 -7q-13 -34 -22.5 -82t-9.5 -85q0 -34 8 -60t22.5 -36.5t29.5 -10.5zM525 352l3 1l24 9l4 4l-2 3l-15 16l-4 2q-3 -1 -3 -4l-9 -25q-1 -4 2 -6z" />
    <glyph glyph-name="oe" unicode="&#x153;" horiz-adv-x="562" 
d="M115 0q-42 0 -73 35t-31 90q0 45 22.5 108.5t60 122.5t83 97t87.5 38q25 0 47.5 -15t36.5 -47l4 -6q5 -4 11 -14l4 -3l4 2q30 36 63 57.5t63 21.5q26 0 52.5 -15.5t38.5 -38.5t12 -43q0 -25 -12 -55t-39 -59.5t-67 -52t-82 -22.5q-9 0 -18.5 2t-10.5 2q-4 -1 -5 -4
q-15 -43 -15 -76q0 -51 42 -51q31 0 76 30.5t85 80.5q51 66 90 134l3 3q6 0 14.5 -8t8.5 -17q0 -19 -65 -120q-34 -51 -74.5 -91.5t-81.5 -63t-82 -22.5q-38 0 -67 22t-41 59q0 3 -3 4l-4 -2q-32 -38 -68 -60.5t-69 -22.5zM401 250q20 0 48 21.5t56.5 66t28.5 69.5
q0 13 -10 13q-23 0 -62 -47.5t-70 -110.5l-2 -6q0 -6 11 -6zM134 79q18 0 45 24.5t58 75t57 112.5t27 96q0 14 -5.5 22.5t-15.5 8.5q-18 0 -41.5 -20t-50 -56t-51 -83t-36.5 -84t-12 -60q-1 -17 5.5 -26.5t19.5 -9.5z" />
    <glyph glyph-name="Racute" unicode="&#x154;" horiz-adv-x="513" 
d="M420 765q-15 0 -29 12.5t-14 23.5q0 4 3.5 8t8.5 6q23 9 69 37.5t69 52.5q5 4 13 4q12 0 29.5 -20.5t17.5 -38.5q0 -21 -65 -53t-102 -32zM355 -6q-24 0 -47 16.5t-42.5 54.5t-29.5 87t-12 83q0 3 -3 4q-4 -1 -5 -4q-85 -183 -101 -226q-4 -14 -21 -14q-10 0 -25.5 7
t-29.5 23t-14 33q0 9 4 17q184 375 266 555v2l-3 4l-3 -1q-51 -19 -99 -58.5t-74 -82.5t-26 -67q0 -15 15 -26t15 -16q0 -15 -18 -15q-19 0 -38 15.5t-32.5 47.5t-13.5 59q0 19 9 43t33 49.5t63 50.5t93.5 45t108.5 28q5 2 6 6l3 10q4 14 20 14q4 0 17 -3.5t32 -18.5
q4 -2 10 -2q62 -5 106 -32.5t69 -71t25 -90.5q0 -32 -16 -72t-53 -81.5t-94.5 -78t-126.5 -50.5q-3 0 -4 -4v-2q18 -72 46 -115.5t52 -43.5q9 0 20.5 9.5t17.5 10.5q4 0 6.5 -3.5t2.5 -8.5q0 -8 -12 -27.5t-39.5 -39.5t-57.5 -20zM255 310h2q42 10 88 31.5t91 60t67.5 81
t22.5 74.5q0 18 -11 38.5t-37.5 35t-57.5 14.5q-5 0 -7 -5q-45 -80 -160 -324l-1 -2z" />
    <glyph glyph-name="racute" unicode="&#x155;" horiz-adv-x="318" 
d="M203 601q-15 0 -29 13t-14 23q0 9 12 14q23 9 69 37.5t69 52.5q4 4 13 4q12 0 29.5 -20.5t17.5 -38.5q0 -21 -65 -53t-102 -32zM169 0q-15 0 -32 9t-28 30.5t-11 45.5q0 17 7 42.5t24 60t61.5 107t44.5 91.5q0 11 -14 18.5t-37 7.5q-5 0 -8 -6q-67 -121 -90 -158
q-2 -5 -20 -5q-9 0 -17 2.5t-8 5.5l1 2q47 79 95 175l1 4l-1 3q-5 12 -5 25q0 43 29.5 72.5t58.5 29.5q12 0 19.5 -7.5t7.5 -20.5q0 -28 -24 -68l-2 -3l4 -4q116 -38 116 -89q0 -21 -16 -46q-2 -4 -7.5 -13t-44 -70t-55.5 -96t-17 -49q0 -11 10 -11q18 0 46 29.5t54.5 68
t44.5 67t36.5 58.5t21.5 35q2 3 5 3q6 0 16 -8.5t10 -13.5l-1 -7q-1 -2 -23.5 -44t-59.5 -98t-67 -91t-62.5 -59.5t-62.5 -24.5z" />
    <glyph glyph-name="Rcommaaccent" unicode="&#x156;" horiz-adv-x="513" 
d="M355 -6q-24 0 -47 16.5t-42.5 54.5t-29.5 87t-12 83q0 3 -3 4q-4 -1 -5 -4q-85 -183 -101 -226q-4 -14 -21 -14q-10 0 -25.5 7t-29.5 23t-14 33q0 9 4 17q184 375 266 555v2l-3 4l-3 -1q-51 -19 -99 -58.5t-74 -82.5t-26 -67q0 -15 15 -26t15 -16q0 -15 -18 -15
q-19 0 -38 15.5t-32.5 47.5t-13.5 59q0 19 9 43t33 49.5t63 50.5t93.5 45t108.5 28q5 2 6 6l3 10q4 14 20 14q4 0 17 -3.5t32 -18.5q4 -2 10 -2q62 -5 106 -32.5t69 -71t25 -90.5q0 -32 -16 -72t-53 -81.5t-94.5 -78t-126.5 -50.5q-3 0 -4 -4v-2q18 -72 46 -115.5t52 -43.5
q9 0 20.5 9.5t17.5 10.5q4 0 6.5 -3.5t2.5 -8.5q0 -8 -12 -27.5t-39.5 -39.5t-57.5 -20zM255 310h2q42 10 88 31.5t91 60t67.5 81t22.5 74.5q0 18 -11 38.5t-37.5 35t-57.5 14.5q-5 0 -7 -5q-45 -80 -160 -324l-1 -2zM154 -211q-10 0 -24 8.5t-14 20.5q0 6 4 11
q11 15 20.5 36.5t19.5 49t13 34.5q3 11 18 11q19 0 41.5 -16t22.5 -33q0 -9 -15 -35.5t-42 -56.5t-44 -30z" />
    <glyph glyph-name="rcommaaccent" unicode="&#x157;" horiz-adv-x="318" 
d="M169 0q-15 0 -32 9t-28 30.5t-11 45.5q0 17 7 42.5t24 60t61.5 107t44.5 91.5q0 11 -14 18.5t-37 7.5q-5 0 -8 -6q-67 -121 -90 -158q-2 -5 -20 -5q-9 0 -17 2.5t-8 5.5l1 2q47 79 95 175l1 4l-1 3q-5 12 -5 25q0 43 29.5 72.5t58.5 29.5q12 0 19.5 -7.5t7.5 -20.5
q0 -28 -24 -68l-2 -3l4 -4q116 -38 116 -89q0 -21 -16 -46q-2 -4 -7.5 -13t-44 -70t-55.5 -96t-17 -49q0 -11 10 -11q18 0 46 29.5t54.5 68t44.5 67t36.5 58.5t21.5 35q2 3 5 3q6 0 16 -8.5t10 -13.5l-1 -7q-1 -2 -23.5 -44t-59.5 -98t-67 -91t-62.5 -59.5t-62.5 -24.5z
M53 -211q-10 0 -24 8.5t-14 20.5q0 6 4 11q11 15 20.5 36.5t19.5 49t13 34.5q5 11 18 11q9 0 23.5 -5.5t27.5 -18t13 -25.5q0 -9 -15 -35.5t-42 -56.5t-44 -30z" />
    <glyph glyph-name="Rcaron" unicode="&#x158;" horiz-adv-x="513" 
d="M459 752q-12 0 -28 17.5t-29.5 52.5t-13.5 59q0 10 3.5 16.5t9.5 6.5q12 0 41.5 -34.5t41.5 -34.5q10 0 50 24t47 24h1q7 0 11.5 -6.5t4.5 -12.5q0 -7 -20.5 -30t-60.5 -52.5t-58 -29.5zM355 -6q-24 0 -47 16.5t-42.5 54.5t-29.5 87t-12 83q0 3 -3 4q-4 -1 -5 -4
q-85 -183 -101 -226q-4 -14 -21 -14q-10 0 -25.5 7t-29.5 23t-14 33q0 9 4 17q184 375 266 555v2l-3 4l-3 -1q-51 -19 -99 -58.5t-74 -82.5t-26 -67q0 -15 15 -26t15 -16q0 -15 -18 -15q-19 0 -38 15.5t-32.5 47.5t-13.5 59q0 19 9 43t33 49.5t63 50.5t93.5 45t108.5 28
q5 2 6 6l3 10q4 14 20 14q4 0 17 -3.5t32 -18.5q4 -2 10 -2q62 -5 106 -32.5t69 -71t25 -90.5q0 -32 -16 -72t-53 -81.5t-94.5 -78t-126.5 -50.5q-3 0 -4 -4v-2q18 -72 46 -115.5t52 -43.5q9 0 20.5 9.5t17.5 10.5q4 0 6.5 -3.5t2.5 -8.5q0 -8 -12 -27.5t-39.5 -39.5
t-57.5 -20zM255 310h2q42 10 88 31.5t91 60t67.5 81t22.5 74.5q0 18 -11 38.5t-37.5 35t-57.5 14.5q-5 0 -7 -5q-45 -80 -160 -324l-1 -2z" />
    <glyph glyph-name="rcaron" unicode="&#x159;" horiz-adv-x="318" 
d="M242 588q-24 0 -47.5 47.5t-23.5 81.5q0 10 3.5 16.5t9.5 6.5q11 0 41 -34t41 -34q10 0 50 23.5t48 23.5h1q7 0 11.5 -6.5t4.5 -12.5q0 -7 -20.5 -30t-60.5 -52.5t-58 -29.5zM169 0q-15 0 -32 9t-28 30.5t-11 45.5q0 17 7 42.5t24 60t61.5 107t44.5 91.5q0 11 -14 18.5
t-37 7.5q-5 0 -8 -6q-67 -121 -90 -158q-2 -5 -20 -5q-9 0 -17 2.5t-8 5.5l1 2q47 79 95 175l1 4l-1 3q-5 12 -5 25q0 43 29.5 72.5t58.5 29.5q12 0 19.5 -7.5t7.5 -20.5q0 -28 -24 -68l-2 -3l4 -4q116 -38 116 -89q0 -21 -16 -46q-2 -4 -7.5 -13t-44 -70t-55.5 -96t-17 -49
q0 -11 10 -11q18 0 46 29.5t54.5 68t44.5 67t36.5 58.5t21.5 35q2 3 5 3q6 0 16 -8.5t10 -13.5l-1 -7q-1 -2 -23.5 -44t-59.5 -98t-67 -91t-62.5 -59.5t-62.5 -24.5z" />
    <glyph glyph-name="Sacute" unicode="&#x15a;" horiz-adv-x="475" 
d="M415 765q-15 0 -29 12.5t-14 23.5q0 4 3.5 8t8.5 6q23 9 68.5 37.5t69.5 52.5q4 4 13 4q12 0 29.5 -20.5t17.5 -38.5q0 -21 -65 -53t-102 -32zM185 -9q-50 0 -86.5 13t-56 39.5t-19.5 59.5q0 19 10 39t29 31.5t32 11.5q11 0 11 -10q0 -4 -10 -14t-10 -24
q0 -18 16.5 -30.5t40 -17t42.5 -4.5q59 0 108.5 25.5t49.5 62.5q0 7 -3.5 16.5t-17 21t-60.5 35.5t-65.5 37.5t-33 28.5t-27 41t-12.5 63q0 54 27.5 109.5t73 99t101.5 69.5t108 26q20 0 41 -7t35 -22.5t20 -33.5l3 -3l3 2q22 33 26 37t11 4q18 0 38.5 -23.5t20.5 -43.5
q0 -8 -4 -12q-25 -31 -68.5 -103t-70.5 -136q-4 -11 -15 -11q-14 0 -28 18t-14 37q0 47 75 191l1 2q0 6 -17 11t-33 5q-43 0 -100.5 -35t-96 -87.5t-38.5 -90.5q0 -14 6 -28t18.5 -25t24.5 -18t63 -33t71 -46.5t29 -42t9 -48.5q0 -29 -13.5 -61t-45.5 -60t-83 -47t-116 -19z
" />
    <glyph glyph-name="sacute" unicode="&#x15b;" horiz-adv-x="285" 
d="M236 566q-15 0 -28.5 13t-13.5 24q0 4 3 8t8 5q22 9 68.5 37.5t70.5 52.5q4 5 12 5q12 0 30 -21t18 -38q0 -21 -65 -53.5t-103 -32.5zM105 -9q-30 0 -55.5 16t-45.5 55t-20 91q0 34 11.5 59.5t31.5 26.5q5 0 6 4l65 108l59 91q37 51 60 67t43 16q26 0 47.5 -18t21.5 -36
q0 -4 -2.5 -9.5t-5.5 -7.5q-12 -9 -22 -29t-18 -56.5t-21 -185.5q-6 -62 -26.5 -104t-53.5 -65t-75 -23zM93 62q12 0 27 15t29.5 65.5t28 143t18.5 115.5l1 5l-2 3l-5 -2q-6 -6 -19 -23t-54 -85q-59 -99 -78 -128l-2 -7q1 -39 16.5 -70.5t39.5 -31.5z" />
    <glyph glyph-name="Scedilla" unicode="&#x15e;" horiz-adv-x="475" 
d="M572 697q18 0 38.5 -23.5t20.5 -43.5q0 -8 -4 -12q-25 -31 -68.5 -103t-70.5 -136q-4 -11 -15 -11q-14 0 -28 18t-14 37q0 47 75 191l1 2q0 6 -17 11t-33 5q-43 0 -100.5 -35t-96 -87.5t-38.5 -90.5q0 -14 6 -28t18.5 -25t24.5 -18t63 -33t71 -46.5t29 -42t9 -48.5
q0 -25 -10 -53t-34 -53.5t-63 -46.5t-92 -30q6 -21 6 -42q0 -42 -21.5 -70t-60.5 -28q-16 0 -33.5 7.5t-28 23.5t-10.5 30q0 7 3 12t8 5q6 0 10 -3q15 -7 32 -7q22 0 37.5 18t19.5 50h-21q-50 0 -86.5 13t-56 39.5t-19.5 59.5q0 19 10 39t29 31.5t32 11.5q11 0 11 -10
q0 -4 -10 -14t-10 -24q0 -18 16.5 -30.5t40 -17t42.5 -4.5q59 0 108.5 25.5t49.5 62.5q0 7 -3.5 16.5t-17 21t-60.5 35.5t-65.5 37.5t-33 28.5t-27 41t-12.5 63q0 54 27.5 109.5t73 99t101.5 69.5t108 26q20 0 41 -7t35 -22.5t20 -33.5l3 -3l3 2q22 33 26 37t11 4z" />
    <glyph glyph-name="scedilla" unicode="&#x15f;" horiz-adv-x="285" 
d="M260 525q26 0 47.5 -18t21.5 -36q0 -4 -2.5 -9.5t-5.5 -7.5q-12 -9 -22 -29t-18 -56.5t-21 -185.5q-4 -46 -20 -89t-48 -70t-70 -32q5 -16 5 -39q0 -42 -21.5 -70t-60.5 -28q-16 0 -33 7.5t-27.5 23.5t-10.5 30q0 17 11 17l10 -3q14 -7 31 -7q23 0 38.5 18.5t19.5 51.5
q-48 10 -74 57.5t-26 102.5q0 34 11.5 59.5t31.5 26.5q5 0 6 4l65 108l59 91q37 51 60 67t43 16zM196 401l1 5l-2 3l-5 -2q-6 -6 -19 -23t-54 -85q-59 -99 -78 -128l-2 -7q1 -39 16.5 -70.5t39.5 -31.5q12 0 27 15t29.5 65.5t28 143t18.5 115.5z" />
    <glyph glyph-name="Scaron" unicode="&#x160;" horiz-adv-x="475" 
d="M454 752q-24 0 -47.5 47t-23.5 82q0 23 12 23t42 -34.5t41 -34.5q10 0 50 24t47 24h2q7 0 11.5 -6.5t4.5 -12.5q0 -7 -21 -30t-61 -52.5t-57 -29.5zM185 -9q-50 0 -86.5 13t-56 39.5t-19.5 59.5q0 19 10 39t29 31.5t32 11.5q11 0 11 -10q0 -4 -10 -14t-10 -24
q0 -18 16.5 -30.5t40 -17t42.5 -4.5q59 0 108.5 25.5t49.5 62.5q0 7 -3.5 16.5t-17 21t-60.5 35.5t-65.5 37.5t-33 28.5t-27 41t-12.5 63q0 54 27.5 109.5t73 99t101.5 69.5t108 26q20 0 41 -7t35 -22.5t20 -33.5l3 -3l3 2q22 33 26 37t11 4q18 0 38.5 -23.5t20.5 -43.5
q0 -8 -4 -12q-25 -31 -68.5 -103t-70.5 -136q-4 -11 -15 -11q-14 0 -28 18t-14 37q0 47 75 191l1 2q0 6 -17 11t-33 5q-43 0 -100.5 -35t-96 -87.5t-38.5 -90.5q0 -14 6 -28t18.5 -25t24.5 -18t63 -33t71 -46.5t29 -42t9 -48.5q0 -29 -13.5 -61t-45.5 -60t-83 -47t-116 -19z
" />
    <glyph glyph-name="scaron" unicode="&#x161;" horiz-adv-x="285" 
d="M275 554q-12 0 -28 17.5t-29 52.5t-13 59q0 22 12 22t41.5 -34t41.5 -34q10 0 50 24t47 24h2q7 0 11.5 -7t4.5 -13q0 -7 -21 -29.5t-61 -52t-58 -29.5zM105 -9q-30 0 -55.5 16t-45.5 55t-20 91q0 34 11.5 59.5t31.5 26.5q5 0 6 4l65 108l59 91q37 51 60 67t43 16
q26 0 47.5 -18t21.5 -36q0 -4 -2.5 -9.5t-5.5 -7.5q-12 -9 -22 -29t-18 -56.5t-21 -185.5q-6 -62 -26.5 -104t-53.5 -65t-75 -23zM93 62q12 0 27 15t29.5 65.5t28 143t18.5 115.5l1 5l-2 3l-5 -2q-6 -6 -19 -23t-54 -85q-59 -99 -78 -128l-2 -7q1 -39 16.5 -70.5t39.5 -31.5
z" />
    <glyph glyph-name="Tcommaaccent" unicode="&#x162;" horiz-adv-x="381" 
d="M655 713q7 0 11.5 -8.5t4.5 -19.5q0 -28 -18 -48t-45 -27t-51 -7q-32 0 -81 11q-3 0 -6 -4q-55 -105 -158 -320.5t-125 -275.5q-4 -12 -16 -14q7 -22 7 -47q0 -42 -21.5 -70t-60.5 -28q-16 0 -33 7.5t-27.5 23.5t-10.5 30q0 17 10 17q6 0 10 -3q15 -7 32 -7q26 0 42 23
t16 63q-14 9 -26 24t-12 31q0 8 4 15q202 404 265 546l1 3l-4 4q-15 3 -50.5 5.5t-67.5 2.5q-73 0 -114.5 -27.5t-41.5 -72.5q0 -20 13 -30t13 -15q0 -6 -5.5 -9.5t-14.5 -3.5q-10 0 -28.5 14t-35 45.5t-16.5 61.5q0 56 42 89t126 33q27 0 58.5 -4t56 -8t42.5 -7t34.5 -6.5
t18.5 -3.5h1q5 0 7 5l6 19q5 15 20 15q30 0 68 -49q5 -7 10 -7l31 -1q66 0 107 30q5 5 12 5z" />
    <glyph glyph-name="tcommaaccent" unicode="&#x163;" horiz-adv-x="239" 
d="M339 345q8 0 17.5 -8t9.5 -14l-1 -4q-64 -127 -135 -217.5t-122 -100.5q7 -22 7 -48q0 -42 -21.5 -70t-59.5 -28q-16 0 -33.5 7.5t-28 23.5t-10.5 30q0 17 11 17l10 -3q15 -7 32 -7q24 0 40 21.5t18 59.5q-23 8 -37 31.5t-14 59.5q0 21 10 63l1 3l-3 2l-2 -1
q-10 -3 -24 -3q-6 0 -12 2t-6 5l1 3q22 31 67.5 106t78.5 139l1 3l-5 4q-13 4 -23 16t-10 22q0 11 11 14q14 3 61 5q5 0 6 4q50 96 84 152q8 12 23 12q20 0 41.5 -21t21.5 -39q0 -8 -5 -13q-12 -12 -57 -89l-1 -3q0 -4 5 -4l50 -3q16 -3 16 -14q0 -12 -17.5 -25.5
t-41.5 -17.5l-45 -2q-4 0 -7 -4q-49 -90 -89 -182.5t-40 -124.5q0 -7 3.5 -13t11.5 -6q27 0 82 68.5t126 189.5z" />
    <glyph glyph-name="Tcaron" unicode="&#x164;" horiz-adv-x="381" 
d="M471 752q-24 0 -47.5 47t-23.5 82q0 10 3.5 16.5t9.5 6.5q11 0 41 -34.5t41 -34.5q10 0 50 24t48 24h1q7 0 11.5 -6.5t4.5 -12.5q0 -7 -20.5 -30t-60.5 -52.5t-58 -29.5zM165 -1q-21 0 -44.5 21t-23.5 44q0 8 4 15q202 404 265 546l1 3l-4 4q-15 3 -50.5 5.5t-67.5 2.5
q-73 0 -114.5 -27.5t-41.5 -72.5q0 -20 13 -30t13 -15q0 -6 -5.5 -9.5t-14.5 -3.5q-10 0 -28.5 14t-35 45.5t-16.5 61.5q0 56 42 89t126 33q27 0 58.5 -4t56 -8t42.5 -7t34.5 -6.5t18.5 -3.5h1q5 0 7 5l6 19q5 15 20 15q30 0 68 -49q5 -7 10 -7l31 -1q66 0 107 30q5 5 12 5
t11.5 -8.5t4.5 -19.5q0 -28 -18 -48t-45 -27t-51 -7q-32 0 -81 11q-3 0 -6 -4q-55 -105 -158 -320.5t-125 -275.5q-2 -7 -8.5 -11t-13.5 -4z" />
    <glyph glyph-name="tcaron" unicode="&#x165;" horiz-adv-x="239" 
d="M400 569q-8 0 -17.5 7.5t-9.5 16.5q0 7 5 12q15 15 35.5 59t29.5 75q3 10 16 10q12 0 31 -14.5t19 -29.5q0 -21 -23.5 -56t-47.5 -57.5t-38 -22.5zM95 0q-32 0 -52.5 26t-20.5 69q0 23 10 63l1 3l-3 2l-2 -1q-10 -3 -24 -3q-6 0 -12 2t-6 5l1 3q22 31 67.5 106t78.5 139
l1 3l-5 4q-13 4 -23 16t-10 22q0 11 11 14q14 3 61 5q5 0 6 4q50 96 84 152q8 12 23 12q20 0 41.5 -21t21.5 -39q0 -8 -5 -13q-12 -12 -57 -89l-1 -3q0 -4 5 -4l50 -3q16 -3 16 -14q0 -12 -17.5 -25.5t-41.5 -17.5l-45 -2q-4 0 -7 -4q-49 -90 -89 -182.5t-40 -124.5
q0 -7 3.5 -13t11.5 -6q27 0 82 68.5t126 189.5l4 2q8 0 17.5 -8t9.5 -14l-1 -4q-37 -73 -88 -151.5t-98.5 -123t-83.5 -44.5z" />
    <glyph glyph-name="Tbar" unicode="&#x166;" horiz-adv-x="381" 
d="M655 713q7 0 11.5 -8.5t4.5 -19.5q0 -28 -18 -48t-45 -27t-51 -7q-32 0 -81 11q-3 0 -6 -4q-68 -134 -119 -241l28 2q6 0 16 -7.5t19 -24t9 -27.5q0 -5 -3.5 -9t-9.5 -4l-96 -6q-104 -219 -127 -279q-2 -7 -8.5 -11t-13.5 -4q-21 0 -44.5 21t-23.5 44q0 8 4 15l103 207
l-25 -1q-15 0 -29 19.5t-14 35.5q0 13 11 13q29 0 93 6q79 161 126 266l1 3l-4 4q-15 3 -50.5 5.5t-67.5 2.5q-73 0 -114.5 -27.5t-41.5 -72.5q0 -20 13 -30t13 -15q0 -6 -5.5 -9.5t-14.5 -3.5q-10 0 -28.5 14t-35 45.5t-16.5 61.5q0 56 42 89t126 33q27 0 58.5 -4t56 -8
t42.5 -7t34.5 -6.5t18.5 -3.5h1q5 0 7 5l6 19q5 15 20 15q30 0 68 -49q5 -7 10 -7l31 -1q66 0 107 30q5 5 12 5z" />
    <glyph glyph-name="tbar" unicode="&#x167;" horiz-adv-x="239" 
d="M95 0q-32 0 -52.5 26t-20.5 69q0 23 10 63l1 3l-3 2l-2 -1q-10 -3 -24 -3q-6 0 -12 2t-6 5l1 3q37 53 75 119l1 3l-3 4q-11 6 -19 16.5t-8 19.5q0 11 11 14q22 4 50 4q5 2 6 4l33 61l1 3l-5 4q-13 4 -23 16t-10 22q0 11 11 14q14 3 61 5q5 0 6 4q50 96 84 152q8 12 23 12
q20 0 41.5 -21t21.5 -39q0 -8 -5 -13q-12 -12 -57 -89l-1 -3q0 -4 5 -4l50 -3q16 -3 16 -14q0 -12 -17.5 -25.5t-41.5 -17.5l-45 -2q-4 0 -7 -4l-29 -56l-1 -3l5 -4q21 0 39 -3q7 -1 11.5 -4.5t4.5 -8.5q0 -12 -18 -25.5t-42 -17.5l-28 -2q-5 0 -6 -4q-65 -139 -65 -179
q0 -7 3.5 -13t11.5 -6q27 0 82 68.5t126 189.5l4 2q8 0 17.5 -8t9.5 -14l-1 -4q-37 -73 -88 -151.5t-98.5 -123t-83.5 -44.5z" />
    <glyph glyph-name="Umacron" unicode="&#x16a;" horiz-adv-x="614" 
d="M466 772q-5 0 -8 5.5t-3 13.5q0 18 13 38.5t27 20.5l105 -1q31 0 62.5 1.5t42.5 1.5q12 0 12 -20t-12 -39t-28 -19l-96 1zM472 -19q-20 0 -39.5 20.5t-19.5 42.5l2 13q45 98 93 213l2 7q0 4 -4 5q-4 -1 -6 -5q-94 -150 -154 -213.5t-105 -63.5q-17 0 -37.5 12.5t-36 43.5
t-15.5 65q0 24 10.5 62t33 83.5t75 140.5t71.5 143.5t19 80.5q0 13 -4.5 23t-22.5 10q-42 0 -101.5 -43t-101 -102t-41.5 -91q0 -14 15 -25t15 -17q0 -14 -18 -14q-19 0 -37.5 15t-31.5 45.5t-13 56.5q0 39 28.5 82t73.5 79t95 57.5t90 21.5q31 0 61 -16.5t49 -55.5t19 -77
q0 -21 -10.5 -56.5t-34.5 -86t-91.5 -173.5t-67.5 -159q0 -18 16 -18q34 0 104 72t169.5 225.5t183.5 332.5q7 13 21 13q21 0 45.5 -22.5t24.5 -41.5q0 -8 -6 -14q-31 -42 -87 -156t-124 -282t-79 -208q-3 -12 -11 -18.5t-17 -6.5z" />
    <glyph glyph-name="umacron" unicode="&#x16b;" horiz-adv-x="404" 
d="M228 535q-5 0 -8 6t-3 14q0 18 13 38.5t27 20.5l105 -1l104 2q13 0 13 -20t-12 -39t-28 -19l-96 2q-29 0 -70 -2t-45 -2zM70 0q-20 0 -38 14t-25.5 35.5t-7.5 40.5q0 42 25 110t65 147t72 123q8 9 20 9q10 0 25.5 -7t30 -22t14.5 -28q0 -9 -6 -17q-2 -2 -10 -13.5
t-35 -59.5t-64 -128t-37 -109q0 -10 6 -10q22 0 86.5 81t131.5 209q41 84 53 101q5 9 17 9q20 0 44 -22.5t24 -40.5q0 -9 -6 -17q-9 -11 -29 -45.5t-50 -95t-49 -104.5q-3 -8 -11 -32t-8 -36q0 -7 7 -7q6 0 17.5 10.5t31 36.5t43 62t40.5 64t33.5 56t17.5 29l5 2
q8 0 17.5 -8t9.5 -14l-1 -4q-74 -138 -119.5 -201.5t-78.5 -90.5t-56 -27q-14 0 -28.5 9t-23.5 30.5t-9 45.5q0 22 5 42v2l-2 3l-3 -3q-84 -129 -144 -129z" />
    <glyph glyph-name="Uring" unicode="&#x16e;" horiz-adv-x="614" 
d="M578 731q-18 0 -36.5 8.5t-29.5 27.5t-11 38q0 25 16 53.5t37.5 41.5t40.5 13q15 0 33.5 -9t32.5 -29.5t14 -41.5q0 -22 -14.5 -48.5t-37 -40t-45.5 -13.5zM572 777q9 0 21.5 8t22 25t9.5 32q0 10 -5 16t-15 6q-21 0 -37 -22t-16 -42q0 -10 5 -16.5t15 -6.5zM472 -19
q-20 0 -39.5 20.5t-19.5 42.5l2 13q45 98 93 213l2 7q0 4 -4 5l-6 -5q-94 -150 -154 -213.5t-105 -63.5q-17 0 -37.5 12.5t-36 43.5t-15.5 65q0 24 10.5 62t33 83.5t75 140.5t71.5 143.5t19 80.5q0 13 -4.5 23t-22.5 10q-42 0 -101.5 -43t-101 -102t-41.5 -91q0 -14 15 -25
t15 -17q0 -14 -18 -14q-19 0 -37.5 15t-31.5 45.5t-13 56.5q0 39 28.5 82t73.5 79t95 57.5t90 21.5q31 0 61 -16.5t49 -55.5t19 -77q0 -21 -10.5 -56.5t-34.5 -86t-91.5 -173.5t-67.5 -159q0 -18 16 -18q34 0 104 72t169.5 225.5t183.5 332.5q7 13 21 13q21 0 45.5 -22.5
t24.5 -41.5q0 -8 -6 -14q-31 -42 -87 -156t-124 -282t-79 -208q-3 -12 -11 -18.5t-17 -6.5z" />
    <glyph glyph-name="uring" unicode="&#x16f;" horiz-adv-x="404" 
d="M339 521q-18 0 -36.5 8.5t-29.5 27t-11 38.5q0 25 16 53.5t37.5 41.5t40.5 13q15 0 33.5 -9t32.5 -29.5t14 -41.5q0 -22 -14.5 -48.5t-37 -40t-45.5 -13.5zM333 567q9 0 21.5 8t22 25t9.5 32q0 10 -5.5 16t-15.5 6q-21 0 -36.5 -22t-15.5 -42q0 -10 5 -16.5t15 -6.5z
M70 0q-20 0 -38 14t-25.5 35.5t-7.5 40.5q0 42 25 110t65 147t72 123q8 9 20 9q10 0 25.5 -7t30 -22t14.5 -28q0 -9 -6 -17q-2 -2 -10 -13.5t-35 -59.5t-64 -128t-37 -109q0 -10 6 -10q22 0 86.5 81t131.5 209q41 84 53 101q6 9 17 9q20 0 44 -22.5t24 -40.5q0 -9 -6 -17
q-9 -11 -29 -45.5t-50 -95t-49 -104.5q-3 -8 -11 -32t-8 -36q0 -7 7 -7q6 0 17.5 10.5t31 36.5t43 62t40.5 64t33.5 56t17.5 29l5 2q8 0 17.5 -8t9.5 -14l-1 -4q-74 -138 -119.5 -201.5t-78.5 -90.5t-56 -27q-14 0 -28.5 9t-23.5 30.5t-9 45.5q0 22 5 42v2l-2 3l-3 -3
q-84 -129 -144 -129z" />
    <glyph glyph-name="Uhungarumlaut" unicode="&#x170;" horiz-adv-x="614" 
d="M496 755q-9 -1 -20.5 7t-11.5 16q0 4 3 8q12 15 34 60.5t32 76.5q4 8 12 8q13 0 30.5 -14t17.5 -27q0 -11 -14.5 -39t-41 -61t-41.5 -35zM605 756q-8 0 -19 9.5t-11 17.5q0 3 5 8q12 15 37.5 58.5t37.5 72.5q1 2 3.5 5.5t6.5 3.5q11 0 29.5 -15.5t18.5 -28.5
q0 -15 -24 -50t-47.5 -58t-36.5 -23zM472 -19q-20 0 -39.5 20.5t-19.5 42.5l2 13q45 98 93 213l2 7q0 4 -4 5l-6 -5q-94 -150 -154 -213.5t-105 -63.5q-17 0 -37.5 12.5t-36 43.5t-15.5 65q0 24 10.5 62t33 83.5t75 140.5t71.5 143.5t19 80.5q0 13 -4.5 23t-22.5 10
q-42 0 -101.5 -43t-101 -102t-41.5 -91q0 -14 15 -25t15 -17q0 -14 -18 -14q-19 0 -37.5 15t-31.5 45.5t-13 56.5q0 39 28.5 82t73.5 79t95 57.5t90 21.5q31 0 61 -16.5t49 -55.5t19 -77q0 -21 -10.5 -56.5t-34.5 -86t-91.5 -173.5t-67.5 -159q0 -18 16 -18q34 0 104 72
t169.5 225.5t183.5 332.5q7 13 21 13q21 0 45.5 -22.5t24.5 -41.5q0 -8 -6 -14q-31 -42 -87 -156t-124 -282t-79 -208q-3 -12 -11 -18.5t-17 -6.5z" />
    <glyph glyph-name="uhungarumlaut" unicode="&#x171;" horiz-adv-x="404" 
d="M258 518q-9 -1 -21 7.5t-12 16.5q0 3 4 8q12 15 34 60t32 76q2 9 12 9q13 0 30.5 -14t17.5 -27q0 -16 -21.5 -51t-42.5 -59t-33 -26zM367 520q-9 0 -19.5 9t-10.5 17q0 4 5 9q13 16 38 59.5t36 70.5q4 10 11 10q11 0 29.5 -15.5t18.5 -28.5q0 -10 -16.5 -37.5t-46 -60.5
t-45.5 -33zM70 0q-20 0 -38 14t-25.5 35.5t-7.5 40.5q0 42 25 110t65 147t72 123q8 9 20 9q10 0 25.5 -7t30 -22t14.5 -28q0 -9 -6 -17q-2 -2 -10 -13.5t-35 -59.5t-64 -128t-37 -109q0 -10 6 -10q22 0 86.5 81t131.5 209q41 84 53 101q5 9 17 9q20 0 44 -22.5t24 -40.5
q0 -9 -6 -17q-9 -11 -29 -45.5t-50 -95t-49 -104.5q-3 -8 -11 -32t-8 -36q0 -7 7 -7q6 0 17.5 10.5t31 36.5t43 62t40.5 64t33.5 56t17.5 29l5 2q8 0 17.5 -8t9.5 -14l-1 -4q-74 -138 -119.5 -201.5t-78.5 -90.5t-56 -27q-14 0 -28.5 9t-23.5 30.5t-9 45.5q0 22 5 42v2l-2 3
l-3 -3q-84 -129 -144 -129z" />
    <glyph glyph-name="Uogonek" unicode="&#x172;" horiz-adv-x="614" 
d="M726 730q21 0 45.5 -22.5t24.5 -41.5q0 -8 -6 -14q-31 -42 -87 -156t-124 -282t-79 -208q-4 -16 -16 -23q-13 -12 -26 -30.5t-13 -38.5q0 -17 11.5 -26.5t30.5 -9.5q17 0 31.5 8t16.5 8q5 0 8.5 -5t3.5 -11q0 -10 -12.5 -26t-42 -31t-58.5 -15q-34 0 -53 20t-19 48
q0 29 23 59.5t59 57.5q-12 10 -21.5 25t-9.5 28l2 13q45 98 93 213l2 7q0 4 -4 5q-4 -1 -6 -5q-94 -150 -154 -213.5t-105 -63.5q-17 0 -37.5 12.5t-36 43.5t-15.5 65q0 24 10.5 62t33 83.5t75 140.5t71.5 143.5t19 80.5q0 13 -4.5 23t-22.5 10q-42 0 -101.5 -43t-101 -102
t-41.5 -91q0 -14 15 -25t15 -17q0 -14 -18 -14q-19 0 -37.5 15t-31.5 45.5t-13 56.5q0 39 28.5 82t73.5 79t95 57.5t90 21.5q31 0 61 -16.5t49 -55.5t19 -77q0 -21 -10.5 -56.5t-34.5 -86t-91.5 -173.5t-67.5 -159q0 -18 16 -18q34 0 104 72t169.5 225.5t183.5 332.5
q7 13 21 13z" />
    <glyph glyph-name="uogonek" unicode="&#x173;" horiz-adv-x="404" 
d="M304 8q-38 -33 -38 -68q0 -17 11.5 -26t31.5 -9q17 0 31.5 7.5t15.5 7.5q2 0 7.5 -2.5t5.5 -12.5q0 -22 -37 -47t-77 -25q-33 0 -52 19.5t-19 47.5q0 51 66 106q-17 9 -26.5 31.5t-9.5 47.5q0 22 5 42v2l-2 3l-3 -3q-84 -129 -144 -129q-20 0 -38 14t-25.5 35.5
t-7.5 40.5q0 42 25 110t65 147t72 123q8 9 20 9q10 0 25.5 -7t30 -22t14.5 -28q0 -9 -6 -17q-2 -2 -10 -13.5t-35 -59.5t-64 -128t-37 -109q0 -10 6 -10q22 0 86.5 81t131.5 209q41 84 53 101q5 9 17 9q20 0 44 -22.5t24 -40.5q0 -9 -6 -17q-9 -11 -29 -45.5t-50 -95
t-49 -104.5q-3 -8 -11 -32t-8 -36q0 -7 7 -7q6 0 17.5 10.5t31 36.5t43 62t40.5 64t33.5 56t17.5 29l5 2q8 0 17.5 -8t9.5 -14l-1 -4q-49 -91 -79 -139.5t-59 -86.5t-50.5 -57.5t-36.5 -27.5z" />
    <glyph glyph-name="Wcircumflex" unicode="&#x174;" horiz-adv-x="779" 
d="M737 744q-11 0 -41 34t-41 34q-10 0 -50 -23.5t-48 -23.5l-1 -1q-7 0 -11.5 6.5t-4.5 13.5t20.5 29.5t60.5 52t58 29.5q24 0 47.5 -47t23.5 -82q0 -22 -13 -22zM252 -9q-15 0 -40.5 16.5t-38 38.5t-12.5 40q0 10 5 27q84 209 107 277t37 118.5t17 76.5t3 34q0 45 -25 45
q-15 0 -44 -18.5t-71.5 -63t-69.5 -92t-27 -75.5q0 -14 13.5 -24t15 -12.5t1.5 -4.5q0 -15 -18 -15q-19 0 -38 15.5t-32.5 47.5t-13.5 58q0 29 18 68t62.5 84t98 71t92.5 26q36 0 63.5 -19.5t45 -55t17.5 -80.5q0 -33 -20.5 -104.5t-81.5 -219.5t-62 -151l-1 -4q0 -3 3 -4
l4 3q69 106 161 270.5t179 342.5q4 14 17 14q18 0 40 -23t22 -43q0 -8 -4 -13q-15 -26 -38.5 -81.5t-55.5 -148t-51.5 -172t-19.5 -115.5q-1 -35 16 -35q22 0 61 47.5t90 147t97.5 219t52.5 180.5q1 11 -6.5 22.5t-7.5 15.5q0 7 5 11.5t12 4.5q11 0 33 -10.5t43 -36.5
t21 -56q0 -25 -20.5 -89t-73 -172t-111.5 -196t-110.5 -136t-92.5 -48q-28 0 -53.5 25.5t-36 60.5t-10.5 63q0 23 10 56.5t27 82t22 64.5l1 3q0 3 -3 5l-4 -4q-54 -99 -200 -345q-7 -14 -20 -14z" />
    <glyph glyph-name="wcircumflex" unicode="&#x175;" horiz-adv-x="529" 
d="M481 507q-12 0 -41.5 34t-41.5 34q-10 0 -50 -23.5t-47 -23.5h-1q-7 0 -11.5 6.5t-4.5 12.5q0 7 20.5 30t60.5 52.5t58 29.5q12 0 28 -17.5t29.5 -52.5t13.5 -59q0 -10 -3.5 -16.5t-9.5 -6.5zM89 0q-9 0 -21 4.5t-23 17t-19 35.5t-7 58q2 71 51.5 184.5t93.5 164.5
q11 12 30 12q10 0 25 -5.5t28 -17.5t13 -22q0 -5 -4 -8q-22 -22 -58.5 -88.5t-63 -136t-26.5 -96.5q0 -17 9 -17q12 0 37 32t64.5 105t71.5 144l43 98q4 15 22 15q10 0 28 -9.5t32.5 -27.5t8.5 -28q-39 -64 -84 -169t-45 -143q0 -17 10 -17q21 0 70.5 77t93.5 174.5
t48 131.5q1 9 5.5 13.5t11.5 4.5q17 0 38 -21.5t21 -44.5q0 -22 -22 -77t-73 -140.5t-108.5 -144t-98.5 -58.5q-18 0 -33 11t-24 33.5t-9 59.5v15q0 5 -4 7l-4 -3q-21 -39 -45 -69t-45.5 -42t-37.5 -12z" />
    <glyph glyph-name="Ycircumflex" unicode="&#x176;" horiz-adv-x="621" 
d="M657 744q-11 0 -41 34t-41 34q-10 0 -50 -23.5t-48 -23.5l-1 -1q-7 0 -11.5 6.5t-4.5 13.5t20.5 29.5t60.5 52t58 29.5q24 0 47.5 -47t23.5 -82q0 -22 -13 -22zM392 -201q-10 0 -25 8t-28 26t-13 35q0 5 4 15q20 39 91.5 193.5t84.5 182.5q5 10 5 16l-2 3q-7 -5 -13 -13
q-95 -147 -152.5 -206t-102.5 -59q-17 0 -37.5 12.5t-36 43.5t-15.5 65q0 24 10.5 62t33 83.5t75 140.5t71.5 143.5t19 80.5q0 13 -4.5 23t-22.5 10q-42 0 -101.5 -43t-101 -102t-41.5 -91q0 -14 15 -25t15 -17q0 -14 -18 -14q-19 0 -37.5 15t-31.5 45.5t-13 56.5
q0 39 28.5 82t73.5 79t95 57.5t90 21.5q31 0 61 -16.5t49 -55.5t19 -77q0 -21 -10.5 -56.5t-34.5 -86t-91.5 -173.5t-67.5 -159q0 -18 16 -18q42 0 127.5 95t178 241.5t161.5 293.5q7 13 22 13q21 0 45.5 -22.5t24.5 -41.5q0 -8 -6 -14q-60 -82 -203.5 -404t-177.5 -425
q-4 -12 -11.5 -18t-16.5 -6z" />
    <glyph glyph-name="ycircumflex" unicode="&#x177;" horiz-adv-x="390" 
d="M432 507q-12 0 -41.5 34t-41.5 34q-10 0 -50 -23.5t-47 -23.5h-1q-7 0 -11.5 6.5t-4.5 12.5q0 7 20.5 30t60.5 52.5t58 29.5q12 0 28 -17.5t29.5 -52.5t13.5 -59q0 -10 -3.5 -16.5t-9.5 -6.5zM43 -209q-26 0 -57 10.5t-53.5 33.5t-22.5 42q0 10 8 20.5t17 10.5
q14 0 23 -23q20 -29 54 -29q49 0 100.5 62t111.5 200l2 10l-1 3q-6 -4 -10 -10q-26 -37 -54.5 -66.5t-52.5 -42t-41 -12.5q-28 0 -48 26t-20 67t24.5 108t64 145.5t71.5 123.5q8 9 20 9q10 0 25.5 -7t30 -22t14.5 -28q0 -9 -6 -17q-2 -2 -9.5 -13.5t-34.5 -58.5t-63 -124
t-36 -104q0 -12 7 -12q16 0 55 39t84 104t89 153q22 43 41 90q4 10 18 10q21 0 45.5 -20t24.5 -42q0 -9 -4 -17q-50 -94 -114.5 -244t-72.5 -167q-44 -99 -103 -153.5t-127 -54.5z" />
    <glyph glyph-name="Ydieresis" unicode="&#x178;" horiz-adv-x="621" 
d="M486 768q-16 0 -28.5 15.5t-12.5 34.5q0 13 6.5 31t23.5 33t37 15q42 0 42 -39q0 -12 -7.5 -32.5t-25.5 -39t-35 -18.5zM625 761q-16 0 -28.5 15.5t-12.5 35.5q0 29 20.5 53.5t48.5 24.5q40 0 40 -38q0 -13 -7.5 -33.5t-25.5 -39t-35 -18.5zM392 -201q-10 0 -25 8t-28 26
t-13 35q0 5 4 15q20 39 91.5 193.5t84.5 182.5q5 10 5 16l-2 3q-7 -5 -13 -13q-95 -147 -152.5 -206t-102.5 -59q-17 0 -37.5 12.5t-36 43.5t-15.5 65q0 24 10.5 62t33 83.5t75 140.5t71.5 143.5t19 80.5q0 13 -4.5 23t-22.5 10q-42 0 -101.5 -43t-101 -102t-41.5 -91
q0 -14 15 -25t15 -17q0 -14 -18 -14q-19 0 -37.5 15t-31.5 45.5t-13 56.5q0 39 28.5 82t73.5 79t95 57.5t90 21.5q31 0 61 -16.5t49 -55.5t19 -77q0 -21 -10.5 -56.5t-34.5 -86t-91.5 -173.5t-67.5 -159q0 -18 16 -18q42 0 127.5 95t178 241.5t161.5 293.5q7 13 22 13
q21 0 45.5 -22.5t24.5 -41.5q0 -8 -6 -14q-60 -82 -203.5 -404t-177.5 -425q-4 -12 -11.5 -18t-16.5 -6z" />
    <glyph glyph-name="Zacute" unicode="&#x179;" horiz-adv-x="444" 
d="M345 756q-15 0 -28.5 13t-13.5 24q0 4 3.5 8t8.5 5q15 6 46.5 24.5t55.5 36t36 29.5q4 5 12 5q12 0 30 -21t18 -38q0 -21 -65 -53.5t-103 -32.5zM54 -1q-9 0 -22 11t-25 36t-12 45q0 16 7 24q40 50 177 204.5t283 313.5l2 4l-4 3l-5 -1q-67 -25 -139 -41t-104 -16
q-40 0 -60.5 28.5t-20.5 71.5q0 18 13 18q5 0 11.5 -5t18.5 -7.5t32 -2.5q55 0 157.5 10.5t160.5 29.5l9 2q15 0 33.5 -18.5t27 -40t8.5 -36.5q0 -19 -11 -27q-76 -60 -215 -211.5t-241 -276.5l-3 -4l3 -2h2q106 34 160 34q33 0 53.5 -13t30.5 -34.5t10 -47.5
q0 -15 -4.5 -28t-11.5 -13q-8 0 -12 12q0 8 -14 15.5t-54 7.5q-55 0 -126.5 -14t-106.5 -29q-3 -2 -8 -2z" />
    <glyph glyph-name="zacute" unicode="&#x17a;" horiz-adv-x="375" 
d="M246 528q-15 0 -28.5 13t-13.5 24q0 8 11 13q22 9 68.5 37.5t70.5 52.5q4 5 12 5q12 0 30 -21t18 -38q0 -21 -65 -53.5t-103 -32.5zM93 0q-22 0 -40 23t-18 51q0 22 13 39q19 24 71.5 82t106.5 111.5t92 87.5l3 4q-1 4 -4 4h-2q-101 -29 -155 -32q-4 0 -6 -4l-68 -118
q-2 -5 -20 -5q-10 0 -18.5 2.5t-5.5 7.5q38 60 78 142l1 6v3q-4 18 -4 24q0 20 7 33t21 13q5 0 13 -9.5t20.5 -14t29.5 -4.5q22 0 53 6t73 18t47 12q18 0 34.5 -15.5t23 -33.5t6.5 -30q0 -11 -4.5 -20.5t-12.5 -13.5q-193 -177 -279 -271l-2 -4q2 -4 5 -4l4 1q49 17 82 17
q34 0 54.5 -17.5t26.5 -37t6 -31.5q0 -19 -14 -19q-11 0 -24 10q-18 13 -57 13q-31 0 -70 -7.5t-50 -13.5q-8 -5 -17 -5z" />
    <glyph glyph-name="Zdotaccent" unicode="&#x17b;" horiz-adv-x="444" 
d="M400 749q-18 0 -31 16.5t-13 39.5q0 20 12.5 41.5t30 30.5t33.5 9q20 0 30 -11.5t10 -29.5q0 -14 -8 -35.5t-27 -41t-37 -19.5zM54 -1q-9 0 -22 11t-25 36t-12 45q0 16 7 24q40 50 177 204.5t283 313.5l2 4l-4 3l-5 -1q-67 -25 -139 -41t-104 -16q-40 0 -60.5 28.5
t-20.5 71.5q0 18 13 18q5 0 11.5 -5t18.5 -7.5t32 -2.5q55 0 157.5 10.5t160.5 29.5l9 2q15 0 33.5 -18.5t27 -40t8.5 -36.5q0 -19 -11 -27q-76 -60 -215 -211.5t-241 -276.5l-3 -4l3 -2h2q106 34 160 34q33 0 53.5 -13t30.5 -34.5t10 -47.5q0 -15 -4.5 -28t-11.5 -13
q-8 0 -12 12q0 8 -14 15.5t-54 7.5q-55 0 -126.5 -14t-106.5 -29q-3 -2 -8 -2z" />
    <glyph glyph-name="zdotaccent" unicode="&#x17c;" horiz-adv-x="375" 
d="M301 521q-18 0 -31 16t-13 39q0 21 12.5 42.5t30 30.5t33.5 9q20 0 30 -11.5t10 -29.5q0 -14 -8 -35.5t-27 -41t-37 -19.5zM93 0q-22 0 -40 23t-18 51q0 22 13 39q19 24 71.5 82t106.5 111.5t92 87.5l3 4q-1 4 -4 4h-2q-101 -29 -155 -32q-4 0 -6 -4l-68 -118
q-2 -5 -20 -5q-10 0 -18.5 2.5t-5.5 7.5q38 60 78 142l1 6v3q-4 18 -4 24q0 20 7 33t21 13q5 0 13 -9.5t20.5 -14t29.5 -4.5q22 0 53 6t73 18t47 12q18 0 34.5 -15.5t23 -33.5t6.5 -30q0 -11 -4.5 -20.5t-12.5 -13.5q-193 -177 -279 -271l-2 -4q2 -4 5 -4l4 1q49 17 82 17
q34 0 54.5 -17.5t26.5 -37t6 -31.5q0 -19 -14 -19q-11 0 -24 10q-18 13 -57 13q-31 0 -70 -7.5t-50 -13.5q-8 -5 -17 -5z" />
    <glyph glyph-name="Zcaron" unicode="&#x17d;" horiz-adv-x="444" 
d="M385 744q-24 0 -47.5 47t-23.5 82q0 22 12 22t41.5 -34t41.5 -34q10 0 50 24t47 24h2q7 0 11.5 -6.5t4.5 -13.5t-21 -29.5t-61 -52t-57 -29.5zM54 -1q-9 0 -22 11t-25 36t-12 45q0 16 7 24q40 50 177 204.5t283 313.5l2 4l-4 3l-5 -1q-67 -25 -139 -41t-104 -16
q-40 0 -60.5 28.5t-20.5 71.5q0 18 13 18q5 0 11.5 -5t18.5 -7.5t32 -2.5q55 0 157.5 10.5t160.5 29.5l9 2q15 0 33.5 -18.5t27 -40t8.5 -36.5q0 -19 -11 -27q-76 -60 -215 -211.5t-241 -276.5l-3 -4l3 -2h2q106 34 160 34q33 0 53.5 -13t30.5 -34.5t10 -47.5
q0 -15 -4.5 -28t-11.5 -13q-8 0 -12 12q0 8 -14 15.5t-54 7.5q-55 0 -126.5 -14t-106.5 -29q-3 -2 -8 -2z" />
    <glyph glyph-name="zcaron" unicode="&#x17e;" horiz-adv-x="375" 
d="M285 515q-17 0 -35.5 28.5t-26.5 57.5t-8 44q0 22 12 22t41.5 -34t41.5 -34q10 0 50 23.5t47 23.5h2q7 0 11.5 -6.5t4.5 -12.5q0 -7 -21 -30t-61 -52.5t-58 -29.5zM93 0q-22 0 -40 23t-18 51q0 22 13 39q19 24 71.5 82t106.5 111.5t92 87.5l3 4q-1 4 -4 4h-2
q-101 -29 -155 -32q-4 0 -6 -4l-68 -118q-2 -5 -20 -5q-10 0 -18.5 2.5t-5.5 7.5q38 60 78 142l1 6v3q-4 18 -4 24q0 20 7 33t21 13q5 0 13 -9.5t20.5 -14t29.5 -4.5q22 0 53 6t73 18t47 12q18 0 34.5 -15.5t23 -33.5t6.5 -30q0 -11 -4.5 -20.5t-12.5 -13.5
q-193 -177 -279 -271l-2 -4q2 -4 5 -4l4 1q49 17 82 17q34 0 54.5 -17.5t26.5 -37t6 -31.5q0 -19 -14 -19q-11 0 -24 10q-18 13 -57 13q-31 0 -70 -7.5t-50 -13.5q-8 -5 -17 -5z" />
    <glyph glyph-name="Scommaaccent" unicode="&#x218;" horiz-adv-x="475" 
d="M185 -9q-50 0 -86.5 13t-56 39.5t-19.5 59.5q0 19 10 39t29 31.5t32 11.5q11 0 11 -10q0 -4 -10 -14t-10 -24q0 -18 16.5 -30.5t40 -17t42.5 -4.5q59 0 108.5 25.5t49.5 62.5q0 7 -3.5 16.5t-17 21t-60.5 35.5t-65.5 37.5t-33 28.5t-27 41t-12.5 63q0 54 27.5 109.5
t73 99t101.5 69.5t108 26q20 0 41 -7t35 -22.5t20 -33.5l3 -3l3 2q22 33 26 37t11 4q18 0 38.5 -23.5t20.5 -43.5q0 -8 -4 -12q-25 -31 -68.5 -103t-70.5 -136q-4 -11 -15 -11q-14 0 -28 18t-14 37q0 47 75 191l1 2q0 6 -17 11t-33 5q-43 0 -100.5 -35t-96 -87.5
t-38.5 -90.5q0 -14 6 -28t18.5 -25t24.5 -18t63 -33t71 -46.5t29 -42t9 -48.5q0 -29 -13.5 -61t-45.5 -60t-83 -47t-116 -19zM139 -211q-10 0 -23.5 8.5t-13.5 20.5q0 5 3 11q20 26 53 120q5 11 18 11q9 0 23.5 -5.5t27.5 -18t13 -25.5q0 -9 -14.5 -35.5t-41.5 -56.5
t-45 -30z" />
    <glyph glyph-name="scommaaccent" unicode="&#x219;" horiz-adv-x="285" 
d="M105 -9q-30 0 -55.5 16t-45.5 55t-20 91q0 34 11.5 59.5t31.5 26.5q5 0 6 4l65 108l59 91q37 51 60 67t43 16q26 0 47.5 -18t21.5 -36q0 -4 -2.5 -9.5t-5.5 -7.5q-12 -9 -22 -29t-18 -56.5t-21 -185.5q-6 -62 -26.5 -104t-53.5 -65t-75 -23zM93 62q12 0 27 15t29.5 65.5
t28 143t18.5 115.5l1 5l-2 3l-5 -2q-6 -6 -19 -23t-54 -85q-59 -99 -78 -128l-2 -7q1 -39 16.5 -70.5t39.5 -31.5zM16 -211q-10 0 -23.5 9t-13.5 20q0 6 4 11q8 11 18 31.5t34 88.5q5 11 19 11q8 0 22.5 -5.5t27.5 -18t13 -25.5q0 -9 -14.5 -35.5t-41.5 -56.5t-45 -30z" />
    <glyph glyph-name="uni021A" unicode="&#x21a;" horiz-adv-x="381" 
d="M165 -1q-21 0 -44.5 21t-23.5 44q0 8 4 15q202 404 265 546l1 3l-4 4q-15 3 -50.5 5.5t-67.5 2.5q-73 0 -114.5 -27.5t-41.5 -72.5q0 -20 13 -30t13 -15q0 -6 -5.5 -9.5t-14.5 -3.5q-10 0 -28.5 14t-35 45.5t-16.5 61.5q0 56 42 89t126 33q27 0 58.5 -4t56 -8t42.5 -7
t34.5 -6.5t18.5 -3.5h1q5 0 7 5l6 19q5 15 20 15q30 0 68 -49q5 -7 10 -7l31 -1q66 0 107 30q5 5 12 5t11.5 -8.5t4.5 -19.5q0 -28 -18 -48t-45 -27t-51 -7q-32 0 -81 11q-3 0 -6 -4q-55 -105 -158 -320.5t-125 -275.5q-2 -7 -8.5 -11t-13.5 -4zM67 -211q-10 0 -23.5 9
t-13.5 20q0 6 4 11q8 11 18 31.5t34 88.5q5 11 19 11q8 0 22.5 -5.5t27.5 -18t13 -25.5q0 -9 -14.5 -35.5t-41.5 -56.5t-45 -30z" />
    <glyph glyph-name="uni021B" unicode="&#x21b;" horiz-adv-x="239" 
d="M95 0q-32 0 -52.5 26t-20.5 69q0 23 10 63l1 3l-3 2l-2 -1q-10 -3 -24 -3q-6 0 -12 2t-6 5l1 3q22 31 67.5 106t78.5 139l1 3l-5 4q-13 4 -23 16t-10 22q0 11 11 14q14 3 61 5q5 0 6 4q50 96 84 152q8 12 23 12q20 0 41.5 -21t21.5 -39q0 -8 -5 -13q-12 -12 -57 -89
l-1 -3q0 -4 5 -4l50 -3q16 -3 16 -14q0 -12 -17.5 -25.5t-41.5 -17.5l-45 -2q-4 0 -7 -4q-49 -90 -89 -182.5t-40 -124.5q0 -7 3.5 -13t11.5 -6q27 0 82 68.5t126 189.5l4 2q8 0 17.5 -8t9.5 -14l-1 -4q-37 -73 -88 -151.5t-98.5 -123t-83.5 -44.5zM5 -211q-10 0 -24 8.5
t-14 20.5q0 6 4 11q11 15 20.5 36.5t19.5 49t13 34.5q3 11 18 11q8 0 22.5 -5.5t27.5 -18t13 -25.5q0 -9 -14.5 -35.5t-41.5 -56.5t-44 -30z" />
    <glyph glyph-name="gravecomb" unicode="&#x300;" horiz-adv-x="0" 
d="M58 509q-16 0 -47 17.5t-65 50t-34 50.5q0 8 8 18.5t24 20t25 9.5q8 0 13 -9q19 -33 54 -66.5t58 -49.5q3 -2 5.5 -6.5t2.5 -7.5q0 -10 -15 -18.5t-29 -8.5z" />
    <glyph glyph-name="acutecomb" unicode="&#x301;" horiz-adv-x="0" 
d="M-35 528q-15 0 -28.5 13t-13.5 24q0 9 12 13q15 6 46.5 24.5t55.5 36t36 29.5q4 5 12 5q12 0 30 -21t18 -38q0 -21 -65 -53.5t-103 -32.5z" />
    <glyph glyph-name="uni0302" unicode="&#x302;" horiz-adv-x="0" 
d="M65 507q-12 0 -42 34t-41 34q-10 0 -50 -23.5t-47 -23.5h-2q-7 0 -11.5 6.5t-4.5 12.5q0 7 21 30t61 52.5t57 29.5q24 0 47.5 -47t23.5 -82q0 -23 -12 -23z" />
    <glyph glyph-name="tildecomb" unicode="&#x303;" horiz-adv-x="0" 
d="M-200 520q-14 0 -26 6t-35.5 23.5t-37.5 17.5q-9 0 -19.5 -4.5t-28.5 -25.5q-9 -7 -11 -7q-10 0 -15 15t-5 27q0 14 9 32t30 31t42 13q14 0 27.5 -6t37.5 -23t37 -17q20 0 46 29q7 8 13 8q11 0 18.5 -13t7.5 -27q0 -31 -30 -55t-60 -24z" />
    <glyph glyph-name="uni0304" unicode="&#x304;" horiz-adv-x="0" 
d="M-158 535q-5 0 -8 6t-3 14q0 18 13 38.5t27 20.5l104 -1l105 2q13 0 13 -20q0 -9 -4 -22t-14.5 -24.5t-21.5 -11.5l-97 2q-29 0 -70 -2t-44 -2z" />
    <glyph glyph-name="uni0306" unicode="&#x306;" horiz-adv-x="0" 
d="M4 518q-41 0 -65 24.5t-24 62.5q0 34 17.5 54t38.5 20q17 0 17 -15l-3 -32q0 -19 10.5 -31t27.5 -12q16 0 36 13t40 40q7 9 16.5 14t17.5 5t13.5 -5t5.5 -14q0 -18 -16.5 -45.5t-54 -53t-77.5 -25.5z" />
    <glyph glyph-name="uni0307" unicode="&#x307;" horiz-adv-x="0" 
d="M58 520q-17 0 -30 16.5t-13 38.5q0 13 7 32t26 34.5t42 15.5q20 0 30 -11.5t10 -29.5q0 -14 -8 -35.5t-27 -41t-37 -19.5z" />
    <glyph glyph-name="uni0308" unicode="&#x308;" horiz-adv-x="0" 
d="M-75 532q-16 0 -29 15.5t-13 34.5q0 13 6.5 31t24 33t37.5 15q41 0 41 -39q0 -20 -13 -44t-28 -35t-26 -11zM63 525q-16 0 -28.5 15.5t-12.5 34.5q0 29 20.5 54t48.5 25q15 0 27.5 -8.5t12.5 -30.5q0 -20 -13 -44t-28.5 -35t-26.5 -11z" />
    <glyph glyph-name="uni030A" unicode="&#x30a;" horiz-adv-x="0" 
d="M27 521q-18 0 -36.5 8.5t-29.5 27.5t-11 38q0 25 16 53.5t38 41.5t41 13q15 0 33.5 -9t32.5 -29.5t14 -41.5q0 -22 -15 -48.5t-37.5 -40t-45.5 -13.5zM21 567q20 0 37 22.5t17 42.5q0 9 -5.5 15.5t-15.5 6.5q-21 0 -37 -22t-16 -42q0 -10 5 -16.5t15 -6.5z" />
    <glyph glyph-name="uni030B" unicode="&#x30b;" horiz-adv-x="0" 
d="M-95 518q-9 -1 -20.5 7.5t-11.5 16.5l3 8q12 15 34 60t32 76q4 9 13 9q12 0 29.5 -14t17.5 -27q0 -16 -21.5 -51t-42.5 -59t-33 -26zM15 520q-9 0 -19.5 9t-10.5 17q0 5 4 9q12 15 37.5 58.5t37.5 71.5q1 3 4 6.5t7 3.5q11 0 29 -15.5t18 -28.5q0 -15 -24 -50t-47 -58
t-36 -23z" />
    <glyph glyph-name="uni030C" unicode="&#x30c;" horiz-adv-x="0" 
d="M-14 515q-12 0 -28 17.5t-29.5 53t-13.5 59.5q0 22 13 22q12 0 41.5 -34t41.5 -34q10 0 50 23.5t47 23.5h1q7 0 11.5 -6.5t4.5 -12.5q0 -7 -20.5 -30t-60.5 -52.5t-58 -29.5z" />
    <glyph glyph-name="uni0326" unicode="&#x326;" horiz-adv-x="0" 
d="M-269 -211q-10 0 -23.5 8.5t-13.5 20.5q0 5 3 11q20 26 53 120q5 11 18 11q9 0 23.5 -5.5t27.5 -18t13 -25.5q0 -9 -15 -35.5t-42 -56.5t-44 -30z" />
    <glyph glyph-name="uni0327" unicode="&#x327;" horiz-adv-x="0" 
d="M-192 -145q-16 0 -33.5 7.5t-28 23.5t-10.5 30q0 7 3 12t8 5q6 0 10 -3q15 -7 32 -7q26 0 42 23.5t16 65.5l-1 12l29 -6q15 -33 15 -65q0 -42 -21.5 -70t-60.5 -28z" />
    <glyph glyph-name="uni0328" unicode="&#x328;" horiz-adv-x="0" 
d="M-188 -169q-33 0 -52.5 20t-19.5 47q0 17 11 40.5t38 49.5t60 47l19 -21q-45 -41 -45 -76q0 -17 11.5 -26t30.5 -9q18 0 32 7.5t16 7.5q5 0 8.5 -4.5t3.5 -10.5q0 -10 -12.5 -26t-42 -31t-58.5 -15z" />
    <glyph glyph-name="Wgrave" unicode="&#x1e80;" horiz-adv-x="779" 
d="M717 745q-16 0 -47 17.5t-65 50t-34 50.5q0 8 8 18.5t24 20t25 9.5q7 0 13 -8q14 -25 47 -60t65 -57q8 -5 8 -13q0 -10 -15 -19t-29 -9zM252 -9q-15 0 -40.5 16.5t-38 38.5t-12.5 40q0 10 5 27q84 209 107 277t37 118.5t17 76.5t3 34q0 45 -25 45q-15 0 -44 -18.5
t-71.5 -63t-69.5 -92t-27 -75.5q0 -14 13.5 -24t15 -12.5t1.5 -4.5q0 -15 -18 -15q-19 0 -38 15.5t-32.5 47.5t-13.5 58q0 29 18 68t62.5 84t98 71t92.5 26q36 0 63.5 -19.5t45 -55t17.5 -80.5q0 -33 -20.5 -104.5t-81.5 -219.5t-62 -151l-1 -4q0 -3 3 -4l4 3
q69 106 161 270.5t179 342.5q4 14 17 14q18 0 40 -23t22 -43q0 -8 -4 -13q-15 -26 -38.5 -81.5t-55.5 -148t-51.5 -172t-19.5 -115.5q-1 -35 16 -35q22 0 61 47.5t90 147t97.5 219t52.5 180.5q1 11 -6.5 22.5t-7.5 15.5q0 7 5 11.5t12 4.5q11 0 33 -10.5t43 -36.5t21 -56
q0 -25 -20.5 -89t-73 -172t-111.5 -196t-110.5 -136t-92.5 -48q-28 0 -53.5 25.5t-36 60.5t-10.5 63q0 23 10 56.5t27 82t22 64.5l1 3q0 3 -3 5l-4 -4q-54 -99 -200 -345q-7 -14 -20 -14z" />
    <glyph glyph-name="wgrave" unicode="&#x1e81;" horiz-adv-x="529" 
d="M461 509q-16 0 -47 17.5t-65.5 50t-34.5 50.5q0 8 8 18.5t24.5 20t25.5 9.5q8 0 13 -9q14 -25 46 -58.5t65 -57.5q3 -2 6 -6.5t3 -7.5q0 -10 -15 -18.5t-29 -8.5zM89 0q-9 0 -21 4.5t-23 17t-19 35.5t-7 58q2 71 51.5 184.5t93.5 164.5q11 12 30 12q10 0 25 -5.5
t28 -17.5t13 -22q0 -5 -4 -8q-22 -22 -58.5 -88.5t-63 -136t-26.5 -96.5q0 -17 9 -17q12 0 37 32t64.5 105t71.5 144l43 98q4 15 22 15q10 0 28 -9.5t32.5 -27.5t8.5 -28q-39 -64 -84 -169t-45 -143q0 -17 10 -17q21 0 70.5 77t93.5 174.5t48 131.5q1 9 5.5 13.5t11.5 4.5
q17 0 38 -21.5t21 -44.5q0 -22 -22 -77t-73 -140.5t-108.5 -144t-98.5 -58.5q-18 0 -33 11t-24 33.5t-9 59.5v15q0 5 -4 7l-4 -3q-21 -39 -45 -69t-45.5 -42t-37.5 -12z" />
    <glyph glyph-name="Wacute" unicode="&#x1e82;" horiz-adv-x="779" 
d="M600 765q-15 0 -29 12.5t-14 23.5q0 4 3.5 8t8.5 6q23 9 69 37.5t69 52.5q5 4 13 4q12 0 29.5 -20.5t17.5 -38.5q0 -21 -65 -53t-102 -32zM252 -9q-15 0 -40.5 16.5t-38 38.5t-12.5 40q0 10 5 27q84 209 107 277t37 118.5t17 76.5t3 34q0 45 -25 45q-15 0 -44 -18.5
t-71.5 -63t-69.5 -92t-27 -75.5q0 -14 13.5 -24t15 -12.5t1.5 -4.5q0 -15 -18 -15q-19 0 -38 15.5t-32.5 47.5t-13.5 58q0 29 18 68t62.5 84t98 71t92.5 26q36 0 63.5 -19.5t45 -55t17.5 -80.5q0 -33 -20.5 -104.5t-81.5 -219.5t-62 -151l-1 -4q0 -3 3 -4l4 3
q69 106 161 270.5t179 342.5q4 14 17 14q18 0 40 -23t22 -43q0 -8 -4 -13q-15 -26 -38.5 -81.5t-55.5 -148t-51.5 -172t-19.5 -115.5q-1 -35 16 -35q22 0 61 47.5t90 147t97.5 219t52.5 180.5q1 11 -6.5 22.5t-7.5 15.5q0 7 5 11.5t12 4.5q11 0 33 -10.5t43 -36.5t21 -56
q0 -25 -20.5 -89t-73 -172t-111.5 -196t-110.5 -136t-92.5 -48q-28 0 -53.5 25.5t-36 60.5t-10.5 63q0 23 10 56.5t27 82t22 64.5l1 3q0 3 -3 5l-4 -4q-54 -99 -200 -345q-7 -14 -20 -14z" />
    <glyph glyph-name="wacute" unicode="&#x1e83;" horiz-adv-x="529" 
d="M344 528q-15 0 -29 13t-14 24q0 9 12 13q15 6 46.5 24.5t55.5 36t36 29.5q5 5 13 5q12 0 29.5 -21t17.5 -38q0 -21 -65 -53.5t-102 -32.5zM89 0q-9 0 -21 4.5t-23 17t-19 35.5t-7 58q2 71 51.5 184.5t93.5 164.5q11 12 30 12q10 0 25 -5.5t28 -17.5t13 -22q0 -5 -4 -8
q-22 -22 -58.5 -88.5t-63 -136t-26.5 -96.5q0 -17 9 -17q12 0 37 32t64.5 105t71.5 144l43 98q4 15 22 15q10 0 28 -9.5t32.5 -27.5t8.5 -28q-39 -64 -84 -169t-45 -143q0 -17 10 -17q21 0 70.5 77t93.5 174.5t48 131.5q1 9 5.5 13.5t11.5 4.5q17 0 38 -21.5t21 -44.5
q0 -22 -22 -77t-73 -140.5t-108.5 -144t-98.5 -58.5q-18 0 -33 11t-24 33.5t-9 59.5v15q0 5 -4 7l-4 -3q-21 -39 -45 -69t-45.5 -42t-37.5 -12z" />
    <glyph glyph-name="Wdieresis" unicode="&#x1e84;" horiz-adv-x="779" 
d="M566 768q-16 0 -28.5 15.5t-12.5 34.5q0 13 6.5 31t23.5 33t37 15q42 0 42 -39q0 -12 -7.5 -32.5t-25.5 -39t-35 -18.5zM705 761q-16 0 -28.5 15.5t-12.5 35.5q0 29 20.5 53.5t48.5 24.5q40 0 40 -38q0 -13 -7.5 -33.5t-25.5 -39t-35 -18.5zM252 -9q-15 0 -40.5 16.5
t-38 38.5t-12.5 40q0 10 5 27q84 209 107 277t37 118.5t17 76.5t3 34q0 45 -25 45q-15 0 -44 -18.5t-71.5 -63t-69.5 -92t-27 -75.5q0 -14 13.5 -24t15 -12.5t1.5 -4.5q0 -15 -18 -15q-19 0 -38 15.5t-32.5 47.5t-13.5 58q0 29 18 68t62.5 84t98 71t92.5 26q36 0 63.5 -19.5
t45 -55t17.5 -80.5q0 -33 -20.5 -104.5t-81.5 -219.5t-62 -151l-1 -4q0 -3 3 -4l4 3q69 106 161 270.5t179 342.5q4 14 17 14q18 0 40 -23t22 -43q0 -8 -4 -13q-15 -26 -38.5 -81.5t-55.5 -148t-51.5 -172t-19.5 -115.5q-1 -35 16 -35q22 0 61 47.5t90 147t97.5 219
t52.5 180.5q1 11 -6.5 22.5t-7.5 15.5q0 7 5 11.5t12 4.5q11 0 33 -10.5t43 -36.5t21 -56q0 -25 -20.5 -89t-73 -172t-111.5 -196t-110.5 -136t-92.5 -48q-28 0 -53.5 25.5t-36 60.5t-10.5 63q0 23 10 56.5t27 82t22 64.5l1 3q0 3 -3 5l-4 -4q-54 -99 -200 -345
q-7 -14 -20 -14z" />
    <glyph glyph-name="wdieresis" unicode="&#x1e85;" horiz-adv-x="529" 
d="M310 532q-16 0 -29 15.5t-13 34.5q0 13 7 31t24 33t37 15q41 0 41 -39q0 -13 -7.5 -33.5t-25 -38.5t-34.5 -18zM448 525q-16 0 -28.5 15.5t-12.5 34.5q0 29 20.5 54t48.5 25q15 0 27.5 -8.5t12.5 -30.5q0 -20 -12.5 -44t-28 -35t-27.5 -11zM89 0q-9 0 -21 4.5t-23 17
t-19 35.5t-7 58q2 71 51.5 184.5t93.5 164.5q11 12 30 12q10 0 25 -5.5t28 -17.5t13 -22q0 -5 -4 -8q-22 -22 -58.5 -88.5t-63 -136t-26.5 -96.5q0 -17 9 -17q12 0 37 32t64.5 105t71.5 144l43 98q4 15 22 15q10 0 28 -9.5t32.5 -27.5t8.5 -28q-39 -64 -84 -169t-45 -143
q0 -17 10 -17q21 0 70.5 77t93.5 174.5t48 131.5q1 9 5.5 13.5t11.5 4.5q17 0 38 -21.5t21 -44.5q0 -22 -22 -77t-73 -140.5t-108.5 -144t-98.5 -58.5q-18 0 -33 11t-24 33.5t-9 59.5v15q0 5 -4 7l-4 -3q-21 -39 -45 -69t-45.5 -42t-37.5 -12z" />
    <glyph glyph-name="Ygrave" unicode="&#x1ef2;" horiz-adv-x="621" 
d="M637 745q-16 0 -47 17.5t-65 50t-34 50.5q0 8 8 18.5t24 20t25 9.5q7 0 13 -8q14 -25 47 -60t65 -57q8 -5 8 -13q0 -10 -15 -19t-29 -9zM392 -201q-10 0 -25 8t-28 26t-13 35q0 5 4 15q20 39 91.5 193.5t84.5 182.5q5 10 5 16l-2 3q-7 -5 -13 -13q-95 -147 -152.5 -206
t-102.5 -59q-17 0 -37.5 12.5t-36 43.5t-15.5 65q0 24 10.5 62t33 83.5t75 140.5t71.5 143.5t19 80.5q0 13 -4.5 23t-22.5 10q-42 0 -101.5 -43t-101 -102t-41.5 -91q0 -14 15 -25t15 -17q0 -14 -18 -14q-19 0 -37.5 15t-31.5 45.5t-13 56.5q0 39 28.5 82t73.5 79t95 57.5
t90 21.5q31 0 61 -16.5t49 -55.5t19 -77q0 -21 -10.5 -56.5t-34.5 -86t-91.5 -173.5t-67.5 -159q0 -18 16 -18q42 0 127.5 95t178 241.5t161.5 293.5q7 13 22 13q21 0 45.5 -22.5t24.5 -41.5q0 -8 -6 -14q-60 -82 -203.5 -404t-177.5 -425q-4 -12 -11.5 -18t-16.5 -6z" />
    <glyph glyph-name="ygrave" unicode="&#x1ef3;" horiz-adv-x="390" 
d="M412 509q-16 0 -47 17.5t-65.5 50t-34.5 50.5q0 8 8 18.5t24.5 20t25.5 9.5q8 0 12 -9q20 -33 55 -67t57 -49q8 -5 8 -14q0 -10 -14.5 -18.5t-28.5 -8.5zM43 -209q-26 0 -57 10.5t-53.5 33.5t-22.5 42q0 10 8 20.5t17 10.5q14 0 23 -23q20 -29 54 -29q49 0 100.5 62
t111.5 200l2 10l-1 3q-6 -4 -10 -10q-26 -37 -54.5 -66.5t-52.5 -42t-41 -12.5q-28 0 -48 26t-20 67t24.5 108t64 145.5t71.5 123.5q8 9 20 9q10 0 25.5 -7t30 -22t14.5 -28q0 -9 -6 -17q-2 -2 -9.5 -13.5t-34.5 -58.5t-63 -124t-36 -104q0 -12 7 -12q16 0 55 39t84 104
t89 153q22 43 41 90q4 10 18 10q21 0 45.5 -20t24.5 -42q0 -9 -4 -17q-50 -94 -114.5 -244t-72.5 -167q-44 -99 -103 -153.5t-127 -54.5z" />
    <glyph glyph-name="endash" unicode="&#x2013;" horiz-adv-x="626" 
d="M179 234q-5 0 -8 5.5t-3 13.5q0 20 15 44t34 24h278l86 2q13 0 13 -20q0 -21 -12.5 -44.5t-27.5 -23.5l-179 2z" />
    <glyph glyph-name="emdash" unicode="&#x2014;" horiz-adv-x="735" 
d="M179 234q-5 0 -8 5.5t-3 13.5q0 20 15 44t34 24h387l86 2q13 0 13 -20q0 -21 -12.5 -44.5t-27.5 -23.5l-224 2z" />
    <glyph glyph-name="quoteleft" unicode="&#x2018;" horiz-adv-x="175" 
d="M264 535q-21 0 -40.5 12t-19.5 29q0 16 22 55.5t65 89.5t62 50q7 0 15.5 -6.5t8.5 -16.5q0 -3 -5 -13q-24 -46 -52.5 -104t-36.5 -82q-3 -14 -19 -14z" />
    <glyph glyph-name="quoteright" unicode="&#x2019;" horiz-adv-x="182" 
d="M227 535q-7 0 -15.5 7t-8.5 16q0 3 5 13q24 46 52.5 104t36.5 82q4 14 19 14q21 0 40.5 -12t19.5 -29q0 -16 -22 -55.5t-65 -89.5t-62 -50z" />
    <glyph glyph-name="quotesinglbase" unicode="&#x201a;" horiz-adv-x="241" 
d="M38 -71q-10 0 -24.5 9t-14.5 20q0 5 6 11q11 12 30.5 52t39.5 95q4 11 19 11q19 0 41 -15.5t22 -33.5q0 -22 -25.5 -60.5t-51.5 -63.5t-42 -25z" />
    <glyph glyph-name="quotedblleft" unicode="&#x201c;" horiz-adv-x="309" 
d="M264 535q-21 0 -40.5 12t-19.5 29q0 16 22 55.5t65 89.5t62 50q7 0 15.5 -6.5t8.5 -16.5q0 -3 -5 -13q-24 -46 -52.5 -104t-36.5 -82q-3 -14 -19 -14zM400 535q-21 0 -40.5 12t-19.5 29q0 16 22 55.5t65 89.5t62 50q7 0 16 -6.5t9 -16.5q0 -1 -6 -13q-75 -146 -89 -186
q-3 -14 -19 -14z" />
    <glyph glyph-name="quotedblright" unicode="&#x201d;" horiz-adv-x="318" 
d="M227 535q-7 0 -15.5 7t-8.5 16q0 3 5 13q24 46 52.5 104t36.5 82q4 14 19 14q21 0 40.5 -12t19.5 -29q0 -16 -22 -55.5t-65 -89.5t-62 -50zM364 535q-7 0 -16 7t-9 16q0 3 2.5 7t3.5 6q75 146 89 186q2 14 19 14q21 0 40.5 -12t19.5 -29q0 -12 -14 -40.5t-44.5 -68.5
t-54.5 -63t-36 -23z" />
    <glyph glyph-name="quotedblbase" unicode="&#x201e;" horiz-adv-x="368" 
d="M94 127q19 0 41 -15.5t22 -33.5q0 -22 -25.5 -60.5t-51.5 -63.5t-42 -25q-10 0 -24.5 9t-14.5 20q0 5 6 11q11 12 30.5 52t39.5 95q4 11 19 11zM221 127q19 0 41.5 -15.5t22.5 -33.5q0 -16 -17.5 -47.5t-50.5 -66.5t-52 -35q-10 0 -24 9t-14 20q0 6 5 11q23 24 71 147
q3 11 18 11z" />
    <glyph glyph-name="dagger" unicode="&#x2020;" horiz-adv-x="436" 
d="M138 -86q-14 0 -32.5 27t-18.5 60q0 14 8 34q6 17 22 56t88 204l75 178l1 2q0 4 -5 4l-114 -3q-5 0 -8 6t-3 13q0 21 15 45t34 24h114q5 0 6 4q55 128 78 175q5 9 14 9q7 0 14.5 -11t13 -33.5t5.5 -39.5q0 -21 -8 -43l-21 -55v-2q0 -4 5 -4h38l86 1q13 0 13 -20
q0 -9 -4 -24t-14 -29t-22 -14l-134 2q-5 0 -6 -4l-107 -259l-125 -298q-1 -5 -8 -5z" />
    <glyph glyph-name="daggerdbl" unicode="&#x2021;" horiz-adv-x="518" 
d="M165 -86q-14 0 -32 27t-18 60q0 17 7 34q15 44 51 125l1 3q-2 4 -5 4l-95 -2q-11 0 -11 19q0 20 15 44t34 24h96q4 0 7 4l17 39l75 178l1 2q0 4 -5 4l-114 -3q-5 0 -8 6t-3 13q0 21 15 45t34 24h114q4 0 7 4q49 117 77 175q5 9 14 9q7 0 14.5 -11t13 -33.5t5.5 -39.5
q0 -18 -7 -43l-21 -55l-1 -2q0 -4 5 -4h38l87 1q12 0 12 -20q0 -9 -4 -24t-14 -29t-22 -14l-133 2q-6 0 -7 -4l-90 -218l-1 -2q0 -4 5 -4h52l86 2q6 0 9.5 -6t3.5 -14q0 -21 -12 -44.5t-28 -23.5l-147 2q-6 0 -7 -4l-102 -245q-2 -5 -9 -5z" />
    <glyph glyph-name="bullet" unicode="&#x2022;" horiz-adv-x="445" 
d="M277 198q-17 0 -36.5 10t-32.5 34.5t-13 51.5q0 26 13.5 50t42.5 39.5t60 15.5q36 0 56 -20.5t20 -53.5q0 -36 -20 -68.5t-45.5 -45.5t-44.5 -13z" />
    <glyph glyph-name="ellipsis" unicode="&#x2026;" horiz-adv-x="575" 
d="M101 2q-22 0 -36.5 18t-14.5 41q0 30 22.5 47.5t49.5 17.5q22 0 34.5 -12.5t12.5 -33.5q0 -14 -7.5 -32.5t-25 -32t-35.5 -13.5zM267 2q-22 0 -36.5 18t-14.5 41q0 30 22.5 47.5t49.5 17.5q22 0 34.5 -12.5t12.5 -33.5q0 -31 -21 -54.5t-47 -23.5zM435 2q-22 0 -36.5 18
t-14.5 41q0 15 8 30.5t26 25t37 9.5q22 0 35 -13t13 -33q0 -14 -7.5 -32.5t-25 -32t-35.5 -13.5z" />
    </font>
</defs>
</svg>
